/* XPM */
static char *Y2F0Lg__[] = {
/* columns rows colors chars-per-pixel */
"50 50 222 2 ",
"   c #020202",
".  c #0B0102",
"X  c #020903",
"o  c #0B0B04",
"O  c #03020A",
"+  c #0B020B",
"@  c #050A0A",
"#  c #0B0B0B",
"$  c #130101",
"%  c #1B0101",
"&  c #13040A",
"*  c #1C020C",
"=  c #120C0B",
"-  c #140803",
";  c #0A110A",
":  c #0B0B11",
">  c #0B0513",
",  c #081613",
"<  c #141414",
"1  c #19141B",
"2  c #1C1C1C",
"3  c #171818",
"4  c #150D0D",
"5  c #230102",
"6  c #22000A",
"7  c #260706",
"8  c #320102",
"9  c #3B0000",
"0  c #280A16",
"q  c #370316",
"w  c #26181A",
"e  c #341613",
"r  c #33180F",
"t  c #15241C",
"y  c #1F210C",
"u  c #25231D",
"i  c #35211A",
"p  c #1C1920",
"a  c #3F0E21",
"s  c #231F20",
"d  c #361723",
"f  c #232324",
"g  c #292426",
"h  c #252229",
"j  c #2B2329",
"k  c #2B2B2C",
"l  c #252926",
"z  c #31292A",
"x  c #263627",
"c  c #35382E",
"v  c #3D2D37",
"b  c #2B3635",
"n  c #333233",
"m  c #363935",
"M  c #393B34",
"N  c #323139",
"B  c #353C3B",
"V  c #3D3D3D",
"C  c #3C3537",
"Z  c #420000",
"A  c #49031B",
"S  c #521214",
"D  c #6A1C07",
"F  c #791407",
"G  c #781313",
"H  c #691B1B",
"J  c #4E0B24",
"K  c #470721",
"L  c #570D2B",
"P  c #411122",
"I  c #47172A",
"U  c #57172C",
"Y  c #561C34",
"T  c #5E1A31",
"R  c #651A35",
"E  c #6C0E30",
"W  c #472D25",
"Q  c #482A35",
"!  c #582637",
"~  c #433B3D",
"^  c #483736",
"/  c #593D33",
"(  c #6A3B35",
")  c #26423D",
"_  c #33423E",
"`  c #3B413D",
"'  c #546D17",
"]  c #5A7917",
"[  c #4F6A1B",
"{  c #627D16",
"}  c #43443E",
"|  c #484439",
" . c #58433C",
".. c #754030",
"X. c #576D28",
"o. c #5D7522",
"O. c #5E7C22",
"+. c #567124",
"@. c #627929",
"#. c #647A3C",
"$. c #3D3D41",
"%. c #373741",
"&. c #443E41",
"*. c #4B3E43",
"=. c #4F3F49",
"-. c #563944",
";. c #752B47",
":. c #6B3649",
">. c #3D4442",
",. c #354942",
"<. c #3B4944",
"1. c #3A4746",
"2. c #3A5651",
"3. c #304F49",
"4. c #434343",
"5. c #4A4245",
"6. c #434945",
"7. c #4A4944",
"8. c #454549",
"9. c #4C454B",
"0. c #454A4A",
"q. c #4A4A4A",
"w. c #52444A",
"e. c #564549",
"r. c #4A524E",
"t. c #52534D",
"y. c #4C4D52",
"u. c #4E5651",
"i. c #70534A",
"p. c #677B43",
"a. c #61625E",
"s. c #5F5F61",
"d. c #6B6C6B",
"f. c #6A6A65",
"g. c #767A74",
"h. c #6D6F73",
"j. c #810F0E",
"k. c #83100B",
"l. c #89193F",
"z. c #983D38",
"x. c #A73B33",
"c. c #AE3C31",
"v. c #C33A39",
"b. c #9B4333",
"n. c #8A4331",
"m. c #A94633",
"M. c #B64235",
"N. c #852A49",
"B. c #943657",
"V. c #863E56",
"C. c #B33F40",
"Z. c #BB245C",
"A. c #A5325E",
"S. c #A9204E",
"D. c #9C3E63",
"F. c #BD2D62",
"G. c #AB3A63",
"H. c #AB3A68",
"J. c #B43363",
"K. c #BA3A6A",
"L. c #B83965",
"P. c #C4265C",
"I. c #CB2964",
"U. c #D22566",
"Y. c #C53669",
"T. c #9B405F",
"R. c #904642",
"E. c #A74748",
"W. c #A44165",
"Q. c #A54367",
"!. c #B7446E",
"~. c #B74971",
"^. c #AA4E70",
"/. c #856862",
"(. c #935469",
"). c #C5406D",
"_. c #62811A",
"`. c #6A8830",
"'. c #6C8143",
"]. c #748B4B",
"[. c #73814C",
"{. c #788559",
"}. c #7C8F62",
"|. c #96A87A",
" X c #7B7A83",
".X c #888E85",
"XX c #9A999A",
"oX c #93908C",
"OX c #A49F9B",
"+X c #9BA58F",
"@X c #A0A09E",
"#X c #B1BB97",
"$X c #A09EA1",
"%X c #A9ABA6",
"&X c #B6B2A7",
"*X c #BDC6A6",
"=X c #BFC0BA",
"-X c #C4C6BA",
";X c #CAD7BA",
":X c #D1D6B8",
">X c #D9EAB4",
",X c #E2EEBE",
"<X c #E4F3BD",
"1X c #CFD2C5",
"2X c #DAEEC9",
"3X c #E3EBC9",
"4X c #E6F4CC",
"5X c #ECF9D6",
"6X c #F4FFDA",
"7X c #ECEDD8",
"8X c #EAEBE5",
"9X c #E6E9E3",
"0X c #EFF7E7",
"qX c #F5FEE3",
"wX c #FBFFE1",
"eX c #F5FDED",
"rX c #FBFFED",
"tX c #F3F5EA",
"yX c #F5FBF2",
"uX c #FCFEF4",
"iX c #FEFFFC",
"pX c #F5F6F0",
/* pixels */
"4.4.4.4.5.*.4.4.4.~ e.9.4.4.<.` &.*.5.5.>.<.>.0.` 6.4.5.5.*.5.*.-.-.&.$.=.=.%.3.4.q.&.<.<.>.4.4.4.4.",
"4.4.4.5.4.4.4.5.5.5.5.C ~ q.8.4.9.*.~ 4.4.<.<.` >.4.4.5.4.4.} *.*.&.$.%.=.=.,.r.$.9.4.>.4.>.4.4.4.4.",
"4.4.&.4.4.4.5.} 4.4.B f 2 w w z 4.4.4.0.>.<.>.>.4.4.5.4.4.~ 4.<.3.3.3.%.j s t , N 0.&.4.4.4.8.4.4.4.",
"5.4.4.4.4.&.4.*.7.` b ,   . . w 9.6.<.<.<.<.4.6.4.4.4.4.>.>.>.<.2.) 2.b > & >   k *.4.4.4.4.6.4.4.4.",
"5.5.4.6.4.4.5.&.>.6._ , . 0 P Y ~ M B B >.>.4.>.4.4.&.4.4.6.<.<.1.%.&.-.J A * . j *.*.*.5.&.6.4.4.4.",
"*.4.>.>.4.4.5.*.V r._ X . e.T.R $ w ~ y.q.4.4.4.5.&.4.4.6.6.<.<.&.v * q H.D.q $ d -.*.*.4.4.6.>.4.4.",
"*.4.>.<.>.4.*.*.~ 0.,.X . :.).l.5 0 ^ e.9.~ 4.4.4.4.&.4.8.4.>.M y.v % 8 G.^.P + j 8.*.*.*.4.q.>.4.4.",
"*.4.>.<.>.4.*.*.*.V ,.; % ;.).S.N.T P d Q 7.5.` 4.4.&.4.4.&.V C 0 I :.B.J.A.I . k 8.4.&.*.5.5.&.4.4.",
"5.4.<.,.<.4.*.-.5.} B # % N.Y.P.!.B.8 5 -.e.V q.>.4.>.9.5.9.e.0 5 E ^.J.F.K.P . f 0.4.5.*.5.&.4.4.4.",
"} 4.<.,.<.6.*.*.e.5.4.& 5 N.Y.P.F.A.A A ! Q n b B >.m C ~ Q Q ! J E L.F.I.L.K . l 0.>.4.&.5.&.4.4.4.",
"&.4.<.<.>.4.*.*.*.~ ~ $ 5 ;.L.Y.L.W.B.V.q - =     X     & . . ! H.Z.Y.Z.I.J.J $ h 6.>.4.&.5.&.5.&.4.",
"4.} <.<.>.4.5.*.5.*.&.& 5 ;.G.L.J.W.^.(.0 $ .           & . $ :.~.K.Y.K.Y.H.P + h 0.` 4.4.4.&.4.4.4.",
"4.4.4.>.>.4.4.4.9.*.4.. $ P T R H T L Q * . .       .   . . . w Y L Y Y R Y =   l 0.>.8.>.4.*.*.4.4.",
"4.4.4.4.4.4.4.4.V M ~ . . $ % % 5 % % $ . @     X         . . . * $ O   & $   X l 0.>.4.4.4.&.4.4.4.",
"&.*.4.&.4.4.<.>.>.>.q.@ @       . & . +       @       .     @   . . @ O & &     g 9.&.4.>.4.4.4.4.4.",
"5.4.} 4.4.>.4.<.6.>.4.      X X       o           =             + O @ O   +     g e.&.4.>.>.&.8.4.4.",
"} 4.} 4.4.>.8.>.8.V $.;         + . O       @     ;           O + O O O   O +   u | | 7.` ` y.%.4.4.",
"} } } } 4.4.4.&.$.4.4.    h.@XoXoXOXXX.Xl X   @ X             s.XXXXXX$XXXXXj   z | c } t.>.>.>.4.>.",
"} } } 4.4.4.4.8.4.4.4..   %XiXuX6X6XrXeXx   @       o       @ +XrX6XqXrXuXiX~   f 9.| ` 7.} ` 0.4.4.",
"4.4.4.4.4.4.4.8.V V n f 3 -XiX3X<X>X<X;Xx t 3     :     o u o +X<X<X,X7XuXpX4.p N V 4.} ` } } } 4.4.",
"4.} 4.4.>.8.4.4.V   < 8XpXpXtX*X@.{ +.].2XyXr.O O   < .   1XeX|.o.@.o.p.3XuX8XiXh.> 1 y.8.>.} } } 4.",
"4.4.4.4.8.4.8.8.k   @ 8XiXiXuX#X' { O.+.4XyXt.# > O   . o ;XrX|.' { ] ].6XyXiXiX XO 1 y.>.4.} } 4.4.",
"&.8.&.4.8.8.8.8.m . @ 8XuXpXrX-Xo.] `.#.>XeXu.. & & $ .   -XrX|.] @.] '.6XrXyXiXh.O h 8.C 6.7.} 4.4.",
">.4.>.4.8.8.4.4.n   < 8XuXuXrX#X' ] +.p.4XrXa.. $ . . . . 3XrX|.[ O.@.'.5XrXiXyX XO 1 8.6.9.m q.4.4.",
"8.&.8.8.$.V $.V k . 3 -X9XtXuX*Xp.].#.{.:X7X .$ % 7 7 - - &X7X+Xp.].'.}.0XyX9X9Xf.  < 4.k 8.>.$.4.4.",
"$.>.8.V 2 O @ #   @   # o @XuXrX5X5X6X5Xy - - $ W /. .% . 4 + |.qX5X5X5XeXeXc o #     # @   O N 4.4.",
"4.4.6.V <               o 1XuX0XuXrXtXuXu . . $ e i.i.% $ .   %XyX0XyXyXyXyXB X   o     +   O %.>.4.",
"8.&.8.4.N h k k k         t.f.g.a.g.a.f.u o - . r W i $ . # O %. X}.d.g.d.h.t     o o f k k N %.8.4.",
"8.M } 7.4.8.q.q.k @   #         . @ +       . . . $ . . . .   :         O   @       u t.} 4.8.>.4.4.",
"4.} } 4.4.4.4.N k       ;   ;   .   @ @ @ :     . - . - o   @         # O O O +     < c ` } >.q.4.4.",
"7.} 4.} } V k : @       # . o           O   O : .           @           O > O O +     o < ` M 4.4.4.",
"} } } 4.4.6.f                   o           :       .         @     o     O > O O   o     ` 4.` 4.4.",
"7.} ` 4.4.` m k f k f k n #   o . .                   . . . . .         @   s j f k f f n m 4.4.4.4.",
"4.4.&.4.q.9.4.4.6.9.4.4.4.2       . . . . . . & . $ $ $ $ - . .   .         N q.4.q.6.9.q.9.6.4.4.4.",
"4.4.4.>.4.6.4.6.` 4.` >.V 2   @ o o . % 7 8 9 Z 9 Z Z 9 9 9 8 % . @ @ o # # n 4.4.4.&.4.4.4.} 4.4.4.",
"4.4.4.&.~ ` 4.4.q.5.4.9.q.4.C } c | | / ..R.b.x.x.x.x.x.b.b.n...^ V 4.$.9.4.6.4.6.V >.4.} 6.4.9.4.4.",
"4.4.4.4.4.4.4.9.4.4.V >.4.4.4.7.| | / ( R.E.E.v.v.v.v.c.M.M.b.n. .4.6.V 9.4.4.V q.V 9.0.4.q.4.>.4.4.",
"V >.4.4.4.4.4.4.6.5.4.5.6.4.4.4.6.C i e S H G G k.k.F F F D D S i z 9.4.4.4.8.q.m 2 f s f 4.&.V 4.4.",
"4.4.4.4.4.4.>.4.4.4.4.4.>.4.4.B 1.b ;   . $ $ $ % % % $ $ $ . .   < 4.4.6.} &.q.s   o   X V 9.6.4.4.",
"4.4.4.4.4.4.4.4.4.>.4.4.V 4.4.4.1.x ,   X X       X X   X X X     < 4.V 4.` V 4.s   X   + &.6.V 4.4.",
"4.4.4.4.4.4.>.4.4.&.6.4.4.4.9.f . . + O       @     @ @   O       @   # 4.4., .         @ 4.q.4.4.4.",
"4.>.4.4.4.4.4.4.4.V 4.4.q.4.7.n + . .             O   O O O > >       # 5.4.3             m 4.V >.4.",
"4.4.4.4.4.4.4.4.4.4.4.4.9.f f <             @   @ O   O O > O +       # f s @       ; j k 6.4.8.4.4.",
"4.4.4.4.4.4.4.4.4.9.4.` 4.<       X         .     . .   + .   .                     < 4.t.9.B 5.4.4.",
"4.4.4.4.4.4.4.4.V 8.~ 4.q.3   o   X X X       . . . . . . .   @ #         @ o   o # 3 4.4.>.M 4.4.4.",
"4.4.4.4.4.4.4.4.4.7.>.4.6.<     X   X     . . . $ . . . . . .                   s $.V 4.4.9.q.4.4.4.",
"4.4.4.4.4.4.4.4.4.9.~ ` 4.3     + + O   . . . . * . . - . . =       @ @       + h q.8.4.4.5.4.V 4.4.",
"4.4.4.>.4.4.4.4.` 4.4.4.q.j t 1   . + 0 I ! ;.! d % 0 Q Y ! ! 0 .     . 3 f f t n q.M 6.4.V $.q.4.4.",
"4.4.4.4.4.4.>.4.4.V 4.} 4.4.q.j   .   * D.K.Y.~.;.6 K Q.J.K.!.T .     # 4.q.5.9.4.4.4.4.4.4.4.>.4.4.",
"4.4.4.4.4.4.4.4.4.V 4.4.4.>.q.f     . * A.I.U.Y.;.6 J H.I.U.K.E $     @ ~ 6.4.6.4.4.4.4.4.4.4.4.4.4."
};
