/* XPM */
static char *result[] = {
/* columns rows colors chars-per-pixel */
"50 50 102 2 ",
"   c #000101",
".  c #00060B",
"X  c #00080F",
"o  c #000A14",
"O  c #000E1A",
"+  c #00101E",
"@  c #0A161D",
"#  c #001323",
"$  c #0D1D26",
"%  c #00162A",
"&  c #00182E",
"*  c #0E1F29",
"=  c #001B34",
"-  c #001E39",
";  c #0F212C",
":  c #00213D",
">  c #142D3B",
",  c #15303F",
"<  c #001F40",
"1  c #002443",
"2  c #002749",
"3  c #00294D",
"4  c #0A2C48",
"5  c #0F324B",
"6  c #163445",
"7  c #002D55",
"8  c #002F58",
"9  c #053156",
"0  c #0F3755",
"q  c #00315C",
"w  c #08385F",
"e  c #163A51",
"r  c #103D5D",
"t  c #003564",
"y  c #023865",
"u  c #0A3A61",
"i  c #003768",
"p  c #00396B",
"a  c #0A3E69",
"s  c #003D73",
"d  c #1D4257",
"f  c #1F465D",
"g  c #0E426C",
"h  c #1E4760",
"j  c #1E4A66",
"k  c #124468",
"l  c #004177",
"z  c #00427B",
"x  c #08487D",
"c  c #134B74",
"v  c #18517C",
"b  c #224F6A",
"n  c #2A5F7D",
"m  c #004683",
"M  c #004886",
"N  c #004A8B",
"B  c #1E5B85",
"V  c #1F5D89",
"C  c #004E93",
"Z  c #005195",
"A  c #00549C",
"S  c #2B6384",
"D  c #23628D",
"F  c #2F6A8C",
"G  c #306C8E",
"H  c #256692",
"J  c #276A96",
"K  c #296992",
"L  c #276C9A",
"P  c #2A6D99",
"I  c #2C719E",
"U  c #317094",
"Y  c #33749A",
"T  c #0056A3",
"R  c #0159A3",
"E  c #005BAA",
"W  c #005EB2",
"Q  c #1565A4",
"!  c #1A6DAD",
"~  c #0061B6",
"^  c #0063BB",
"/  c #206BA0",
"(  c #2F77A4",
")  c #2171AB",
"_  c #3079A6",
"`  c #347DAA",
"'  c #3982AC",
"]  c #3C87B2",
"[  c #3C89B5",
"{  c #3B8BBA",
"}  c #3E90C0",
"|  c #2B8CD1",
" . c #4195C4",
".. c #4598C6",
"X. c #4297C8",
"o. c #449BCC",
"O. c #489FD0",
"+. c #47A1D4",
"@. c #49A2D5",
"#. c #48A5D9",
"$. c #4BA8DC",
"%. c #4EACE0",
/* pixels */
"          O # O = 1 w D ` Y d o                       .     o # - g { J ` X.f                       ",
"        . X k c P P D  .O.S >                         % . . = : 9 7 D O.o.[ ;                       ",
"    : = # 7 V v  .+.$.' b n $                     . & - - 5 2 w I I P } o.#.S                       ",
"  7 i u D V { K  .G f *                       . . : w B K D 7 7 c o.@.o.U >                         ",
"w m r ` %. .Y > * X     .                   & O & w H _  .{ D B } O.G ;                             ",
"i u ! Q 6 * . @             o           . 3 C - = 7 w c D ` @. .[ S X                               ",
"s z 9 o                   X p         o N m 1 2 B c 3 B { o.[ b o o % & X                           ",
". X                       : :   X o O A s 1 u 7 H O._ / ] b e . o O O + - = % X                     ",
".   1 8 X               & 8   + = % A m u u 0 y ) ..X.H 4 + % O O O O O O # - 2 & % X             . ",
"O 2 # 7 m 7             t X # 1 . i A < c b & N | ....` 4 2 < & O O O o O o o & 2 2 & o & X . .   % ",
"# X 7 # o M t   .     3 7 % = o s N 7 8 = 2 R / K { o.K 2 < 2 % o O o O O O O o # : 3 2 7 7 : X o   ",
"s % O 7 o   m 2 . 2 # 8 s < % m m 2 7 O - W 8 2 < u u 1 < 2 1 - : = # o O o O O O o O & : : = 3 : O ",
"8 s = # o . . i 1 # - # & . 1 W s N + - s i 7 8 7 7 3 7 3 1 1 2 2 2 : - = % O O o o o O + + + % : 2 ",
"7 8 C 1 . X   = N   % O X   8 M 3 - s C 7 7 7 7 7 8 8 7 7 2 1 1 1 1 1 1 2 q : # 7 2 # # # # # ; & & ",
"q 7 7 s 1   X   s m X & . 2 ^ 8 . s W t 8 8 8 7 7 7 8 8 7 2 1 1 1 1 2 3 8 s 8 % 2 y # # # # + l p = ",
"y 8 7 t s % X . # m # X . 8 C o 3 ^ s i y i q 7 8 7 7 8 y 1 1 1 1 1 3 q 7 p p 8 # = % # # # q Z 3 : ",
"p p t 2 m y   X . 2 - . X < p - T T i i p i 7 8 7 8 8 t y 1 1 1 1 1 7 7 7 p p i : + + # # + q Z % q ",
"p p t 2 C C   X X # O X X % % - C T t p p i 7 7 8 7 8 i t 1 1 1 1 1 2 3 y p p p q % + # # # % % + q ",
"p i 8 7 s N X . X O O o O O 1 2 W A i p p y 7 8 7 8 7 i i 1 1 1 1 1 1 7 p p p p i & # # # # + 3 Z - ",
"p p 8 7 7 T <   X O O O o 8 s C ^ A i p p y 7 7 8 7 7 y i 1 1 1 1 1 : q p p p p y % + # # + % M C A ",
"p p 8 7 8 m # . X O O O o 8 N s W T i i p i 7 7 7 7 8 i 8 1 1 1 1 1 1 q p p p p q = # # + q 2 m i s ",
"p p 8 7 t s . . X O O + . t i 1 W A i p p i 7 8 8 8 8 p 3 1 1 1 1 1 3 p p p p p q : # # + : 2 x p p ",
"p p 8 7 t s   . o O O o X t t m E A i p p i 7 7 7 7 8 i 7 1 1 1 1 1 3 p p p p p y % # # + + & m p p ",
"p i 8 7 8 C # . X O o < 1 O 1 s C z i i p i 7 7 7 8 8 i 3 1 1 1 1 1 3 p p p p p q : % # + & l N p p ",
"p p 8 8 8 T 2   X o o < - % 2 s m z i p p 8 7 8 7 7 t p 3 : 2 1 1 1 3 p p p p p q : # # # & z A y p ",
"p p 8 7 8 A 8 X X o O o o O 7 E W s i p p 8 7 7 7 7 q s 7 1 1 1 1 1 2 p p p p p y % + # # % 9 Z s i ",
"p i 8 7 8 M & . . o O O O O 8 W W s i p p 8 7 7 8 7 q p 3 : 1 1 1 1 3 p p p p p y : # # # : l R m y ",
"p t 7 7 t m O . . X O O o % < z ^ s i p s 8 7 7 7 7 q p 7 1 2 1 1 1 1 q p p p p 3 : # + + : l R z i ",
"p t 7 7 7 T =   X o O + = 1 2 C W s p p p 8 7 8 8 8 7 p 3 - 1 1 1 1 2 q p p p p 1 + & q + + 3 A m i ",
"p t 7 7 8 Z = . . o O O O = p W W s p p s 8 7 8 7 7 q p 7 1 2 1 1 1 1 q p p p y 3 & # : + + & N m y ",
"p t 7 7 8 m # X . X O O O - i Z W s i p p 8 7 7 8 7 t p 7 1 1 1 1 1 1 q p p y p 3 % # O : 1 = z m y ",
"p t 7 7 i s . X . X O O O = 1 q W s p p p 8 7 7 7 7 8 s 2 1 1 1 1 1 1 q p p y l 2 + # + : z : t A p ",
"p t 8 3 M C O X . X O o % < s m E s p p y 8 8 7 7 7 q p 3 1 1 1 1 1 1 8 p p p p 2 + # # + i : l A p ",
"p t 7 7 M T & X . X O O o = N W W s i p t 7 7 7 8 7 q p 3 1 1 1 1 2 1 q p p p p : # # # # # & Z m i ",
"i t 7 3 s m < . . X o O o & 2 A ^ s p p t 7 7 8 7 7 t p 3 1 2 1 1 1 1 8 p p p p 2 & # # # + = Z m y ",
"p t 7 7 m t O . . X O O & + & m ~ s p p t 7 7 7 8 7 t p 2 1 1 1 1 1 1 q p p p p 7 % # # + : z C z i ",
"p y 8 3 m s # . . X O o s < % 8 W s p p t 7 8 7 7 7 t q 1 1 1 1 1 2 1 q p p p p 1 + # + % & z A y p ",
"p t 8 2 M t . . . o O o m 2 = m ^ s i p t 7 7 7 7 7 t t 1 1 1 1 1 1 1 8 p p p p 1 ; % # # + y A i p ",
"p t 7 7 M s + . . . O o - # 1 C ^ s i p q 8 7 8 7 7 q q 1 2 1 1 1 1 1 2 i p p q 1 % # # + + y A i p ",
"p 8 8 2 m 8 # X . = + O o - 2 7 A s i p t 7 7 8 7 7 t t : 1 1 1 1 1 1 2 p p p q % + # # # % l A i i ",
"i 8 8 3 m 7   . . s # o + - 7 A E s p p y 8 7 7 8 8 q t 1 1 1 1 1 1 1 2 i p i q # # # # # : M A i p ",
"i 8 8 7 m & . X   < 8 X + % 2 p W s p p t 7 8 7 7 8 p t 1 1 1 1 1 1 1 1 i p p q % # + + # % g E z y ",
"i 8 8 3 m &   X . & 3 o o & < m ~ s p p t 7 7 8 7 8 p t 1 1 1 1 1 1 1 1 p p p q # # + 2 : + 2 Z m y ",
"i 8 8 8 2 o . . . o o O O & 8 E W s y p t 7 7 7 7 8 p q : 1 1 2 2 1 1 : q p p q # # + : y + : Z M y ",
"i 1 7 8 -   X . . o O O # = < z ^ z t 8 q q 9 q 8 7 p t 2 1 2 : 1 : 1 1 q l i q % # # + l ; 3 A i t ",
"7 % = - % X X . X o O O O # = i A A = 2 q : 7 3 1 q i i 3 = 1 : : : 1 : 3 3 y q # + # # : % # M i : ",
"# O X # o X .     X O o . % = 2 t q . 1 = % 3 : : 2 1 & = = - = % : % + % O q q # X # + + +   l = X ",
"o X   #                     o . o     . X + + + + + + + # O + % + # X   . % 1 # o o O   o o   o     ",
"      X                                     X o .   o . . .   .   .         .       .     .         ",
"                                                                                                    "
};
