/* XPM */
static char *_750821c382b4013dbdc84b6da9da3d86nnQs4hYs5fIwsEY[] = {
/* columns rows colors chars-per-pixel */
"50 50 117 2 ",
"   c #020201",
".  c #080606",
"X  c #050903",
"o  c #090906",
"O  c #0A070E",
"+  c #070908",
"@  c #0C0C0A",
"#  c #130E0E",
"$  c #0B1104",
"%  c #0F100B",
"&  c #131C06",
"*  c #12110E",
"=  c #121E0A",
"-  c #151413",
";  c #191715",
":  c #191917",
">  c #191718",
",  c #1D1C1A",
"<  c #201F1D",
"1  c #152207",
"2  c #1A2404",
"3  c #132108",
"4  c #1C250D",
"5  c #202B09",
"6  c #25340C",
"7  c #263C0D",
"8  c #2C3C0D",
"9  c #22211E",
"0  c #253611",
"q  c #2F3C11",
"w  c #211F20",
"e  c #252422",
"r  c #282724",
"t  c #272823",
"y  c #2B2A26",
"u  c #2A2428",
"i  c #2D2C2A",
"p  c #312E2C",
"a  c #33312D",
"s  c #312F30",
"d  c #353433",
"f  c #393533",
"g  c #3B3934",
"h  c #3C3B3B",
"j  c #433E3A",
"k  c #25430D",
"l  c #2D430C",
"z  c #375E0F",
"x  c #284010",
"c  c #3C5B15",
"v  c #3B6216",
"b  c #4B6617",
"n  c #446A15",
"m  c #4B6618",
"M  c #4D6F1B",
"N  c #457017",
"B  c #507E1B",
"V  c #42413E",
"C  c #444443",
"Z  c #494644",
"A  c #4B4B4B",
"S  c #545454",
"D  c #5D5D5C",
"F  c #626262",
"G  c #6C6C6D",
"H  c #706E6F",
"J  c #716F70",
"K  c #767575",
"L  c #787677",
"P  c #7B7A7A",
"I  c #63A424",
"U  c #69A725",
"Y  c #7AA227",
"T  c #7FAD26",
"R  c #6FB12B",
"E  c #79BF29",
"W  c #7FCA2E",
"Q  c #81AC29",
"!  c #84BB2A",
"~  c #83C12E",
"^  c #8AC32B",
"/  c #83CB2E",
"(  c #8BCF2A",
")  c #9BC82D",
"_  c #9FD42C",
"`  c #8EDC30",
"'  c #98DB33",
"]  c #A8D92F",
"[  c #A6DB33",
"{  c #9BE432",
"}  c #A2E734",
"|  c #A4EB34",
" . c #B8F037",
".. c #828283",
"X. c #898788",
"o. c #8E8C8D",
"O. c #908E8F",
"+. c #918F90",
"@. c #949394",
"#. c #989697",
"$. c #9C9B9B",
"%. c #A19FA2",
"&. c #A4A2A3",
"*. c #A9A7A8",
"=. c #ABAAAB",
"-. c #B0ADAE",
";. c #B7B5B6",
":. c #B8B6B7",
">. c #B7B5B8",
",. c #B9B7B8",
"<. c #BCBBBB",
"1. c #C0BEBF",
"2. c #BFBEC1",
"3. c #C1BFC0",
"4. c #C3C2C3",
"5. c #CBC9CA",
"6. c #D9D7D8",
/* pixels */
";.;.:.;.;.;.;.;.;.;.;.>.;.;.;.;.;.;.;.;.;.;.;.;.;.;.;.;.,.;.;.,.;.;.;.;.,.;.;.;.;.;.;.;.;.,.;.;.;.:.",
";.;.;.;.;.:.;.:.;.>.;.>.;.;.;.;.;.;.;.;.;.<.;.;.;.;.;.;.;.;.;.;.;.;.;.>.;.;.;.;.;.;.;.;.;.;.;.;.;.;.",
";.:.;.;.;.;.,.;.;.;.;.;.;.;.;.;.;.;.;.>.;.;.;.;.,.;.;.;.;.;.;.;.;.;.;.;.;.;.;.;.>.;.;.;.;.:.;.;.:.;.",
";.;.:.;.;.;.;.,.;.;.>.<.2.4.;.;.;.;.;.;.;.;.;.;.;.;.;.,.;.;.,.;.;.;.;.<.4.4.;.;.;.;.;.;.;.:.;.;.;.;.",
";.;.;.;.:.;.,.;.;.;.<.P f h $.<.;.;.;.;.;.;.;.;.;.;.;.;.;.;.;.;.;.;.<...d h $.1.;.;.;.,.;.;.>.;.;.;.",
":.;.:.;.;.;.;.;.<.=.t + X   o.3.;.;.;.;.;.;.;.;.;.;.;.;.,.;.;.,.;.;.4.D     ; &.<.;.;.;.;.,.;.;.;.,.",
";.;.,.;.;.;.;.,.>.s   , >   O.<.;.;.;.;.;.;.;.;.;.;.;.;.;.;.;.;.;.;.4.F   >   w =.,.;.;.;.;.;.;.;.:.",
";.:.;.,.;.;.,.,.d   e e -   +.1.;.;.;.;.;.4.4.;.;.,.;.;.;.;.;.;.;.;.4.F   , ,   i <.;.;.;.;.;.;.;.;.",
",.;.;.;.;.;.;.C   e e r :   O.<.;.;.;.4.,.J L ;.:.;.1.4.4.<.:.:.;.;.4.F   , e + X @.<.;.;.;.;.;.;.;.",
";.;.,.;.;.4.#.  , e e r -   O.1.;.,.<.P u   - ;.;.<.S h d G 4.;.;.-.4.F   e e , . - $.<.;.:.;.;.,.;.",
";.;.;.;.>.&.i : r e t y :   @.<.>.=.i + + > w -.;.<.e @ @   P 3.;.;.4.F   t e 9 w   e <.;.;.;.;.;.;.",
";.;.;.;.5.F   y 9 t y a :   o.2.;.i   , i , , -.;.;.i e i -   ..<.;.4.F   r e e e -   ..4.;.;.;.,.;.",
":.;.;.<.#.> : e t i a a 9   X.5.C   9 r f < < 1.4.5.a 9 r 9 * @ &.<.4.F   y e y e w + @ o.<.;.;.;.;.",
";.;.;.<.e   e e t a a f - : =.&.@ : e e p < - G G G , r p r r X D <.<.F   i i a s : :   : <.;.;.;.;.",
";.;.;.<.e X u t i a p a   D <.-   w *   . . X . o X   , : * 9 :   K 6.F   a i i i , * : . H 2.;.:.;.",
";.;.;.<.u   t t p a a y   h d   , , : : > - ; e e e - ; * o # *   d $.C   a s i i , - : +   #.<.;.;.",
";.;.;.<.e   t y a a a y - + % e , w w w 9 9 < 9 9 9 e e e e e e 9 *     + - r a i 9 9 , :   o.4.;.;.",
">.;.;.<.e   r y a a a , , w e w , w , , , 9 9 * + 9 e : , 9 9 , 9 i e - *   , a a e e , @   o.<.;.;.",
";.>.;.<.t   t r y y , , 9 9 , , , , , , < w * X + + 9 9 9 9 9 9 e e e 9 9 , 9 e i y 9 9 -   O.<.;.;.",
";.;.;.<.e   i > @ t : < < > , , , , , w < 9 - - : % : e 9 , 9 9 9 e 9 , , 9 < 9 t i e , #   o.1.;.;.",
";.;.;.<.u   e + @ < , , , > , , , , < < 9 < , : : 9 9 9 9 9 9 , 9 9 e > : , < < , y t , -   o.1.;.;.",
">.;.;.<.e   >   - , , , > , , , , w w 9 < e , , e , 9 e , e 9 9 9 9 e , : : , 9 : o 9 9 e   o.1.-.;.",
";.;.;.<.y X @ o : , : , , , , e w w w 9 < 9 * + o - , , , 9 9 , 9 9 9 9 : > : , 9 + + > < + #.<.;.;.",
";.;.;.<.,   + - < : : , w , e r w w w < 9 9 + : @ - e 9 9 e , e 9 9 e 9 , , , > : -   : o S 4.;.;.;.",
";.;.<.>.P     : , , 9 9 9 9 e e r < < < < < < e e e 9 < 9 9 < 9 9 r 9 : , < , : > > X -   S 4.;.;.;.",
";.;.$.2.5.D   > > e t y 9 9 < e r r e < e < < e < < , 9 9 < < e y t < < < r 9 : : > -   @ *.;.;.;.;.",
";.:.i Z -.G   : 9 p y p g V f e 9 r r < < < 9 +   ; , < 9 9 r e 9 9 9 y p a a < , : :   S 4.<.,.;.;.",
";.<.u   9 -   > t y @   @ @ g g < r y r : < e : : , < < e e r y y a Z V f j g < 9 , - + %.=.$.*.:.;.",
";.<.u - e X @ e r *   $ 2 X X g i < t r , < e 9 9 9 9 9 < r p p V g p 9 $ ; 9 y , , + D P o . A 4.;.",
";.<.e o i :   t t   8 Q ~ =     j a 9 y 9 e 9 9 9 9 9 r e r a V e     8 q     , t , * > @ 9 : A 3.;.",
";.<.C X 9 y @ e @ 1 Q | c       + V r r 9 < 9 9 9 9 e 9 t y V e     $ U ! b &   p t :   9 p + C 4.;.",
";.<.&.. * : X e   b | W =         @ p r r : 9 9 9 9 p 9 t f 9     .   k `  .Y & : y - : a 9 + P <.;.",
";.;.<.C   + - r + m } W =           d r e 9 , < < r r e p y           X R } [ 5   r . # a - u <.;.;.",
";.;.2.X.o @ , t . l ' W =           r f e t 9 e e y e r d X o           U | ] 8   t o o ,   X.2.;.;.",
";.;.;.4.L X : r : X ^ | x         l 0 p y y r e i y e a ; n 1           I { ) & > i + o   g ;.;.;.;.",
";.;.;.<.h   @ r y . 6 ^ E 1       z 0 p r p r y a y 9 e % ( v         $ / ! 6 + r e     ..,.,.;.;.;.",
";.;.;.,.e : o 9 i ,   & B n         u p < r i r y 9 9 9 - 7 N X       M _ b   , e +     O.2.;.;.;.,.",
";.;.;.<.h ,   @ i a 9 ;   o @   , p d r e 9 e y 9 9 9 < 9 u # $     . 2 5   , r o       #.<.;.;.;.;.",
";.;.;.:.;.>.A   X < a a i t p a a p y ; # , 9 9 9 e ; . * a i f , o * o s f r @       K <.;.;.;.;.;.",
";.;.;.;.;.;.4.A     @ * 9 i r y y p y < # X , < < + . < i p p i p f f a u r @       G 4.;.;.;.;.:.,.",
";.;.;.;.;.;.:.,.h         .     + , y p d r o , . - p p a i u r e , 9 , : @ +     D 4.;.;.;.;.;.;.;.",
",.;.:.;.;.;.;.,.;.d   . , - - * #   o , i p ; < < i i , % * - #         * , :   S 2.;.;.;.;.;.:.;.:.",
";.;.,.;.,.;.;.;.:.;.P , ;   + o @ < : + # , e e 9 < @ X , , , < , 9 - - 9 - i +.,.:.;.;.;.;.;.;.;.;.",
";.;.;.;.;.;.;.;.;.:.<.;.%.C C Z h + - % # % + @ @ o * , @ @ @ + + @ o     K :.<.;.;.;.;.<.;.:.:.:.;.",
";.;.;.;.;.;.;.,.:.;.;.,.,.3.4.4.;.P ,   @ 9 # - - # + o D ..L L P L P P ..1.:.;.;.;.;.;.;.;.;.;.;.;.",
",.;.;.,.,.;.;.;.;.;.;.;.;.;.-.;.;.4.=.&.@.u e e r e d %.<.4.3.4.4.4.3.3.<.;.:.;.;.;.;.<.;.;.;.;.:.;.",
";.;.;.;.;.;.:.;.;.;.;.;.:.:.,.;.;.;.<.<.>.>.<.,.<.:.<.<.;.-.;.;.;.-.;.;.;.:.:.:.;.;.;.;.;.;.;.;.;.;.",
";.,.;.;.:.;.;.;.;.:.:.;.;.;.;.>.;.;.;.;.;.;.;.;.;.;.;.;.;.;.;.,.;.;.;.;.;.;.;.:.:.;.;.;.,.;.:.:.;.,.",
";.:.;.;.;.,.;.;.;.;.,.;.;.,.;.>.;.:.;.:.;.:.;.;.:.;.;.;.;.:.;.;.;.;.;.;.;.;.;.;.;.:.;.,.;.;.;.;.:.;.",
";.;.,.;.;.;.;.;.;.:.;.;.;.;.;.;.;.;.;.:.;.;.;.:.;.;.:.;.;.;.:.;.;.;.;.;.;.;.;.;.;.:.;.;.;.;.:.;.;.;."
};
