/* XPM */
static char *d48616ddb1e94de7fe14eadeba468eb9SjYTQTTfmAmXyYvg[] = {
/* columns rows colors chars-per-pixel */
"50 50 251 2 ",
"   c #000000",
".  c #0A0101",
"X  c #040905",
"o  c #0A0805",
"O  c #090709",
"+  c #130101",
"@  c #1B0101",
"#  c #150A08",
"$  c #16120E",
"%  c #191211",
"&  c #240101",
"*  c #2B0101",
"=  c #240F0E",
"-  c #340102",
";  c #3D0000",
":  c #380A0A",
">  c #281514",
",  c #341514",
"<  c #430000",
"1  c #490000",
"2  c #420A0B",
"3  c #530000",
"4  c #5B0000",
"5  c #580F11",
"6  c #491617",
"7  c #591517",
"8  c #640202",
"9  c #6C090B",
"0  c #760506",
"q  c #6A1617",
"w  c #761619",
"e  c #760E15",
"r  c #5A2223",
"t  c #870409",
"y  c #930002",
"u  c #990609",
"i  c #8B0B11",
"p  c #830E14",
"a  c #970B12",
"s  c #8C1519",
"d  c #941519",
"f  c #A50101",
"g  c #AD0101",
"h  c #A4080A",
"j  c #B40100",
"k  c #BB0101",
"l  c #B80707",
"z  c #A40A12",
"x  c #B80B10",
"c  c #B71316",
"v  c #AF121B",
"b  c #9A1D23",
"n  c #881D25",
"m  c #BE1F23",
"M  c #842028",
"N  c #C50202",
"B  c #CB0100",
"V  c #CB0902",
"C  c #C7070A",
"Z  c #D40101",
"A  c #DC0201",
"S  c #DB0B02",
"D  c #D50805",
"F  c #D81600",
"G  c #C80C13",
"H  c #D10E16",
"J  c #D3170F",
"K  c #E40200",
"L  c #EA0300",
"P  c #E40A01",
"I  c #ED0C01",
"U  c #E5080A",
"Y  c #F20B01",
"T  c #F40803",
"R  c #E51300",
"E  c #EC1301",
"W  c #E31D00",
"Q  c #EA1B00",
"!  c #ED130A",
"~  c #F21401",
"^  c #F91200",
"/  c #F41B00",
"(  c #FC1C01",
")  c #FB1709",
"_  c #F81818",
"`  c #E91410",
"'  c #CD2C00",
"]  c #D92C00",
"[  c #D43300",
"{  c #D83A00",
"}  c #EB2400",
"|  c #E32C00",
" . c #E12200",
".. c #FE250A",
"X. c #F82703",
"o. c #E63600",
"O. c #F43500",
"+. c #FF3311",
"@. c #C62022",
"#. c #FF352A",
"$. c #FF322C",
"%. c #CD4300",
"&. c #DA4000",
"*. c #E54A00",
"=. c #F74E03",
"-. c #FF4A17",
";. c #FD5A1B",
":. c #FF5B0C",
">. c #FF6B02",
",. c #FE6B0B",
"<. c #FB6901",
"1. c #E97E00",
"2. c #FE7402",
"3. c #FE7F01",
"4. c #FB7907",
"5. c #FF631A",
"6. c #FF6C1B",
"7. c #FF6814",
"8. c #FF7412",
"9. c #FF7B14",
"0. c #FB7818",
"q. c #FF4A25",
"w. c #FF5922",
"e. c #FF5327",
"r. c #FF6924",
"t. c #FF6F29",
"y. c #EA8602",
"u. c #F58500",
"i. c #FE8301",
"p. c #F58B00",
"a. c #FD8C01",
"s. c #FF850C",
"d. c #FF8C0D",
"f. c #E49402",
"g. c #EC9300",
"h. c #E59D00",
"j. c #EB9D00",
"k. c #F39500",
"l. c #FD9301",
"z. c #F49B00",
"x. c #FE9A02",
"c. c #FF9909",
"v. c #FF920C",
"b. c #FF8313",
"n. c #FF8B12",
"m. c #FF881A",
"M. c #FF9313",
"N. c #FF941B",
"B. c #E7A400",
"V. c #FDA302",
"C. c #FBAC01",
"Z. c #FFAC0B",
"A. c #F5A807",
"S. c #FDB301",
"D. c #F4BC00",
"F. c #FFBB03",
"G. c #F6B403",
"H. c #FFA816",
"J. c #FFBC13",
"K. c #FFBA19",
"L. c #EEB400",
"P. c #FF832B",
"I. c #FFA727",
"U. c #FFAA30",
"Y. c #E8C700",
"T. c #F6C501",
"R. c #FDC301",
"E. c #F5CC00",
"W. c #FDCC02",
"Q. c #FFC40B",
"!. c #FFCB0A",
"~. c #F5CA09",
"^. c #EED400",
"/. c #EEDE00",
"(. c #F3D300",
"). c #FDD301",
"_. c #F2DA00",
"`. c #FCDD02",
"'. c #FCD20A",
"]. c #FBDC0A",
"[. c #FFC310",
"{. c #FFCC12",
"}. c #FFC81B",
"|. c #FDD917",
" X c #EEE304",
".X c #F4E400",
"XX c #FBE302",
"oX c #FEEC02",
"OX c #FEE30A",
"+X c #FBEB0A",
"@X c #F4EA07",
"#X c #FEF30C",
"$X c #FFF50A",
"%X c #FFE412",
"&X c #FAEA16",
"*X c #FCF414",
"=X c #FFFC15",
"-X c #FFF31B",
";X c #FFFC1B",
":X c #F5F11B",
">X c #FFD920",
",X c #FAEB26",
"<X c #FDF422",
"1X c #FFFD23",
"2X c #FFF62D",
"3X c #FFFE2B",
"4X c #F5F929",
"5X c #FEFD34",
"6X c #FEFD3C",
"7X c #FAF436",
"8X c #F1EF33",
"9X c #F4EF43",
"0X c #FEFD45",
"qX c #F8F749",
"wX c #FEFE53",
"eX c #FDFE5B",
"rX c #F4F559",
"tX c #F1EF55",
"yX c #FCFC63",
"uX c #FEFE6B",
"iX c #F7FC68",
"pX c #FDFD74",
"aX c #F2F37D",
"sX c #FCFD7B",
"dX c #F8F77A",
"fX c #EFEE74",
"gX c #FFFF85",
"hX c #F8FA8B",
"jX c #FDFE93",
"kX c #FFFE9B",
"lX c #F5F797",
"zX c #FEFEA5",
"xX c #FEFFAB",
"cX c #F4F7A9",
"vX c #FFFEB2",
"bX c #FFFFBA",
"nX c #FAF7B2",
"mX c #F3F0AE",
"MX c #FFFFC5",
"NX c #FEFFCD",
"BX c #F6F7C6",
"VX c #FEFFD4",
"CX c #FFFFDC",
"ZX c #F7FADA",
"AX c #FEFFE4",
"SX c #FEFEEC",
"DX c #F2FAE6",
"FX c #FEFEF3",
"GX c #F5FFFD",
"HX c #FFFFFD",
"JX c #F8F8F5",
/* pixels */
"                                                                                                    ",
"                                                                                                    ",
"                                                                                                    ",
"                                                                                                    ",
"                                                                                                    ",
"                                                                                                    ",
"                                                                                                    ",
"                                                                                                    ",
"                                                                                                    ",
"                                                                                                    ",
"                                                                                                    ",
"                                                                                                    ",
"                                                                                                    ",
"                                                                                                    ",
"                                                                                                    ",
"                                                                                                    ",
"    O     O       o         O . . .     X   o .   . . .                           . o .   . .       ",
"X             O o             . . O             . . . . .   X       o   X       X   . . .           ",
"  .   O O   .         . . .   X       O X       o       X     X     X             .         X       ",
". .       O . .     o   . o     O           $ o   . o   X   X X o         X     .   .       X   X   ",
"+ . .     %     .             o .   + # + . = @ + & > + .   X                         o o   X       ",
". + @ @ # > . . . . . # #     + + @ + , + & * @ & * & & @ .     .   # o           % .   .   $     O ",
"+ & * - * & & + + = + % $   @ @ , & & & & & 6 - 6 ; & : * @ . + + @ # + o   . . + , @ + + @ > + .   ",
"* 6 - < ; - 5 - & 6 & @ @ & 6 - q - 7 ; q ; w < e q < < ; r : @ , * @ @ @ @ @ @ & * * 6 2 & * * & & ",
"q q 9 4 t 0 b 0 ; * * * 5 3 9 8 i 8 p s i i i t u t t 0 s n n ; < - 7 - ; - q ; 9 1 e e s 1 1 9 3 9 ",
"i d a y f G x h t 4 9 4 i a u h z v u c u c @.x g x x z a a a b s s e p 3 0 s d a t a y a u y u y u ",
"u g l N B U Z C f y a y y C C C j x x l l l J j C G l f c c z h @.h v h h f c f g g G H C H j j f u ",
"k B B A L L ! A N H l H B Z U A D N V j F k V V V V V k k l j g k j N k N V J B D Z A _ Z Z Z D j j ",
"S A K K Y ( ~ I I A Z _ ` K T L Y P N P R S Q R E Z B E B S N S Z U _ U Z Z ! K A K T $._ I I A K L ",
"P A I ( E e.S E T K _ L K I ( T L ~ Z E ..Q q.P / A ( P E I A Z L ) #.~ ~ A ) U L Y Y ..L K ~ P Y T ",
"I / Q -.O.t.} Q X.Y #.L Y ( -.} E E ..R +.O.e.} D X.e.P / ! E E L ^ ^ I E ......E P ( -.R Q S } S Q ",
"Q -.o.6.6.6.5.] -.R ../ q.X.5.] -.X.-. .| r.t.5.| ;.}  .F e. .w.Q E e.} -.F O.F w.F W w.O.w.] ;.| -.",
"F o.7.8.m.9.9.8.' ] =.o.6.[ 9.8.,.*.,.>.%.4.I.b.,.{ ;.{ :.0.s.2.[ 7.r.] <.*.=.[ 6.' >.m.7.{ 8.9.:.o.",
"{ >.U.m.1.u.s.9.9.8.*.,.,.n.M.d.s.2.s.4.u.l.V.x.s.0.P.0.b.M.Z.l.i.b.0.8.i.i.<.%.4.n.M.d.m.9.i.i.m.8.",
">.b.4.u.l.p.y.U.d.N.<.s.i.M.l.p.x.i.N.N.H.x.J.C.x.a.N.n.a.p.Z.p.a.3.N.N.3.3.s.i.3.H.i.i.d.I.i.i.i.3.",
"i.a.a.Z.V.J.z.y.u.l.c.l.c.l.V.k.c.u.1.y.V.G.'.F.S.k.V.y.V.z.K.k.H.p.c.u.H.c.p.p.p.l.p.K.y.k.x.H.u.i.",
"p.Z.g.g.C.Q.f.S.V.V.x.x.V.J.Q.F.z.F.y.f.F.).R.W.R.A.V.j.C.F.}.J.z.k.Z.x.K.Z.g.g.J.f.g.J.z.V.V.k.x.p.",
"k.f.j.{.R.'.L.G.R.R.C.C.S.!.Q.F.F.[.A.}.W.OX).W.W.F.L.G.B.W.D.{.S.h.h.F.J.|.F.h.B.F.Q.Q.S.F.L.h.Z.z.",
"[.>XW.D.T.<X).T.].'.|.W.).).W.T.!.L.T.|.Y.%XoX(.).%XQ.!.T.).T.'.'.'.!.|.D.T.R.{.G.'.W.W.|.,XR.D.{.[.",
"W.R.W.`.(.%X`.(.XX`.).'.).OX(.'.,XT.].].%X,X#X=XY.|.~.~.*X(.+X(.(.].Y.T.*X).E.%XW.`.E.OXT.'.E.-XW.~.",
").(.oX_.^.-X.XXX_.*X^.'.XX_.-X(.~.^.].@X2X2X2X,X,X'.].(.(._.+X.XoX`.`._.#XoXXXY.^.(.+XoXXX`._.$XXXOX",
"+X_.#X/.-X-X+X@X$X*X-X-X+X#X-X<X].^.@X:X5X0XwXwX7X2X+X@X|.<X#X$X.X$X.X#X#X=X@X/..X.X=X$X=XoXoX#XXX.X",
"1X+X=X#X5X6X:X*X=X1X5X5X;X-X2X5X3X<X2X7X0XeXgXdX9X5X@X@X,X5X:X;X<X1X;X1X3X5X;X;X@X X<X-X=X@X@X:X4X;X",
"2X5X3X6X9XyX9X0X7XwXqXwX6X8XeXqX0X7XqXwXpXjXvXxXyX0X6X7XwXwXwXqXqX6X4X8XqX7X5X4X4X5XqXwX;X1X8X6X5X4X",
"tXeXwXyXfXjXdXsXiXgXaXdXiXyXgXdXhXdXyXsXcXNXVXbXdXtXuXrXrXyXgXhXhXpXuXeXgXgXuXyXrXuXdXgXwXeXrXpX9XqX",
"dXsXpXaXnXMXbXlXvXxXMXmXlXzXvXbXmXlXlXxXZXFXFXAXbXkXkXkXaXzXbXMXcXcXhXzXvXbXlXlXhXlXzXzXjXfXjXkXjXjX",
"xXxXzXcXAXJXAXZXCXAXFXDXBXNXCXSXSXSXCXAXDXGXGXJXSXCXnXnXmXAXAXSXCXAXZXZXAXCXVXVXNXNXCXNXVXmXVXVXNXVX",
"CXVXNXCXHXHXHXFXFXGXGXHXSXZXHXHXHXHXGXHXGXGXGXGXJXFXAXBXSXFXHXHXHXHXFXJXHXJXFXFXFXSXSXSXSXZXSXSXFXFX",
"FXFXFXFXHXHXHXHXHXHXHXHXHXFXHXHXHXHXHXHXHXHXHXHXHXHXFXFXHXHXHXHXHXHXHXHXHXHXHXHXHXHXHXFXHXFXHXHXHXHX",
"HXHXHXHXHXHXHXHXHXHXHXHXHXHXHXHXHXHXHXHXHXHXHXHXHXHXHXHXHXHXHXHXHXHXHXHXHXHXHXHXHXHXHXHXHXHXHXHXHXHX"
};
