/* XPM */
static char *Zm9yZXN0KyUyODElMjku[] = {
/* columns rows colors chars-per-pixel */
"50 50 175 2 ",
"   c #2A2925",
".  c #2E2D2C",
"X  c #312E2D",
"o  c #2F302B",
"O  c #32312E",
"+  c #38332F",
"@  c #312F30",
"#  c #353432",
"$  c #393634",
"%  c #3A3936",
"&  c #363638",
"*  c #393738",
"=  c #3C3B3A",
"-  c #413C37",
";  c #413E3B",
":  c #44423E",
">  c #48443F",
",  c #413F40",
"<  c #464441",
"1  c #4A4642",
"2  c #4D4A45",
"3  c #4E4C49",
"4  c #504B47",
"5  c #524D49",
"6  c #55514D",
"7  c #5A554E",
"8  c #555451",
"9  c #5A5551",
"0  c #5C5953",
"q  c #5E5A59",
"w  c #615D55",
"e  c #625E5A",
"r  c #65625D",
"t  c #6A645E",
"y  c #71675E",
"u  c #71685F",
"i  c #666461",
"p  c #6B6661",
"a  c #6E6B64",
"s  c #6F6E69",
"d  c #706762",
"f  c #746C65",
"g  c #796E66",
"h  c #736E6A",
"j  c #786F6A",
"k  c #737167",
"l  c #797067",
"z  c #75726C",
"x  c #7C746C",
"c  c #7D786E",
"v  c #7C7672",
"b  c #7E7972",
"n  c #7F7E7A",
"m  c #80776E",
"M  c #81796F",
"N  c #817771",
"B  c #837B74",
"V  c #887F76",
"C  c #847E79",
"Z  c #887F78",
"A  c #888177",
"S  c #85817B",
"D  c #8B847C",
"F  c #8F887E",
"G  c #90877E",
"H  c #91887F",
"J  c #8D8681",
"K  c #8E8983",
"L  c #908781",
"P  c #918A82",
"I  c #938A83",
"U  c #908982",
"Y  c #928B85",
"T  c #908B87",
"R  c #938C84",
"E  c #968F87",
"W  c #938C84",
"Q  c #988F86",
"!  c #938E8A",
"~  c #958E8A",
"^  c #988F88",
"/  c #988F88",
"(  c #979187",
")  c #999087",
"_  c #979088",
"`  c #96918B",
"'  c #96918A",
"]  c #989189",
"[  c #9B928B",
"{  c #9C938A",
"}  c #9A958F",
"|  c #9A968D",
" . c #9D958D",
".. c #9D968E",
"X. c #9E958E",
"o. c #9B948C",
"O. c #9F988E",
"+. c #9D988E",
"@. c #9D9791",
"#. c #9D9990",
"$. c #9F9890",
"%. c #9C9994",
"&. c #9E9A92",
"*. c #A0978E",
"=. c #A1988F",
"-. c #A1998F",
";. c #A19891",
":. c #A19C96",
">. c #A79E97",
",. c #A39C93",
"<. c #A89E95",
"1. c #A59E98",
"2. c #A49F9B",
"3. c #A49E98",
"4. c #A89F98",
"5. c #A6A096",
"6. c #A9A197",
"7. c #A5A29A",
"8. c #A5A399",
"9. c #A9A099",
"0. c #A8A19B",
"q. c #AAA19A",
"w. c #A9A29A",
"e. c #ABA29B",
"r. c #A9A69F",
"t. c #AFA69D",
"y. c #ADA69E",
"u. c #ABA49B",
"i. c #AEA89E",
"p. c #B0A79E",
"a. c #B1A89F",
"s. c #AFA8A0",
"d. c #ADAAA3",
"f. c #AEA9A1",
"g. c #B1A8A1",
"h. c #B4ABA2",
"j. c #B5AEA6",
"k. c #B3ACA3",
"l. c #B9AFA6",
"z. c #B3AEA8",
"x. c #B6B1A6",
"c. c #B9B0A6",
"v. c #B5B1A8",
"b. c #B7B1A9",
"n. c #B9B0A9",
"m. c #BDB4AB",
"M. c #BCB5AF",
"N. c #BBB4AB",
"B. c #BEB9AF",
"V. c #BCB6B0",
"C. c #BEBAB1",
"Z. c #C0B7AD",
"A. c #C2B9AE",
"S. c #C0B7B0",
"D. c #C4BCB2",
"F. c #C9BFB5",
"G. c #C1BEB9",
"H. c #C8BFB8",
"J. c #C6C1B6",
"K. c #C9C1B6",
"L. c #C7C2B9",
"P. c #CBC5BB",
"I. c #CEC9BE",
"U. c #D0C7BE",
"Y. c #D0C9BF",
"T. c #CFC8C2",
"R. c #CFCBC1",
"E. c #D2CDC2",
"W. c #D3CEC8",
"Q. c #D5D1C6",
"!. c #D8D2C7",
"~. c #D7D3C8",
"^. c #D9D5CA",
"/. c #DCD9CD",
"(. c #E1DBD3",
/* pixels */
"T.] A N U e.B C *.e.D x x Z C J 5 w j e v * 0 B , $ $ : 9 ; ; 8 + % % & : 5 z F ~ p 6 e r B F S a 2 ",
"K g x ] e.N m Z U R x v N N B f 4 5 v h v e # e 4 * # 2 s 1 $ 2 = $ = & 9 Z C J I J S e X 5 0 7 B B ",
"0.U O.n.Z ^ ;.Z L v ~ e 1 6 , 9 h h 5 * 4 C 0 < e $ * 5 B z 1 e = $ & # a J Y J 1.:.; > O ; X - l l ",
"y.K _ ^ ;.I D 4.1.T r ; # * * $ 3 2 ; 2 2 e 0 r 1 ; X 5 e J v @.O = % O i l L @.V.v + h w = = = ; : ",
"X.] U l.H.;.@.g.~ p $ $ * * * = , , < : 2 i z 2 O $ = 1 v ! ;.8.. = % # a D z f.1.* a B J e # . 5 : ",
"R ^ Q m.h.*./ >.v 1 5 = 2 2 @ * * i = 2 r %.8.z # $ $ # h S g } & & % + i D b r e S c t 9 v C 9 ; w ",
"X.j.L p.;./ 4.4.B e , 3 v 0 1 ; O i 8 J r.a j.z . ; % 1 J t s.e.o % = = p J K % w r 7 G X.B C Y l j ",
"n.y.L *./ g.>.f 5 1 8 5 2 s e j 5 3 4 C d.w T.b ; $ . r a Y (.@.# , ; & v @.: s C D Z -.;.Q Q v ! B ",
"m.-.U Y U o.a b f m.A.N B v 1 J r q 6 D @.f e.Z.e % % 9 7 K.E.X.& : = # b q 9 e.*.a.m G 4.,.U P.R m ",
"A.j.L :.:.*.j.E.U.P.l.x J j.e 7 7 c 3 0 :./ H E.6 o % # R Y.K.6.% ; & $ i ; %.( p.l.m V j.,.U k.;.D ",
"F.V.L Y Y Z.P.A.A.F.l.x Z j.;./ k K z : m.P.Z y.3 % # 8 J.F.K.e.# % % = ; 2 %.' m.h.x ;.D.,.G m l.D ",
"h.h.Y Y <.F.Z.D.K.F.l.N B p.n.F.C.C.i 5 m.K.;.D 2 & o r E.c.K.X.O # = $ o K v.` F.l.m <.l.X.{ Q M m ",
"p.l.K ] D.A.P.A.D.D.m.M m p.=.Z.J./.S $ P.F.D.B = * X J U.A.E.,.O % = # ; L.P.} W.Q x h.*.*.*.D M m ",
"b.S.D :.E.D.F.E.!.P.j.b N G <.F.A.P.I.> ( E.Y.p X * ; s.F.F.W.e.o = & # z ^.D.#.h.V G A H ( x H *.l ",
"P.D.J d.P.P.J.I.P.!.D.N x I H.F.A.A.!.+.$ k.E.2 % # e X.m.F.U.<.# & = o %./.J.J B t.{ G ( D M x M B ",
"m.D.D C.~.E.E.P.K.Y.D.b B m.F.D.F.A.J.J.9 < J.4 = % i l.Q D.U.;.o = = o &./.a.U h.Y.-.l A A D ) V V ",
"_ J.F C.Q.I.R.E.E.E.H.x V F.S.Z.A.F.A.~.| O C.8 = O z E.c.D t.<.O % % X #./.;.] !.Q.E.B M a.Y.Q.-.l ",
"c ' T C.Q.E.P.E.E.E.V.N D T.Z.F.D.F.P.E.C.8 ' : & = h.Y.E.{ a.-.O % = X #./.;.u.R.i.H c y i.!.!.i.k ",
"D.5.D V.I.P.!.Y.F.D.*.d Z p.L ;.Z.Z.F.W.b.8 n o = + j.K.A.Z.U.<.O # = X &.(.5.b.Q.| M ( +.D K.^.8.g ",
"d.J.F 5.Q.Q.P.D.c.U.*.N N d V X.*.D.A.U.C.2 8 % # : c.K.K.D.P.*.+ * = X &./.,.e.J.u.P.I.K.l t.^.=.x ",
"B.I.| ' P.Q.A.{ e.U.I x N ~ / ;.Z.A.K.J.Y.x   ; X a U.Z.F.F.U.<.o = , # ,./.,.~ Q.I.~.Y.K.A G K.A l ",
"R.Q.:.D A.E.K.m.e.F.;.f F D.D.<.=.D.A.A.Q.x.% = X f E.U.K.U.Y.=.o ; , # :./.5.o.I.E.R.J.Q.5.c P.V m ",
"R.R.r.K S.D.A.U.D.,.V x A D.J.K.Z.D.A.K.J.I.5 + X h !.D.K.F.U.*.% ; % O &.Q.( ] E.R.E.J.E.<.B <.x G ",
"I.^.C.D ,.K.P.E.E.E.Q j A P.K.K.D.U.P.U.J.I.S O . h E.J.E.P.E.<.% ; % O 5.I.D } I.Q.P.P.!.6.g z M l.",
"R.R.I.} J M.~.P.I.!.#.f ,.E.J.R.J.I.J.I.R.Q.! o # s Q.I.R.I.E._ * % O 8 Q.J.F _ P.E.K.P.Y.P.B l 6.!.",
"T.Q.R.1.F G.~.I.Y.~.@.l a.E.P.Q.A.J.I.Q.P./.K . # a ^.R.T.E.E.9 O % # 0 L.j.H r.E.K.E.K.!.U.M l 5.^.",
"R.I.R.:.F z.Q.I.I.~.X.f h.E.P.I.A.J.I.I.Q.P.7 & . s Q.R.E.P.!.o.O = # 8 D.e.K M.~.I.J.P.Q.A.M l 5.Q.",
"Q.R.Q.7.S #.~.I.I.!.@.a h.Y.P.Y.J.K.Q.R.R.L.: % @ s ^.R.E.I.Q.&.# = o 8 Q.#.D b.Q.E.P.K.Q.5.m m i.Q.",
"E.R.E.N.J @.E.I.I.~.X.f k.L.J.Q.K.J.I.Y.R.R.3 # o a ^.I.T.E.R.r . % @ 0 E.R K J.E.E.P.K.^.6.u D P.Q.",
"R.E.R.F.J :.E.I.P.Q.O.g a.P.P.Q.K.A.P.Q.Q.I.: % O k ^.I.W.I.E.0 # % # 9 k.A 8.Q.I.I.D.P.Q.5.u 8.!.I.",
"R.R.Q.C.J #.E.I.I.^.-.k k.Y.R.R.J.D.I.Q.R.I.2 # . a ^.I.I.E.T.8 # & # 0 8.F N.W.P.E.K.P.Y.D c J.Q.P.",
"E.T.~.S.J :.E.I.I.Q.] k a.Y.P.Q.K.D.I.I.R.I.3 % o s ^.I.I.^.8.+ % % # 9 s.A m.E.I.E.F.P.K.M B P.Q.I.",
"R.R.Q.C.D ,.E.E.E.D.v x g.Q.L.E.F.D.Y.I.E.P.3 # O s /.I.R.~.8.o = = O 0 r.S N.E.I.E.P.Y.P.c A P.R.Q.",
"R.R.Q.B.D ,.E.T.E.J.x j g.Q.J.T.P.A.E.I.I.R.< % @ s ~.R.R.~.8.o % = . r r.F B.Q.I.R.I.I.K.A x x.Q.R.",
"R.I.I.J.U O.E.I.Q.L.v j f.^.P.P.D.D.I.I.E.P.2 # o s /.I.R.~.8.@ % & O r.i.S C.E.I.Q.I.L.I.F f ,.Q.I.",
"R.I.I.I.X.X.W.R.E.D.B j f.Q.R.J.B.D.P.Q.T.J.< & o k ~.R.R.E.8.O % = & 8.z.S C.E.E.E.I.J.^.6.l 5.~.I.",
"R.R.E.E.,.+.E.E.E.D.v x f.E.Q.I.A.A.Q.R.~.#.$ % @ s /.P.I.~.0 @ = : % :.i.S b.~.I.I.I.m.Y.5.y 5.!.I.",
"R.R.I.Q.,.( I.R.E.P.v j y.!.I.I.D.A.I.I.R.R.> & o s ^.R.R.Q.0 @ : & 3 I.d.F v.~.I.I.I.J.^.u.g u.!.Y.",
"Q.I.I.Q.5.S A.Q.E.N.v j r.^.I.I.J.D.R.E.E.I.< % @ s /.I.R.Q.0 # = O q /.J.F B.R.I.Y.P.J.Y.<.g F I.Y.",
"R.R.R.Q.&.D B.Q.E.X.x x f.Q.I.I.A.C.R.R.E.R.3 # o s ^.R.R.~.8 O = o 0 ~.J.F V.E.I.~.I.J.^.<.l A P.Y.",
"I.I.E.E.1.F S.Q.E.;.f C P.R.R.T.A.K.Y.I.Q.k.; = . z ^.P.R.Q.0 @ = . 9 ~.L.D M.E.I.Y.I.J.I.6.l A J.Q.",
"R.Q.P.~.:.S J.I.E.o.x J T.Q.P.E.A.P.Y.I./.S   = o s ^.I.R.Q.8 @ = # 0 ~.J.D M.~.~.I.I.B.I.i.M l 8.Q.",
"R.Q.I.!.:.D d.!.Q.o.j S I.I.E.E.m.P.R.I./.( o = @ a ~.R.Q.~.0 # % @ 0 /.x.D V.!.I.I.Y.J.Y.,.l l 5.Q.",
"Q.I.I.E.:.J | T.~.X.j J I.I.Q.P.J.K.Q.I.^.K   = @ z ^.R.P.P.7 . % # 7 P.5.D l.Y.I.I.I.J.^.6.l c 8.^.",
"I.I.~.~.;.K #.E.~.~ j x N.Q.I.Y.A.K.Y.P.(.T o < & s P.J.F.D.k + = # 9 F.-.L j.A.A.A.A.m.K.x.M g ) E.",
"I.I.I.n.~ K } J.K.C N x d.^.I.P.A.K.I.!.Q.n # : O i K.B.A.P.{ + = # 9 K.{ J g.D.A.A.K.K.K.J.A M c u.",
"D.B.k.] Y ~ J #.X.l v x +.D.P.J.J.K.P.J.i.3 $ = O u P.D.A.K.,.O % = ; o.H H *.K.A.A.x.x.c.6.M M M H ",
") { R U Y K J N v B v B b k O.B { i.,.| c : $ % & > D R 8.x.K $ & = X q { ) H *.=.H F A A A M m c M ",
"c B A c c B b v a f v b 0 z t 0 c c c z b : # $ $ + t c n A k - * % # 3 K K F F A k A z c B a z c b ",
"b b B z u r 6 : $ $ < 2 + : : % w z a > > $ = $ = # 2 w > a 2 o % = # ; z c z b z 6 e k c r : 8 x c "
};
