/* XPM */
static char *Zm9yZXN0XzIrJTI4MSUyOS4_[] = {
/* columns rows colors chars-per-pixel */
"50 50 193 2 ",
"   c #272E26",
".  c #282C27",
"X  c #292E2A",
"o  c #272C28",
"O  c #2C322D",
"+  c #2A3225",
"@  c #30352F",
"#  c #2E3431",
"$  c #2F3933",
"%  c #313632",
"&  c #343A35",
"*  c #393B36",
"=  c #363B39",
"-  c #393E3B",
";  c #363739",
":  c #364038",
">  c #3C433C",
",  c #3F493D",
"<  c #40493E",
"1  c #3B3C40",
"2  c #3C4440",
"3  c #3C4844",
"4  c #414642",
"5  c #424C44",
"6  c #484E47",
"7  c #434B4A",
"8  c #484E49",
"9  c #445144",
"0  c #4A5446",
"q  c #46524A",
"w  c #4B544B",
"e  c #4E594C",
"r  c #50574F",
"t  c #525B4D",
"y  c #4E5A51",
"u  c #525751",
"i  c #525C53",
"p  c #585E5A",
"a  c #566154",
"s  c #5B6556",
"d  c #56635A",
"f  c #5B645B",
"g  c #5D6B5E",
"h  c #616D5D",
"j  c #61715D",
"k  c #5C6561",
"l  c #5E6A61",
"z  c #5F7165",
"x  c #616764",
"c  c #636D64",
"v  c #656D6A",
"b  c #667263",
"n  c #6A7565",
"m  c #6C7966",
"M  c #66726B",
"N  c #6B746A",
"B  c #6D7A6B",
"V  c #677C6D",
"C  c #717D6D",
"Z  c #6D7C72",
"A  c #6A7471",
"S  c #737D73",
"D  c #747E79",
"F  c #72816E",
"G  c #6F8172",
"H  c #758374",
"J  c #798475",
"K  c #778876",
"L  c #7B8976",
"P  c #75857A",
"I  c #7B867A",
"U  c #7D8B7B",
"Y  c #738A78",
"T  c #7F917D",
"R  c #818E7C",
"E  c #80867A",
"W  c #83917D",
"Q  c #839E7D",
"!  c #7B8882",
"~  c #7F9181",
"^  c #838E82",
"/  c #849383",
"(  c #899685",
")  c #869883",
"_  c #8A9986",
"`  c #86938A",
"'  c #89958A",
"]  c #869989",
"[  c #8C9B8A",
"{  c #909E8B",
"}  c #8D9C91",
"|  c #919E93",
" . c #8EA18B",
".. c #8CA387",
"X. c #93A38E",
"o. c #8EA193",
"O. c #94A394",
"+. c #9AA594",
"@. c #97AA95",
"#. c #9AAB96",
"$. c #95A49A",
"%. c #9AA69B",
"&. c #9CAC9B",
"*. c #9EB29C",
"=. c #A1AF9E",
"-. c #A0AE97",
";. c #A1B39E",
":. c #A3B99D",
">. c #9AA6A2",
",. c #9CAEA3",
"<. c #9DADAA",
"1. c #9DB2A4",
"2. c #9FB2A8",
"3. c #A2AFA2",
"4. c #A4AFA9",
"5. c #A4B4A4",
"6. c #A8B6A4",
"7. c #A5BAA4",
"8. c #AABCA4",
"9. c #A5B5AA",
"0. c #A9B5AC",
"q. c #A6BBAC",
"w. c #AABBAC",
"e. c #ACBDB3",
"r. c #B0BDB4",
"t. c #B1BEB8",
"y. c #A6C09D",
"u. c #ACC3A5",
"i. c #ADC4AB",
"p. c #ADC9AA",
"a. c #A5C1A8",
"s. c #B1C5AD",
"d. c #B2C9AD",
"f. c #B1C1A7",
"g. c #ADC3B3",
"h. c #AFC8B2",
"j. c #AFC3B8",
"k. c #B3C5B3",
"l. c #B4CBB4",
"z. c #B8CCB6",
"x. c #B3C4B9",
"c. c #B9C4BD",
"v. c #B6CCBC",
"b. c #BACCBB",
"n. c #BAD2B7",
"m. c #BBD2BD",
"M. c #B6D1B7",
"N. c #C0D4BC",
"B. c #BCC7C1",
"V. c #B5CBC1",
"C. c #BBCDC3",
"Z. c #BACFC8",
"A. c #BCD2C5",
"S. c #BED3CA",
"D. c #B7D1C4",
"F. c #BFD3D1",
"G. c #C1CCC4",
"H. c #C3CEC8",
"J. c #C3D4C5",
"K. c #C9D4C6",
"L. c #C2D5CC",
"P. c #CAD5CC",
"I. c #C4D9CD",
"U. c #C9DACD",
"Y. c #D1DFCE",
"T. c #C4D6D1",
"R. c #C6DAD2",
"E. c #CCDCD3",
"W. c #CDDDD9",
"Q. c #CAD6D2",
"!. c #D1DDD4",
"~. c #D2DFDA",
"^. c #CDE1D6",
"/. c #CDE1D8",
"(. c #D4E1D6",
"). c #D5E2DB",
"_. c #D9E6DD",
"`. c #D7E8DB",
"'. c #D9E8DD",
"]. c #DBE6E2",
"[. c #DDEAE3",
"{. c #DBE6E4",
"}. c #E1ECE5",
"|. c #E3ECEB",
" X c #E3F0E5",
".X c #E6F0ED",
"XX c #E9F3ED",
"oX c #EDFBEE",
"OX c #E7EFF1",
"+X c #EAF4F1",
"@X c #EFF8F5",
"#X c #F2FCF3",
"$X c #F4FDF8",
/* pixels */
"K @.s.b./ L C X.{ C W #.( m C F E R 0 a j h m X N h % % * w 4 * u & & % ; 4 t F W I q s s C R U N 8 ",
"B O.v.T B C $._ m H L _ K C F C L n < t S b N 0 < i * % * N 0 & 2 - % & ; h J J W ) I N & , p w S J ",
"W / 1.$.U O.;.H O./ R H U I & r < q m n 6 @ s D < r 6 @ * B B 5 s * & @ & B R / R 6.h - % & * % m S ",
"X.( k.%./ _ / X.U R ;.( B > % & & * 8 6 - < r r h r > @ > f L C [ & & & ; N n / -.-.< r v 2 % - - < ",
";._ &.[ U _ w.8._ &.+.C 5 O % & % - * 4 4 < q h c # % & > f _ / &.$ & % @ C J E c.f 5 S ^ C * . 7 4 ",
"-.O.) / [ X.8.#./ O.( e 6 4 > 8 # ; * f - 6 v $.| 4 # & O y / l X.$ & & % n E v i N I v p s R t % p ",
"{ :.&._ ;.W 5._ O.#./ n 9 5 b h > > O x w } ' P 5.5 % * & H b ] *.% % > > B W N @ b 0 m X.E J / S m ",
"R ;.z.i.%.U [ _ :.U s , q w 5 h f A 6 e 5 } ! Y s.w & % , B B U.&.# - * = U L < J H / / +.[ _ C ^ I ",
"L 6.l.q.) W / ) ^ c Z / b.R m P 7 J s f 5 >.S H w.O.- % w 9 *.m.@.& > > % H 5 C +.-._ S X.&.^ k.{ C ",
"F =.s.i.*.R +.[ O.s.n.l.l.W C *.M i r M 7 d O./ 7.O.X - O c M.l.&.- - % - f q +.W f.{ m +.&./ &.O.^ ",
"B L $.i.*.W W X.M.s.u.p.p.R m *.X./ Z ` l 0 J.*.T ) O & & ;.l.d.*.& ; $ - : d +.X.z./ J s.=.R H 5./ ",
"B m W 7.6.R R *.i.u.i.p.p.T F O.8.z.g.e.i d n.a.T N O $ & w.i.d.%.% $ ; & O 2.O.+.z./ R k.X.[ ' I S ",
"L B W 5.*.L #.p.l.l.h.h.i.W B  .X.*.p.U.A 5 A.p.5.y % % f b.s.z.*.# ; & O i R.&.6.x.m +.$._ +./ I S ",
"H _ K w.5.R &.m.q.n.A.A.s.U m T  .d.p.m.e.3 5.m.9.> %   K b.u.N.5.% & - O ` R.*.=.] ^ L / [ C R [ C ",
"K { B v.e.U w.m.m.l.v.D.A./ n L d.d.u.d.K.Z 5 J.$.O > 4 R @.n.d.1.$ & % % e.F.7.H ] %./ / / I H J I ",
"K C U w.w./ C.A.A.D.M.v.J./ m *.d.s.i.p.p.q.$ Z %.O - > &. .:.n.@.% & & $ w.S.o.] c.r.I K I E [ U I ",
"W B m _ r.R v.F.D.A.F.S.I.R B 7.p.u.u.p.j.I.l d ,.& * 2 g.v.U O.#.$ & ; & q.T.T 2.I.^.O.m } D.T.%.S ",
"K F H P [ ( C.S.S.S.S.S.v.W m z.d.s.u.p.M.R.} f D % . S L.n.#.X.&.% & & $ e.F./ j.x.} U N ' I.L.5.C ",
") H [ k.} R v.A.S.A.v.s.*.F C %.W  .7.s.l.J.[ l k O O N n.i.i.l.#.& & & $ e.S.[ D.t.Y I | U e.R.,.m ",
",./ K 2.x.U 5.I.S.c.s.p.7.m C b H _ ..u.s.A.$.2 3 ; O K n.u.d.M.@.% & & ; 9.S.) j.5.e.S.A.^ ] ^.&.S ",
"g.L.C.e.c./ O.S.D.&. .i.7.B m Q W  .u.8.i.z.v.8 # - & 7.n.u.d.n.*.$ % - - 0.L.R ,.R.A.L.v.O.S c.^ N ",
"o.C.C.S.L.[ / D.l.z.@.q.9.B C 8.d.#. .s.i.k.I.! O % : 9.l.d.l.m.@.& * * - e.L.W 5.L.D.D.A.e.V c.^ S ",
",.C.S.Z.D.{ ) l.i.p.C.1.T C H 7.i.l.i.h.i.a.A.,.X & : g.v.z.l.M.@.; * ; & q.x.R 5.S.S.D.A.w.G O.H / ",
"S.S.S.S.L.5.U 1.M.A.A.I.5.B m j.l.l.g.z.l.m.l.v.r # - a.v.m.m.D.&., * & & t.q.L 5.T.Z.j.L.w.G S H 0.",
"D.S.A.T.A.x.` ( A.S.S.I.g.n ` C.z.Z.l.l.v.S.D.A.i X - q.S.S.A.A...& ; O l /.5.L 1.m.m.h.Z.J.^ B $.L.",
"D.S.A.S.T.A.' _ S.F.A.F.a.n [ I.v.L.a.l.D.S.T.S.y O - e.S.D.A.I.j # ; X A V.=.L g.A.D.M.F.I.[ n O.I.",
"S.S.S.S.T.A./ ) V.F.A.I.a.b o.I.z.S.i.l.L.S.F.2.% & - e.I.A.A.L.X.% & O M j.O.( C.I.c.h.T.Z.^ m | R.",
"S.S.A.L.S.C.[ R q.R.A.F.e.b | A.l.L.i.l.S.S.R.$.X - ; e.R.J.D.I.&.# - X M A.( ) V.S.S.z.T.e.Z S ,.S.",
"A.S.S.S.S.T.,.K 9.R.C.S.q.n O.m.g.T.k.i.I.D.W.>.$ ; & t.F.A.A.R.b O :   N b.L { F.S.S.a.S.e.S J V.L.",
"F.S.S.S.S.R.0.K q.T.C.R.w.b } A.v.T.z.i.S.A.R.>.O % - e.I.S.A.R.x O : O v ,.L r.R.S.C.k.R.e.B [ L.S.",
"L.S.L.R.S.L.5.L q.T.D.R.g.b [ A.Z.T.z.a.S.S.W.>.O & & j.R.A.L.R.f O = X v O.W Z.S.L.C.i.T.} N g.R.S.",
"R.L.L.S.L.E.3.R w.E.A.R.w.n | A.b.R.b.s.I.A.R.,.# * - x.I.L.R.e.- & & X A $.R A.I.L.S.p.R.) Z c.R.S.",
"R.E.I.P.I.W.4.L w.E.T.R.( b X.E.b.R.z.k.I.L.E.<.O & & c.W.S.E.e.& % * X v +.U J.T.I.P.b.R.} B B.E.T.",
"R.T.E.R.P.~.0.L e.(.T.(.[ h O.^.v.I.m.a.P.!.!.<.% & - c.E.E.).j.& & * O D O./ A.R.E.E.m.!.' n 9.E.E.",
"E.E.E.U.P.E.r.J e.(.R.E._ j O.).K.b.z.l.Q.R._.9.# & & B.(.R.~.t.& ; % % t.%.U P.E.R.R.m.W.%.n | ~.R.",
"E.W.E.E.E.!.K.R e.~.W.(.[ m [ ~.E.J.q.s.E.Q.).>.X & & B.).E.].r.& % * & e.%./ P.(.!.~.b.E.B.m O._.R.",
"!.~.E.!.~.~.!.W r.].~._.[ b | _.!.R.s.s.!.~._.D # & - G.].R._.P o 2 * > t.| L !.~.!.~.z.I.H.b $._.E.",
"_.~._.~.~._.!.W 3._.!._.[ h O.{.).E.s.d.).W.}.0.# & ; B.].W..XA X - % p ).=.R !.)._.`.z.E.B.n $.].~.",
"_.~.]._._.{.!./ [ (._.~./ n $._.).E.u.l.(.].}.0.X & & H.}.W.[.D X 1 X M |.z./ !.].~._.l.E.N.m ( !.].",
"].].~._.].].~.( { (.}.N.C m $.[.)._.u.p.).].}.r.# & * H.[._.XXS X ; O c +Xx.R ~.]._.}.b.R.G.C D K.[.",
"{.}.]._.}.[.~.' [ _.|.H.C m N.|.{._.u.z.[.`.}.` $ ; * H.}.~.XXS . 1 X c #Xr.W !.}._. Xz.Y.J.S H H.}.",
"[._.[._.[. X_.W [ }.|.G.m C P.|.{.'.u.K.[.[.+Xk X * * H.|.}.OXD . 1 X v @XG.R _.|.].}.b.!.G.S N 3.}.",
"|.}.|.|.}.}._.( ( !..XP.C C K.|.|.[.f.U.OX].XXk X & * !.|.}.@X! X - X v #X6.( '.|.|..XG.!.K.C C %.XX",
"}.|.}.|.|.}.}._ I c.#XH.n C ~.OX}. Xp.K.+X|.+Xx X & 4 P.}._.`.b X - X h !.( W N._._.`.z.Y.K.C m 9.+X",
"OX.XOXOX.X+X_.[ E G.$XG.m m 5.+X}.`.u.Y.|.}.@Xv O > > w.n.s.d.K O * @ f k.W W 8.u.i.i.u.k.k.R m O.`.",
"[._.}.}.}.(.0./ R =.#X-.C m %.$X@XK.:.Y.+XoX_.p & - & =.u.y.d.-.* % O f d.W W f.u.u.i.s.f.d.W S C =.",
"k.f.8.8.f.#.W W ( R 0.R m C ` !.(.v.s.N.P.N.[ % * % : 5.d.d.d.#.* % % 3 { W W +.d.f.:.:.:.:.R S H R ",
"I L W { _ / ( ^ R L C F F m D M / K Q #.| / g - & ; % n W ..7.o.- & * O h [ / [ _ { / R L J J S H S ",
"S B Z V P G Z G G H N b B B f b c y Z Z Z Z z $ & & $ 5 Z Z I M - & & & w ' U U U Z V P G G M M G Z ",
"c x Z Z Z Z V l a 7 & O 3 9 & > 3 $ d Z l > 2 ; & $ % & f q k q # & * % 2 Z V B H d r l V l 3 q V Z "
};
