/* XPM */
static char *Z29zdC4_[] = {
/* columns rows colors chars-per-pixel */
"50 50 256 2 ",
"   c black",
".  c #010101",
"X  c #020202",
"o  c gray1",
"O  c #040404",
"+  c gray2",
"@  c #060606",
"#  c #070707",
"$  c gray3",
"%  c #090909",
"&  c gray4",
"*  c #0B0B0B",
"=  c #0C0C0C",
"-  c gray5",
";  c #0E0E0E",
":  c gray6",
">  c #101010",
",  c #111111",
"<  c gray7",
"1  c #131313",
"2  c gray8",
"3  c #151515",
"4  c #161616",
"5  c gray9",
"6  c #181818",
"7  c #191919",
"8  c gray10",
"9  c #1B1B1B",
"0  c gray11",
"q  c #1D1D1D",
"w  c #1E1E1E",
"e  c gray12",
"r  c #202020",
"t  c gray13",
"y  c #222222",
"u  c #232323",
"i  c gray14",
"p  c #252525",
"a  c gray15",
"s  c #272727",
"d  c #282828",
"f  c gray16",
"g  c #2A2A2A",
"h  c gray17",
"j  c #2C2C2C",
"k  c #2D2D2D",
"l  c gray18",
"z  c #2F2F2F",
"x  c gray19",
"c  c #313131",
"v  c #323232",
"b  c gray20",
"n  c #343434",
"m  c #353535",
"M  c gray21",
"N  c #373737",
"B  c gray22",
"V  c #393939",
"C  c #3A3A3A",
"Z  c gray23",
"A  c #3C3C3C",
"S  c gray24",
"D  c #3E3E3E",
"F  c #3F3F3F",
"G  c gray25",
"H  c #414141",
"J  c gray26",
"K  c #434343",
"L  c #444444",
"P  c gray27",
"I  c #464646",
"U  c gray28",
"Y  c #484848",
"T  c #494949",
"R  c gray29",
"E  c #4B4B4B",
"W  c #4C4C4C",
"Q  c gray30",
"!  c #4E4E4E",
"~  c gray31",
"^  c #505050",
"/  c #515151",
"(  c gray32",
")  c #535353",
"_  c gray33",
"`  c #555555",
"'  c #565656",
"]  c gray34",
"[  c #585858",
"{  c gray35",
"}  c #5A5A5A",
"|  c #5B5B5B",
" . c gray36",
".. c #5D5D5D",
"X. c gray37",
"o. c #5F5F5F",
"O. c #606060",
"+. c gray38",
"@. c #626262",
"#. c gray39",
"$. c #646464",
"%. c #656565",
"&. c gray40",
"*. c #676767",
"=. c #686868",
"-. c DimGray",
";. c #6A6A6A",
":. c gray42",
">. c #6C6C6C",
",. c #6D6D6D",
"<. c gray43",
"1. c #6F6F6F",
"2. c gray44",
"3. c #717171",
"4. c #727272",
"5. c gray45",
"6. c #747474",
"7. c gray46",
"8. c #767676",
"9. c #777777",
"0. c gray47",
"q. c #797979",
"w. c gray48",
"e. c #7B7B7B",
"r. c #7C7C7C",
"t. c gray49",
"y. c #7E7E7E",
"u. c gray50",
"i. c #808080",
"p. c #818181",
"a. c gray51",
"s. c #838383",
"d. c #848484",
"f. c gray52",
"g. c #868686",
"h. c gray53",
"j. c #888888",
"k. c #898989",
"l. c gray54",
"z. c #8B8B8B",
"x. c gray55",
"c. c #8D8D8D",
"v. c #8E8E8E",
"b. c gray56",
"n. c #909090",
"m. c gray57",
"M. c #929292",
"N. c #939393",
"B. c gray58",
"V. c #959595",
"C. c gray59",
"Z. c #979797",
"A. c #989898",
"S. c gray60",
"D. c #9A9A9A",
"F. c #9B9B9B",
"G. c gray61",
"H. c #9D9D9D",
"J. c gray62",
"K. c #9F9F9F",
"L. c #A0A0A0",
"P. c gray63",
"I. c #A2A2A2",
"U. c gray64",
"Y. c #A4A4A4",
"T. c #A5A5A5",
"R. c gray65",
"E. c #A7A7A7",
"W. c gray66",
"Q. c #A9A9A9",
"!. c #AAAAAA",
"~. c gray67",
"^. c #ACACAC",
"/. c gray68",
"(. c #AEAEAE",
"). c #AFAFAF",
"_. c gray69",
"`. c #B1B1B1",
"'. c #B2B2B2",
"]. c gray70",
"[. c #B4B4B4",
"{. c gray71",
"}. c #B6B6B6",
"|. c #B7B7B7",
" X c gray72",
".X c #B9B9B9",
"XX c gray73",
"oX c #BBBBBB",
"OX c #BCBCBC",
"+X c gray74",
"@X c gray",
"#X c gray75",
"$X c #C0C0C0",
"%X c #C1C1C1",
"&X c gray76",
"*X c #C3C3C3",
"=X c gray77",
"-X c #C5C5C5",
";X c #C6C6C6",
":X c gray78",
">X c #C8C8C8",
",X c gray79",
"<X c #CACACA",
"1X c #CBCBCB",
"2X c gray80",
"3X c #CDCDCD",
"4X c #CECECE",
"5X c gray81",
"6X c #D0D0D0",
"7X c gray82",
"8X c #D2D2D2",
"9X c LightGray",
"0X c gray83",
"qX c #D5D5D5",
"wX c gray84",
"eX c #D7D7D7",
"rX c #D8D8D8",
"tX c gray85",
"yX c #DADADA",
"uX c gray86",
"iX c gainsboro",
"pX c #DDDDDD",
"aX c gray87",
"sX c #DFDFDF",
"dX c gray88",
"fX c #E1E1E1",
"gX c #E2E2E2",
"hX c gray89",
"jX c #E4E4E4",
"kX c gray90",
"lX c #E6E6E6",
"zX c #E7E7E7",
"xX c gray91",
"cX c #E9E9E9",
"vX c #EAEAEA",
"bX c gray92",
"nX c #ECECEC",
"mX c gray93",
"MX c #EEEEEE",
"NX c #EFEFEF",
"BX c gray94",
"VX c #F1F1F1",
"CX c gray95",
"ZX c #F3F3F3",
"AX c #F4F4F4",
"SX c gray96",
"DX c #F6F6F6",
"FX c gray97",
"GX c #F8F8F8",
"HX c #F9F9F9",
"JX c gray98",
"KX c #FBFBFB",
"LX c gray99",
"PX c #FDFDFD",
"IX c #FEFEFE",
"UX c white",
/* pixels */
"                    X . . X @ % X o $     O =       X +       @   X O o . . o O                     ",
"                    .         .     X .   o &   + # $ # O O @ #     . .                             ",
"                        .       O     $ = & & *   X .     % X         .                             ",
"                        o O .   - .   2 x j y f c A V l m G j # X       o O o .                     ",
"                        . X     : % O h %.,.o.;.X.%...! ^ / l   1 * X   . O + O                     ",
"                @       X + o   a N B  .Y.}.!.oX@XXX~.F.Z.c.-.H Z g 1 o     . .                     ",
"                +     X > q y y 5.J.L.~.dXvXpXZXuX<X|.).(.T.b.e.q...n 2 O                           ",
"                      & y V I R *XUXIXmXUXUXMXUXNXeX=X-X1X,X=X&X~.h.( a ; O .                       ",
"                    5 c ..<X$X2XnXDXIXIXUXUXlXUXIXbXUXAXsXlXpX X@XK.~ z   -   $                     ",
"                * # : v u.UXUXLXUXUXUXJXHXUXAXUXUXVXVXIXUXPXcXtX<X/.%.J = >   .                     ",
"                      g 0.PXUXSXUXkXUXUXZXUXUXnXVXUXGXUXUXUXAXVXeX$Xl.;.M i @ .                     ",
"                . 0 C u./.GXKXUX).b.AXUXDXUXUX(.j.PXUXUXCXUXUXKXrX,X).S.3.T r ;                     ",
"                - v ;.sXUXUXbXnXL N rXUXSXUXFX3.g oXsXUXFXUXUXUX4X*X&XXXY.:.V 7                     ",
"                # i ' cXUXBXG.$.6 9 rXUXJXUXJXO.  E :.IXUXLXVXUX4X+X;X*X#Xe.P 8                     ",
"                % b [ jXUXcX5.o - w kXUXUXUXUX#.  - t VXUXKXAXJXjX-X<X%X,Xt.U 4                     ",
"                  F *.fXUXBXy.    6 jXKXUXIXGX .  5 s CXLXUXUXIXUX9X5X#X1Xr.U 2                     ",
"O o   =   &     . V [ NXFXDXH.<...,.mXUXAXAXUXF.@.~ d.HXCXUXUXKXUXBX3X XOXk.c r X   O +     & .     ",
"      < . , O 1   v _ bXUXUXMXzXVXmXKXIXUXKXIXPXUXAXIXUXmXDXIXGXBXsXqX7X>Xm.D 8 : X o o   . %       ",
"X +   =         $ v _ fXSXUXJXUXUXmX;.K *./ E ;XUXBXAXUXUXHXPXUXUXmX:X%XoXY.6.S y & X X   X $       ",
"o     ; : 1 > 4 3 C &.mXUXUXSXUXMX3Xv ; d 6 % D.JXIXUXpXHXxXCXvXzX4X*X4XOX).U.-.n , .     o #       ",
"%     ; j x x g 3 n @.dXUXUXLXUXUXUX8XtXuXyX*XUXMXUXfX} L Y X.K I r.{.xX7X'.).2.D 2   .   X +       ",
"+   : z >.7.w.>.3.y.c.iXIXGXKXDXmXAXDXPXBXUXUXJXUX;Xm.w.a.4.6.3.,.i.3.K.$X&X%X<.D 1   o     O       ",
"  @ P i.aXVXUXHXGXDXhXDXUXJXUXPXUXUXUXHXGXUXUXcXrX=.+.pXUXCXhXAXDX0X .%.`.5X2X4.V :   +     o X     ",
"p n t.`.UXUXUXFXUXUXvXkXnXcXUXJXHXFXUXVXUXJXNX$Xm.j.`.UXjXUXUXUXSXUXD.D.4X,XoX,.n -   #     o +     ",
"A T kXGXUXUXHXUXPXKXjX<X9XDXUXFXPXUXJXUXBXVXUX9.A 8XlXUXUXKXGXUXJXjXUXcX6X&X&X3.B =         O       ",
"h G sXGXUXUXPXUXLXkX>X$XeXFXUXUXIXUXAXUXPXUXUX9.Y xXLXUXUXUXPXmXiXwXUXkX1X%X*X1.F ,   .     o       ",
"S ] nXUXUXUXAXnXNX7X|.+XiXGXUXUXUXPXNXUXUXUXPX9.l 0XUXGXZXUXJXwX=X1XUXfX,X;X:X>.G <         X       ",
"b ( yXDXUXPXUXBX&X$X+X*XiXGXUXUXUXPXCXUXIXIXVXk.[ 5XUXUXJXPXNXdX%X,XJXuX,X2X1X=.N *         .       ",
"5 f l.C.A.n.D.t.y.I.+X=XeXFXUXJXUXUXLXUXGXKXFXXXn.N.J.S.H.z.e.p.#X+XcX6X-X1X,X&.c $   X     .       ",
"$ $ D V A A ' v ] w.L.XXeXFXUXLXIXIXUXUXHXUXUXVX<X1.L a U E G D P.D.3X=X#X%X;X3.P 6 O # .   X       ",
"    6 t P >./.M.2.O.4.(.jXGXLXUXIXPXUXUXJXUXUXUXUX=XG.R ;.S.K.s.<.,.}.*X#XXX1Xv.3.C 6 : .   O       ",
"-   # * M -. XJ.L.| ) Q.ZXHXAXUXUXPXUXLXGXIXSXLXUXMXzX+.#.Q.+Xv.I ~ ^.,X=X X0X~.C.[ f 2     + O     ",
"  #     t 0 D T.&X! I ;XiXNXDXUXUXUXUXUXUXUXUXUXUXCXFXnXF.E 3.qXo.U .X=X X&X:XP.x./ C   .     @     ",
"  %     2 = c B.:X..W oX9XCXHXUXUXUXUXUXUXUXUXUXJXJXUXIX4XF.J.*X/ Y [.8XgXeX*XU.x.W N O : .         ",
"  &     #   9 1.T..._ {.8XIXUXJXUXUXUXUXUXUXUXUXHXUXUXUXJXMXeX%X+.[ D.*XUXkXoX).A.R l . >           ",
"  @ .   o   @ A ' H / Q.2XUXUXHXUXUXUXUXUXUXUXUXUXUXIXGXUXUXJXiXM.6.:.v.IXdX{.%X_._ h   #     O     ",
"      X +     ; : e B s.E.nXHXPXUXUXUXUXUXUXUXUXUXUXJXHXPXUXIXKXoXz.K o.CXiX}.1X$X>.P = >     #     ",
".     X O .       ; 6 ! 9.,XxXUXUXUXUXUXUXUXUXUXIXLXUXUXUXGXJXUX4XU.I X.GXsX+X>X&Xl.9.b s %   .     ",
"o     .   . O     = O n =.$XdXUXUXUXUXUXUXUXUXUXHXIXUXUXUXUXLXKXkX2X3.p.UXsX=X&X=XE.K.R j = .       ",
"o   O       * o   =   M 7.2XgXUXUXUXUXUXUXUXUXUXKXUXUXDXKXUXUXCXUXZXG.J.UXyX:X#X<X X(.Y w O X O     ",
"                    % Z q.W.&X3XSXIXUXUXJXJXLXLXUXUXPXJXFXDXKXUXUXlX:X,XbXUXMX2X@X XI.E i   $       ",
"                @ o - j ` u.!.>XnXHXUXUXUXUXUXUXGXJXIXUXUXPXLXPXUXbX9XwXZXUXCX9XrX,X~.^ d   @       ",
"                    + , i Q x.$XxXSXIXPXLXUXPXSXJXUXUXUXUXUXUXUXUXUXAXDXUXUXLXgX(.H.g.A p O *       ",
"                      o > V u.oXkXSXIXLXUXUXUXHXnXDXLXGXSXGXJXJXKXLXJXHXPXLXvXqX%X`.L.O.R 0 ,       ",
"                      @ 3 V 5.Y.).2XjXmXDXPXNXeXrXNXUXUXUXUXUXPXZXPXUXUXUXUXSXlX>X+XoXz.q.F i   . . ",
"                X     X : p Y *.c.].0XsXgXuX|.c.6.H.;XeXyXrX<X X{.*X5X9XqXeX8X<X%XXX%XS.g.L i . . . ",
"                .       . % 9 l i.P. X|.{./.j.| ~ t.W. XXXXX^.S.H.!.}. XoX$X$XoX&X.XOXn.q.N w o X X ",
"                @ .   X     = 0 N ~ { ^ _ o.Q j : M ` [ ]  .] T I / [ ] ]  . .] ~ Q +.! ` m S B X X ",
"                        . . X X u a h z z h a u > q h x k f h z v v v v v v v v n n n n n n n n X X ",
"                        . . X X # % - : : - % #   # , 1 ; & = >                 . . . . . . . . X X "
};
