/* XPM */
static char *aGFtdGFyby4_[] = {
/* columns rows colors chars-per-pixel */
"50 50 252 2 ",
"   c #010101",
".  c #0B0100",
"X  c #010A02",
"o  c #0C0903",
"O  c #01030B",
"+  c #030A0C",
"@  c #0B0C0B",
"#  c #0C050B",
"$  c #120300",
"%  c #1C0300",
"&  c #130904",
"*  c #170A07",
"=  c #05120A",
"-  c #19130C",
";  c #000312",
":  c #020B14",
">  c #0C0C12",
",  c #040B1A",
"<  c #080A19",
"1  c #1A0E13",
"2  c #081416",
"3  c #1B1112",
"4  c #181519",
"5  c #260A04",
"6  c #291708",
"7  c #371906",
"8  c #261917",
"9  c #351A18",
"0  c #2F0D08",
"q  c #3E2508",
"w  c #2B2219",
"e  c #392518",
"r  c #2A2203",
"t  c #020B23",
"y  c #171C24",
"u  c #0B1A2E",
"i  c #291C24",
"p  c #321D24",
"a  c #2A2425",
"s  c #322A26",
"d  c #3B2C2B",
"f  c #382827",
"g  c #36312A",
"h  c #372834",
"j  c #3A3638",
"k  c #272D36",
"l  c #1A2A3A",
"z  c #481905",
"x  c #4F1809",
"c  c #4C240A",
"v  c #41220A",
"b  c #592906",
"n  c #442513",
"m  c #472A18",
"M  c #522D13",
"N  c #572B17",
"B  c #453319",
"V  c #5A3518",
"C  c #692804",
"Z  c #612A18",
"A  c #683A1B",
"S  c #723A16",
"D  c #732E03",
"F  c #442B27",
"G  c #42342B",
"H  c #4A3427",
"J  c #513422",
"K  c #583925",
"L  c #483838",
"P  c #4F302E",
"I  c #6C3E21",
"U  c #6F471C",
"Y  c #4D403B",
"T  c #584339",
"R  c #5C4A30",
"E  c #6B4226",
"W  c #794629",
"Q  c #724F34",
"!  c #493D41",
"~  c #563E42",
"^  c #4A4343",
"/  c #564846",
"(  c #5D514B",
")  c #574B53",
"_  c #5E5558",
"`  c #6A5548",
"'  c #775846",
"]  c #675A59",
"[  c #755C54",
"{  c #624B49",
"}  c #786559",
"|  c #6E6253",
" . c #6E6466",
".. c #746968",
"X. c #787377",
"o. c #795B67",
"O. c #8B4718",
"+. c #965012",
"@. c #A85218",
"#. c #874824",
"$. c #865537",
"%. c #925934",
"&. c #925529",
"*. c #A55927",
"=. c #9A643B",
"-. c #8C623C",
";. c #A96534",
":. c #B46C35",
">. c #B4611D",
",. c #EF771A",
"<. c #DA7528",
"1. c #CB7D3D",
"2. c #D87C39",
"3. c #CA6B27",
"4. c #EA7B25",
"5. c #E57E30",
"6. c #885B46",
"7. c #9A5B45",
"8. c #8A654C",
"9. c #986648",
"0. c #876957",
"q. c #897259",
"w. c #986F56",
"e. c #A86846",
"r. c #B26A47",
"t. c #AC764B",
"y. c #B67548",
"u. c #A96B52",
"i. c #BA7B55",
"p. c #A87454",
"a. c #9C7C67",
"s. c #857A79",
"d. c #917872",
"f. c #AA7967",
"g. c #C87C44",
"h. c #C97954",
"j. c #C17E6B",
"k. c #DC8439",
"l. c #EA832A",
"z. c #F78529",
"x. c #E4853C",
"c. c #EA8638",
"v. c #F78A35",
"b. c #BB8451",
"n. c #9A8379",
"m. c #8E817B",
"M. c #AB8769",
"N. c #B98967",
"B. c #B6926C",
"V. c #A38575",
"C. c #B98B75",
"Z. c #B99778",
"A. c #BDA37E",
"S. c #DA8746",
"D. c #C68758",
"F. c #D78C54",
"G. c #CC894F",
"H. c #E68A45",
"J. c #E7924A",
"K. c #FB964C",
"L. c #EC9353",
"P. c #DA9666",
"I. c #D59B73",
"U. c #C98F6E",
"Y. c #E2916C",
"T. c #D6A47B",
"R. c #E7A474",
"E. c #F8B175",
"W. c #7A7383",
"Q. c #877A87",
"!. c #8A898A",
"~. c #988D87",
"^. c #958D94",
"/. c #9A9695",
"(. c #AA958C",
"). c #B89887",
"_. c #A79A99",
"`. c #A98D8E",
"'. c #B1A290",
"]. c #A59FA1",
"[. c #ACA9AA",
"{. c #B6ACA6",
"}. c #B6B0B2",
"|. c #9A98A3",
" X c #C7978E",
".X c #C3A688",
"XX c #DAA684",
"oX c #C4A695",
"OX c #D1B69F",
"+X c #E5AC84",
"@X c #ECB48A",
"#X c #FDB78A",
"$X c #D8B9A7",
"%X c #C6B8B6",
"&X c #CCB3A9",
"*X c #E5BCA6",
"=X c #E4CD9E",
"-X c #DAC8AB",
";X c #D6C5B9",
":X c #C4C1BC",
">X c #F9C9A8",
",X c #E8CAB6",
"<X c #F7CBB9",
"1X c #FBD5B9",
"2X c #E7CEAE",
"3X c #FFE3B9",
"4X c #DFC497",
"5X c #CCBBC3",
"6X c #CDC9C9",
"7X c #D4CACB",
"8X c #D6CAC7",
"9X c #D8D7D7",
"0X c #CDCFCF",
"qX c #E9D7C6",
"wX c #F9DBC5",
"eX c #E8DAD7",
"rX c #F1D3D0",
"tX c #FFE5C7",
"yX c #E9E5DC",
"uX c #FDECDD",
"iX c #F8E9D6",
"pX c #FFF3DB",
"aX c #FFF7DC",
"sX c #FFF2CC",
"dX c #D8DBE3",
"fX c #E3DFE0",
"gX c #F8DCE8",
"hX c #DBF1F0",
"jX c #E5E4E2",
"kX c #ECE4E4",
"lX c #ECEAE5",
"zX c #ECECEA",
"xX c #E5E9E9",
"cX c #FEEDE4",
"vX c #F3EDEC",
"bX c #F6EBE7",
"nX c #EDF1EB",
"mX c #FFF3E5",
"MX c #FFFAE4",
"NX c #FFFCEC",
"BX c #F8F4E8",
"VX c #E7EAF4",
"CX c #FAEBF8",
"ZX c #EAF7F5",
"AX c #F3F3F3",
"SX c #FBF5F4",
"DX c #F4FCF4",
"FX c #FEFCF3",
"GX c #FDF5FB",
"HX c #F4FEFE",
"JX c #FEFDFC",
"KX c #F3F6FC",
/* pixels */
"  X X             . . . $ % $ . $ . o     >     . . .     O ; ; O     2 O : O + 2 + 2 +   # . $     ",
"                > O   O O O O   &   o     :   X   . . .     ; O > @   4   +     O   +     &         ",
"              O ; , y k l u u y 4 .     O ; O :       .     O O =       . 1 9 p 9 9 8 .   @ X X     ",
"    O + X     o . 8 f f 9 e F H J % . O ; ; ; ,       .         X X   6 5 N x x x Z 9 $ . X X 2     ",
", ; ; :     $ 5 0 #.i.y.;.:.:.*.=.M 0 . O , ; ; O O .   . .         . 7 x 7.u.r.u.f.6.n 0 . O X     ",
"; ; O O   . 0 c S r.Y.2.5.K.K.K.S.%.I 0 * > ; ; O O   . .   . . . $ % M I D.Y.P.h.Y.u.' H &         ",
"O     . * 5 V ' u.7.C x D @.h.K.H.g.g.S 7 8 O O O O . . . . . . % n W N.D.P.*.D C D S 9.' F d 1     ",
"$ . $ % 6 m ' a.&Xf.W 6.7.u.u.h.2.c.H.#.x e 3 4 4 4 3 3 3 3 3 5 n Z W i.h.R.G.+.+.O.;.+X X' ~ %   X ",
"X X   n Z 7.U.1XmXNXFXxXJX..5 f.F.L.1.S z c K m f d P f F P P c C k.S.k.P.b.U.sXNXNXNXNXtX.X=.V e o ",
"X   . n Z 7.U.1XuXiXFXDXSX] n f.G.k.1.:.*.;.;.%.=.9.9.=.%.e.;.;.>.k.S.S.G.U q.aXNXFXFXNX-XA.b.b e o ",
"X X . n N 9.C.,XNXqXnXFXvX..P 6.U.F.S.H.H.H.J.K.H.v.c.c.c.x.S.H.v.l.5.J.:.D Q -XNXAX8XNXpXN.:.b e o ",
"  O . 7 m 9.C.2XqXNXJXs.L _.CXiXiXwX>XR.1.3.<.z.z.,.z.z.z.z.l.v.v.z.4.H.S.:.-.' T FXFXuX>XN.:.b e # ",
"O O   9 B w.A.1XNXcX%Xo.! 5XJXvXFXFXcX*XI.R.P.x.<.l.l.l.l.l.l.l.4.4.z.c.H.P.i.I B &X,XMX1XB.U.b e & ",
"O # . r e q.Z.-XcXT 0 5XGXGXDXJXVXHXAXkXMXMXtXT.b.F.J.k.k.k.c.k.K.5.5.v.l.x.H.G.T.z M MXaXB.M.z e @ ",
"# #   - r R | n.a.).Q.gXGXvXVXHXHXHXJXJXFXFXiX$X4X=X@XP.k.k.k.k.L.2.5.5.4.4.l.K.S.*.%.M.8.[ 0.* 8   ",
"O # . o X r r B 5 8XCXGXCXJXJXDXDXDXDXZXZXZXJXFXMXMX3XP.b.k.x.l.g.F.L.v.z.z.,.,.3.E.r.0 n L 8 & -   ",
"  O   . # 1 . F F %XSXbXFX..f ( ( ^ f 8XJXFXFXJXnXJXzXJX9XvXSXlXBXg g G B E I Y.g.R.h.b M & 2 O     ",
"  >     . 1 . p f %XGXeX7Xs.L ( !  ..._.%XJXJXzXJXDXnXJXFXJXJX7X{...( ` ` K x i.r.D.:.x v & X       ",
"O > O .   4 O h 8 }.GX_ * 0XJXBXJXGXkX] g 9XJXJXnXDXJXzXDXJXyX^ j zXJXGXeXR 5 S O.i.D.S b % .       ",
"O O O ; O y 4  .|.5XJX^.4 ..^.jXSXcXJX .4 jXDXFXnXJXJXnXFXJXlXa k zXdXKXbX{ z I C i.D.%.$.0 8 1     ",
"+ O   > # i ! 5XGXGXfX .w d 4 {.JXGXJX( - jXFXJXJXnXJXDXJXJXvX] j VXJXJX7Xf e m I XXN.U.C.n L #     ",
"+       . 8 L 7XrXGXSX] 8 8XeX..d /  .a a lXJXzXFXJXJXFXzXJXyXj h ) ! h ..8X;Xm I <X1XiX,XJ F #     ",
". - * 1 * f F d.SXrXrX~.L '.iX} L ! p Y ..0XJXFXJX9X0XJXDXJXAX] { P ~ f ) 8X%X` 0.,XuX>X).P p i 1 1 ",
"  d L L P { 9 P 5 ' `.$XNX} $ w 9 s 8 7XJXzXAXJXZXj 4 yXFXSXJXJXcX9 p f 3 3 L uXqX).a.0 n L p ~ L L ",
"2 : 4 4 y w G d.(.'.:XmXvX[.!.|.X./.!.AXJXJXJXDXnX/.}.9XJXJXZXJXcX(.s._.^.W.[.GXuX8X{.(.~.8 / 1 8 8 ",
"O : y - & w T '.NXNXaXmXFXJXnXvXJXJXxXJXAXJXJXJXJXjXxXJXJXJXAXJXmXNXNXJXJXJXJXFXNXaXaXaX,XH d .     ",
"        $ r e ' E n.oX;XuXFXJXJXJXAXJXJXJXKX9XGXDXJXJXxXJXJXAXJXMXNXNXAXDXDXlXMX2X'.B.B.).B B .     ",
"  O - . 6 g q V m 0.oXiXNXNXbXSXJXJXJX9X6XJXKXJXfX9X0XJXJXAXJX0X0XJXHXZXHXJXNXNXsXT.B.B.Z.v B 6 . o ",
"X a / G d H K 0..X,XtXpXNXNXNXJXAXJXkX! j 6XJXJXJXa g vXJXSXAXj j 0XHXVXKXJXSXeXNXwXMXcX<XP L j L L ",
"O 2 g 8 6 e e Q ' ,XNXNXcXFXJXJXJXJXAX/.Q.!././.}.^.X.^.].[.[.X.Q.VXHXJXJXJXJXFXcX$X<XoXa.3 i i 8 8 ",
", O     . $ o 6 e '.NXFXBXSXSXJXGXvXJXJXkX) a i . vXCX! i 1 j kXJXJXKXGXAXkXmXNXpXM.8.m e o O   # $ ",
": O : + .   . G H T ( s.:XfXAXJXGXJXJXGXGX%XfX7X6XGXJX5X7X9X%XGXNXNXNXNXNXNXsX.XM.U Q v B   + X     ",
"O             s f Y / s.'.;XFXNXNXDX0XZXhXHXHXnXDXMXFXJXJXJXKXHXAXeXyXJXbXJXqX).Z.b U c m $ & o     ",
"X   O   X .   s w %XiXyXpXcXNXFXcX~ 2 9XHXhXdXHXFXNXNXNXnXJXJXxXJXj 8 kXJXFXSXmXwXV.V.J d     O     ",
"O   O     .   s g (.FXFXFXcXNX,XrX Xd.s.|.KXKXHXHXJXFXNXaXNXNX(.~.~.!.8X8XlXSXiXiX$XoXH f O ; ,     ",
"O   O     .   s g {.FXFXiXNXDX).h.>XwX0.d 9XHXZXhXHXZXJXlXBXlXF v aX1XV.).uXmXaXpXtX<XL d O ; ;     ",
"X   O     o   s w 8XbXmXSXn.T Z.F.E.E.U 6 :XHXHXKXHXGXJXJXJXCXh z @X+XXXN.$.$.@X+X+XT.z n &         ",
"O             s w {.yXFXFX| w q.:.:.-.R R yXDXDXKXAXkXGXCXGXVXo.%.&.y.XX#.b S t.D.r.t.z c % & .     ",
"O   O         s g %XFXFXqXNXmX` 7 7 J ;XBXNXnXpXMXMXMXNXSXFXJXeX,XS M M E iXaXtX1XU.B.I J $ o       ",
"O   X     o   s w ..{.;X8XmXcX(.W.W.X.dXZXJXFXqX-X4X=X=X=X2X-XqX,X} ` T ( qX-XwX-X8.6.e 9   , O     ",
"                o 6 v 6.I.#X3XsXFXHXJXFXNXMXtXXXD.F.S.x.v.z.z.4.z.z.,.z.z.<.H.F.t.E 5 & & . . .     ",
"                . 6 M w.I.R.#X@X'.d.} } q.q.8.Q Q W W #.#.#.#.O.@.2.x.H.J.k.G.&.E q . . o     .     ",
"                $ 9 J q.N.N.N.u.a.J 7 n f 9 9 F F h h h h h h d b t.b.D.D.D.p.M 7 o     o   . .     ",
"                . . $ m K M V M Q 0 $ 5 5 . $ 1 > > < , t t t ,   J R V V K V . o     O O           ",
"                o - o w e 6 B e 4 X X X               X         4 g i w e w f - + O : ; O     .     ",
"          O             .     X = X X X X X = X o o . o o $ $ o X O   O   .     O O O O     . o     ",
"O     O           @ X @ + X +   X   X       X                   O :   @ &   $     O O O     . .     ",
"  O             X O O O X O : +   .   *     .     O O O O ; ; ; O :     . . &             . . .     ",
"                                                                                                    ",
"                                                                                                    "
};
