/* XPM */
static char *a2V5[] = {
/* columns rows colors chars-per-pixel */
"50 50 183 2 ",
"   c #040403",
".  c #080706",
"X  c #080807",
"o  c #070708",
"O  c #0A0A09",
"+  c #141206",
"@  c #151309",
"#  c #1B190B",
"$  c #181608",
"%  c #121212",
"&  c #161718",
"*  c #1B1C1D",
"=  c #221F0F",
"-  c #1F201F",
";  c #2E2B11",
":  c #322F12",
">  c #343013",
",  c #27240E",
"<  c #1E1F20",
"1  c #1F2021",
"2  c #222223",
"3  c #252629",
"4  c #2A2B2C",
"5  c #2B2B26",
"6  c #31302F",
"7  c #2D2E32",
"8  c #2F3034",
"9  c #323334",
"0  c #37393B",
"q  c #393A3C",
"w  c #363638",
"e  c #524C18",
"r  c #41403A",
"t  c #5C5620",
"y  c #655E21",
"u  c #6D6524",
"i  c #736B26",
"p  c #7A7226",
"a  c #7C7329",
"s  c #6B6635",
"d  c #3B3C42",
"f  c #3E4145",
"g  c #3F4149",
"h  c #414444",
"j  c #42444B",
"k  c #47494D",
"l  c #494B4B",
"z  c #474947",
"x  c #4D514F",
"c  c #4A4D53",
"v  c #474B51",
"b  c #4E5251",
"n  c #4F5358",
"m  c #55585D",
"M  c #5A5C5C",
"N  c #545658",
"B  c #6F6C4D",
"V  c #5D5E63",
"C  c #5E6264",
"Z  c #626364",
"A  c #626569",
"S  c #66696D",
"D  c #6B6E6A",
"F  c #69706E",
"G  c #6B6E72",
"H  c #6D7374",
"J  c #707476",
"K  c #717679",
"L  c #757A7B",
"P  c #777A7B",
"I  c #847B2A",
"U  c #897F2B",
"Y  c #857E35",
"T  c #8E842E",
"R  c #93882F",
"E  c #978C34",
"W  c #9F9332",
"Q  c #A19634",
"!  c #A59933",
"~  c #A89D37",
"^  c #B5A838",
"/  c #BFB13B",
"(  c #ADA135",
")  c #CCBE3E",
"_  c #C1B33C",
"`  c #D3C33F",
"'  c #959267",
"]  c #BEBB76",
"[  c #BEB86B",
"{  c #CEBF40",
"}  c #C2BF76",
"|  c #D3C442",
" . c #DBCB43",
".. c #D4C64A",
"X. c #CFC351",
"o. c #DED25A",
"O. c #DACD55",
"+. c #E3D346",
"@. c #E8D747",
"#. c #ECDB47",
"$. c #EDDD4A",
"%. c #E7D648",
"&. c #F0DF4A",
"*. c #E6D958",
"=. c #F4E34A",
"-. c #F8E64A",
";. c #FDEB4A",
":. c #FFF14B",
">. c #F6E650",
",. c #D2CB6C",
"<. c #C9C577",
"1. c #777E80",
"2. c #7A7E81",
"3. c #7D8484",
"4. c #838A8B",
"5. c #8A8C8F",
"6. c #828784",
"7. c #88918F",
"8. c #8D8F91",
"9. c #8C9392",
"0. c #8F9896",
"q. c #909997",
"w. c #929B9A",
"e. c #9A9B9C",
"r. c #949596",
"t. c #A09F9F",
"y. c #9DA599",
"u. c #A2A79E",
"i. c #ABB197",
"p. c #9E9FA1",
"a. c #9BA5A3",
"s. c #9FA9A6",
"d. c #9FAAAA",
"f. c #A3A4A4",
"g. c #A2ABA6",
"h. c #A2ACAA",
"j. c #A9ABAC",
"k. c #A5A6A8",
"l. c #A5B0AE",
"z. c #AAB1AF",
"x. c #A8B1A4",
"c. c #B0B5A0",
"v. c #ADB5B4",
"b. c #AFB8B6",
"n. c #A7B2B0",
"m. c #B4B4B6",
"M. c #B2B8B6",
"N. c #B7B7B9",
"B. c #B5BBB9",
"V. c #BBBCBD",
"C. c #BBC1BF",
"Z. c #BEBEC0",
"A. c #BDC3C1",
"S. c #C3C6C5",
"D. c #C6CAC9",
"F. c #CBCECD",
"G. c #C3C9C7",
"H. c #CCD0CF",
"J. c #CED2D1",
"K. c #D4D5D5",
"L. c #D5D8D7",
"P. c #D7D9D9",
"I. c #D9DBDA",
"U. c #D7D7D8",
"Y. c #DEE0DF",
"T. c #E0E0DF",
"R. c #E4E5E4",
"E. c #E8E7E7",
"W. c #EDEDED",
"Q. c #ECECEB",
"!. c #E7E8E7",
"~. c #F0EFEE",
"^. c #F0F0EF",
"/. c #EFEFF0",
"(. c #F6F6F5",
"). c #F4F4F3",
"_. c #F8F7F7",
"`. c #F8F8F7",
"'. c #FAFAF9",
"]. c #FFFFFF",
"[. c #FDFDFD",
"{. c #FCFCFC",
"}. c #F7F8F8",
/* pixels */
". X   . .   .   X   X X X K s.C.).R.C g 3   X . . X   . . o d g e.'.R.g.a.0   . .   X   X   X o . X ",
"  .   .         .     .   L l.C.'.Q.C g 2         .   .   . d j p.].E.h.g.0   X         .         X ",
". X . X . O 7 8 *   - F H M.Y.Y.).!.0.4.h   X X   X . X X % H 6.B.(.Q.P.I.9.H x o X 4 9 1 . X o   X ",
"          o d j 1   1 a.l.Y.].).].}.n.l.b                 O 7.l.F.]._._.].A.h.H     d j 2         . ",
". X   % 1 4 A H V z C A.D.Y.(.Y.H.D.g.s.b   X X X X X O . % 4.s.v.J.K.Q.).H.F.8.1 3 C H k 2 1 O X X ",
"  .   < j c w.l.g.h.B.}.[.).].U.s.h.d.l.x                 O 7.l.d.h.v.).[.).].V.j c 0.l.L j d o   X ",
"  o   * j c 0.d.q.7.a.W.).W.'.F.7.7.3.3.f   . X   X   X X O F 3.3.7.y.W.(.W.'.N.j c 9.h.J j f O   X ",
"  X   < j n 0.h.H j S ~.`.^.].m.k g % . X         X   X     O . 7 j A W.`.^.].V.j c 0.h.J g d o   o ",
"  .   * j c w.h.H d S /.'.^.].m.j d O   .   .     X   .     .   3 j A Q.'./.].V.j v 0.h.K j d X   X ",
". X   1 j n 0.d.H g S Q.).Q.'.m.j g %   X   . .   X   X   . .   3 j A E._.Q.'.N.j c 9.h.J j d O   X ",
"  .   * j c w.h.J d S /.'.).].N.j g O   .   .     .   .         3 j A W.'.).].V.j v q.l.K g d X   X ",
". X   < j c 0.s.k.m.Z.W.).Q.(.U.m.j.h 7 *   X . . X   X . X 4 4 J N.V.Q.).Q.(.I.M.m.a.d.J j d O . O ",
"      & g v w.l.J.].'.'.].).].(.]./.V j 2         .   .   o d g f.]._.'.[.).[._.].'.v.l.H g 0 .     ",
"X 9 h V 5.4.2.1.B.}.~.W.).Q.(.Q.).R.V j 3 . . .   X   X   O d j e._././.).W.).W.).!.9.P 3.5.2.l h - ",
". L l.A.].Q.m d k.]._.(.'.).].).'.W.V d 3                 o d d p.]._._.[.).[.).[./.C d e.].Q.l.d.h ",
". K d.C.`.!.P A p.U.U.).(.W._.~.(.E.1.S q O % 2 2 2 1 - % & m A j._.)./._.W.'.R.K.H.K A j.'.R.h.a.h ",
"X L h.C.(.).Q.).r.j G W.`.^.'.^._.).Q.).8.f n w.y.w.a.1.f b J.).Q.`.).).`.~.].V.c m F.).Q.'.!.h.a.h ",
". L h.C.(.).).].e.l G ^.[.^.[.^.'.(./.'.r.z M u.x.g.x.6.l N U.'.^.{.(.).'.).].V.c m U.].^.'.R.h.a.f ",
"X L h.s.n.B.!.(.I.K.U.^.).W.(.W.).W.B.v.] ....*.*.o.*.O...X.c.v.F.`.^.~.).Q.).R.K.U.Q._.F.n.z.a.a.h ",
"  L l.s.d.z.Q.].).].`.`.[.).].).[.(.n.d.<.;.-.;.;.-.:.-.;.>.i.d.F.].`._.].).].(.'.'.(.].F.h.s.d.g.h ",
"X 9 h h h b n.G.U.(.W.~.^.W.`.V.Z D } ,.O.-.` u y y y R =.&.,.,.' Z P E.).Q.).Q.).W.G.G.6.f h h h - ",
"          O 9.d.H.]._.'.[.).].t.  + ` :.-.:.`         e ;.;.-.:.i   5 Q.].).].(.[.(.n.h.b           ",
"X o   @ * 3 9.s.B.P.P.W.).Q.'.e.  $ ) -._ W E M N M N B W ! +.-.i   6 R.).Q.(.R.U.K.g.d.V * * X X O ",
"      1 j b q.h.a.d.M.).[.^.[.t.  + | ;.i   7 Q.[.^.].f.  + ` :.p   4 !.'.).].P.s.s.a.h.H j 0 X   X ",
"  X   * j n a.v.g.d.v.).(.W.].k.* ; | ;.i   9 !._.~.[.f.  @ ) ;.a < g !.}.~.'.U.d.g.h.b.L j d O   X ",
"  X   1 j n U.(.A.a.v./.'.W.'.H.w.y.*.;.i   6 !.`.~.[.t.  @ ) ;.] p.d.~.}.~.'.P.a.h.Y._.e.g d O   X ",
"  X   < j n U.'.G.h.M./.(./.].U.d.x.*.;.p   w R.).E.`.u.X # ` ;.<.d.b./.{.W.}.U.h.n.R.}.e.g 0 X   X ",
". X   O % * C S k.E.S.G G S.'.K.a.u.*.-.` _ Q r q q q s _ _ @.-.} a.n.Q.).9.S 9.Y.I.2.G f % % X   O ",
"  .   .   o d d k.].U.v g S.].I.h.x.*.:.-.:.` .       e ;.;.-.:.<.d.b.(.{.1.d 1.].).V g 2         X ",
". X   X . X 2 2 V w.5.P P n.F.d.H D i i ^ -. .T I U I ( =.@.I i B G 1.A.G.8.K 3.r.5.w 2 &   X X   O ",
"                3 g m d.h.d.n.3.j d O   I :.-.;.;.-.:.-.;.#.,   3 j n a.h.d.n.4.j d %   X         . ",
". . . X   . o   1 8 h 3.4.3.3.S 9 7 O   t ( ^ #.-.$.-.| ( W #   1 8 g 2.4.3.4.S w 7 O   X X X X   X ",
"  .         .   .   % g j k j 8     .   .   : #.-.=.;.!     .   .   O g v j j w         .         . ",
"  .   .     .   .   % d d d d 7     .   .   : +.-.=.;.!     .   .   % d d d d 7   . .   .   .     o ",
"  X   .     .   .   . X O O X O     .   .   ; #.-.$.;.Q     .   X   X O o O X X .   .   .   . .   X ",
"      .         .         .   o         .   ; #.-.=.:.!         .   .     .   .     .   .         X ",
". X   X . . . . X   o . . X . X   X X   X   > +.-.$.;.W o . . . X   X X . X   . . . .   X   . X . X ",
"  .   .         .             .             ; #.;.=.:.!                   .   .         .         X ",
". X . X   . .   X . . . . X   X . O i a a a R #.-.#.-.W .   .   X   X X   X . X . . X . X   X X   X ",
"                .             .   $  .:.-.:.-.-.-.-.:.!     .   X                       .         X ",
". .   . . . .   .   o X . X   X   @ E ^ ` -.&.=.=.$.;.Q . . .   X   X .   X   X   . .   X   X .   X ",
"  .   .         .   .     .   .   . .   I -.=.=.-.=.;.!         X     .   .   .     .   .     .   X ",
"  .   .     .   .         X   . .   # $ T ;.=.=.-.=.;.Q     .   X   .     X         .   X   .     X ",
". X   X   . .   X . . .   o   . . $ ^  .+.-.=.=.-.$.;.W .   .   X   . X   X   .     X   o   . .   o ",
"  .             .         .       @ | :.=.;.-.-.;.=.;.!         .         .   .         .         . ",
". X . X   . . . X . X X . X . X o $ ) -.$.=.$.$.=.$.;.W .   .   X X o . . X   .   . X   X . X . . X ",
"  .             .         .       @  .:.-.;.;.;.;.=.:.!                       .                   . ",
". X . X . . . . X   o .   X . X o O i T I I E %.=.$.;.W . . .   X . X X . X   X .   X . X . X X . X ",
"                .         .                 ; #.;.-.:.!     .   .         .                       . ",
". .   .   . .   X   X .   . . X .   X   o   ; ) | {  .R   . X   X   X X   X . X . . .   X   X . . X "
};
