/* XPM */
static char *bW9udGFuZSslMjgxJTI5Lg__[] = {
/* columns rows colors chars-per-pixel */
"50 50 238 2 ",
"   c #010101",
".  c #02050A",
"X  c #030B0C",
"o  c #0A0A0A",
"O  c #050706",
"+  c #08120E",
"@  c #040D13",
"#  c #080A13",
"$  c #021312",
"%  c #0B1314",
"&  c #011916",
"*  c #0B161A",
"=  c #021A1D",
"-  c #0B1B1C",
";  c #04151B",
":  c #111718",
">  c #221C1E",
",  c #0F201E",
"<  c #051B23",
"1  c #0B1D23",
"2  c #0B1D2B",
"3  c #071724",
"4  c #111B25",
"5  c #151A26",
"6  c #0A2325",
"7  c #04242B",
"8  c #0C242C",
"9  c #0D292C",
"0  c #012627",
"q  c #142526",
"w  c #12242A",
"e  c #162B2D",
"r  c #042C32",
"t  c #0D2D34",
"y  c #0B2937",
"u  c #132C33",
"i  c #122D3A",
"p  c #152832",
"a  c #0D3134",
"s  c #04353C",
"d  c #0D343B",
"f  c #0C393D",
"g  c #04363A",
"h  c #133235",
"j  c #13333B",
"k  c #123A3D",
"l  c #1B343B",
"z  c #2D3635",
"x  c #413C38",
"c  c #1C433E",
"v  c #514234",
"b  c #053442",
"n  c #0D3642",
"m  c #033B44",
"M  c #0B3B44",
"N  c #023D4C",
"B  c #0A3C4B",
"V  c #04374A",
"C  c #123442",
"Z  c #143941",
"A  c #193A46",
"S  c #053E52",
"D  c #0A3D56",
"F  c #1D2C41",
"G  c #253C46",
"H  c #03424D",
"J  c #09434D",
"K  c #054447",
"L  c #144247",
"P  c #034452",
"I  c #0A4352",
"U  c #034A54",
"Y  c #0A4A54",
"T  c #03455A",
"R  c #034A5A",
"E  c #0B4B5B",
"W  c #09465A",
"Q  c #174A57",
"!  c #06545D",
"~  c #13515B",
"^  c #1D5054",
"/  c #27444A",
"(  c #3C4445",
")  c #285259",
"_  c #095564",
"`  c #185965",
"'  c #0F5168",
"]  c #225363",
"[  c #245B6B",
"{  c #2E5F70",
"}  c #1B6977",
"|  c #166471",
" . c #2B6469",
".. c #37666D",
"X. c #286975",
"o. c #386D76",
"O. c #2A747B",
"+. c #267279",
"@. c #36747B",
"#. c #37757A",
"$. c #495459",
"%. c #424C49",
"&. c #6C5B4D",
"*. c #675549",
"=. c #735C4E",
"-. c #725E46",
";. c #6C5C53",
":. c #725E52",
">. c #795E56",
",. c #5B625B",
"<. c #74634D",
"1. c #7B634E",
"2. c #696357",
"3. c #766355",
"4. c #796456",
"5. c #7A6955",
"6. c #756459",
"7. c #796659",
"8. c #756A5B",
"9. c #7C695B",
"0. c #766955",
"q. c #6F5F60",
"w. c #48767B",
"e. c #58767B",
"r. c #4C6A6E",
"t. c #686A68",
"y. c #7C6C62",
"u. c #756963",
"i. c #77736A",
"p. c #677775",
"a. c #7A7875",
"s. c #816B5D",
"d. c #816658",
"f. c #816E60",
"g. c #836965",
"h. c #837264",
"j. c #89766B",
"k. c #8C7B6D",
"l. c #85786A",
"z. c #927F6E",
"x. c #8C7D73",
"c. c #837D75",
"v. c #917E73",
"b. c #927F7B",
"n. c #74807C",
"m. c #938274",
"M. c #99877B",
"N. c #96897D",
"B. c #9A8B7D",
"V. c #92867B",
"C. c #8D8275",
"Z. c #A18E7F",
"A. c #2C7382",
"S. c #297582",
"D. c #3B7B84",
"F. c #387788",
"G. c #2D6E81",
"H. c #427A83",
"J. c #487A87",
"K. c #597C87",
"L. c #467891",
"P. c #647B84",
"I. c #717E86",
"U. c #807E81",
"Y. c #3B8593",
"T. c #488289",
"R. c #57868B",
"E. c #4A8896",
"W. c #588994",
"Q. c #51959E",
"!. c #688D94",
"~. c #7D9395",
"^. c #7A9999",
"/. c #6C8B92",
"(. c #6993A2",
"). c #7999A6",
"_. c #6299A5",
"`. c #9B8C82",
"'. c #988A86",
"]. c #9E9285",
"[. c #9B948A",
"{. c #889999",
"}. c #8E8E89",
"|. c #A78D87",
" X c #A29285",
".X c #A4938B",
"XX c #A8958A",
"oX c #A89B93",
"OX c #B09689",
"+X c #A5A19B",
"@X c #B2AA9D",
"#X c #8599A5",
"$X c #95A6AB",
"%X c #8CA9B8",
"&X c #99B5B8",
"*X c #8CADB3",
"=X c #B6ACA4",
"-X c #BAB2AB",
";X c #A2AEB4",
":X c #ABB9B9",
">X c #B8B8B8",
",X c #A7AAA7",
"<X c #8DA29D",
"1X c #CBBBB3",
"2X c #B7C4BC",
"3X c #CBC2BB",
"4X c #B1BCC8",
"5X c #9EC0C1",
"6X c #ABC2C6",
"7X c #BCC7C9",
"8X c #B6D2D5",
"9X c #BCCBE0",
"0X c #CAC7C9",
"qX c #D7CDC8",
"wX c #C9CDD4",
"eX c #C8D5D6",
"rX c #D4D8D8",
"tX c #CFCFCF",
"yX c #E3DDD6",
"uX c #D8E1DE",
"iX c #E6E4DD",
"pX c #D5DEE2",
"aX c #CADDE3",
"sX c #DAE3E6",
"dX c #E3E6EB",
"fX c #E8E9E7",
"gX c #F1EDEA",
"hX c #EDF2EF",
"jX c #F3F3EE",
"kX c #F5EEF2",
"lX c #EDF6F5",
"zX c #F5F4F3",
"xX c #FDFCF6",
"cX c #F5FCFC",
"vX c #FDFEFE",
"bX c #FDFEFD",
"nX c #F7F5F6",
"mX c #E7EFF3",
/* pixels */
"3.3.3.3.3.3.4.8.8.6.:.4.3.6.6.3.4.4.3.3.4.3.3.4.4.3.3.3.4.:.4.3.6.:.=.3.3.7.8.1.4.3.3.3.6.6.3.4.3.3.",
"4.4.4.6.4.3.4.7.3.4.4.4.4.3.4.4.6.3.4.4.3.6.3.3.3.3.3.4.6.7.6.6.6.6.N.y.4.7.6.3.4.3.3.3.:.6.7.3.3.4.",
"4.4.3.3.3.4.4.4.4.4.4.7.=.4.3.3.7.:.4.3.7.3.4.4.6.3.7.3.8.:.=.6.-.|.eX>Xm.<.>.;.4.>.4.4.6.4.4.4.3.4.",
"4.4.4.3.4.3.3.4.6.3.6.6.3.7.4.6.4.9.6.6.6.0.3.3.6.6.3.3.:.d.B.=X-X0X0X0XwX+Xi.C.7.:.4.4.4.6.4.4.4.4.",
"3.4.4.4.6.4.3.3.1.:.7.6.9.=.3.6.<.3.0.9.9.3.4.4.7.4.4.6.2.=X7XwXtXtX0X2X0XtX0X4X@Xy.&.5.4.6.4.4.4.4.",
"3.4.3.4.4.4.3.4.d.7.:.=.4.d.4.=.l.8.5.7.4.6.3.6.>.7.3.>.u.{.P.#X>X>X~.~.>X2X<XI.V.6.4.3.:.7.7.4.9.7.",
"3.8.6.4.3.4.3.8.5.=.y.v.7.*.7.-XbXqX3.7.4.3.7.3.4.4.4.s.>.6.p.e.K.K.K.P.P.P.2.4.2.6.3.>.4.7.:.7.8.4.",
"4.7.7.0.6.4.4.4.4.h.rXbXiX+X[.bXbXbX-X*.=.=.7.4.:.:.d.<.2.5.3.3.t.p.8.i.P.t.4.<.6.9.>.4.7.3.7.9.7.4.",
"0.5.9.7.3.3.4.3.*.@XbXbXbXbXcXnXxXbXbX>X-Xb.*.h.oX3.3.7.6.7.8.9.4.4.3.3.4.3.4.4.6.3.3.4.4.7.9.3.4.3.",
"8.7.>.6.;.C.iXc.].jXbXbXbXbXbXbXbXxXbXbXbXxX-XfXcX'.:.>.>.5.7.7.4.4.4.3.3.4.4.4.4.3.4.5.7.7.8.3.4.4.",
"9.4.d.&.=XbXbXkXbXbXbXbXbXcXcXcXcXbXbXbXbXwX~.}.}.i.6.6.5.9.7.4.4.7.4.6.8.6.4.8.4.4.7.9.7.0.4.3.4.4.",
"7.7.7.3.-XsXbXcXbXbXbXbXxXxXcXxXbXbXnX{.{.p.;.:.&.3.6.y.9.0.4.7.6.0.4.4.4.4.4.4.6.4.7.9.7.4.4.4.4.4.",
"3.4.:.9.:.2.2X8XpXmXbXbX0XdXbXfXsXeX~.t.;.7.1.7.7.5.1.>.7.3.4.u.4.6.5.4.4.4.4.4.4.7.7.5.7.4.8.4.0.7.",
"9.9.9.9.9.u.t.p.,.<XlXrXP.~.$X/.J.P.t.3.5.4.7.4.9.&.9.[.+X.X7.:.4.4.7.4.4.4.8.4.3.7.9.7.4.4.4.3.3.4.",
"v.l.h.f.&.6.>.6.1.y./.I.:.3.r.e.P.t.3.7.7.7.:.7.3.'.>XrXwX~.a.1.8.4.6.4.6.4.5.7.8.9.5.6.4.4.4.7.h.h.",
"x.x.z.l.m.C.x.v.z.k.v.v.c.v.m.l.4.7.8.4.4.4.7.;.@XbXhXbX7X(.r.4.4.4.4.4.7.0.7.7.7.4.4.7.4.4.7.h.].].",
"oXXX.X.X'.'.B.B.z.l. Xk.y.h.y.9.4.7.7.7.9.:.8.oXbXxXxXbX:XW.*X=X:.7.7.5.9.3.4.>.y.f.l.V.B.B.N.[..X.X",
"h.k.C.k.7.7.9.:.3.4.:.9.4.4.5.4.7.7.7.7.:.V.qXbXhXdXbXmX} F.*XE.[.<.9.6.9.<.j.C. X X[. XV. X X`.x.C.",
"v 5.3.3.4.7.4.9.7.7.5.3.3.4.3.4.8.4.d.4.l.iXbXbX:XwXbX8XS.E._._ &XXX*.y.g.l.[. X|.`. XXXm.B.k.f.7.3.",
"v 8.3.4.7.d.9.6.3.7.4.k.l.l.h.M.B.B.B.=XgXbXcXmXwXnXaXrX*X+.(.S.E.:Xb.g.V.]..X`.`. XM.x.9.9.9.1.4.4.",
"t.-X.Xz <.7.9.4.7.9.m.l.l.j.M. X XM.oXbXhX>X>XsXbX!.;X7XS.S.#XF.O.%XK.|.[.B.|.'.j.k.3.7.3.&.:.7.4.9.",
"c.4Xt.x y.s.4.8.4.7.s.3.4.7.4.y.6.x.fXbX7XsXrXbXiXX.4X7XS.S.O.E.) !.A.w.B.d.u.f.3.:.4.&.V.-X[.3.i.yX",
"x ,X%.}.u.4.4.7.5.3.4.4.4.7.s.*.oXnXbXlXsXmXnXbXaXw.uXeX+.A.J.Y.) a E.Y.,.0.3.4.y.v.k.`.nXbXbXyXrXbX",
"( $./.nXoX4.h.f.9.h.7.h.M.m.l.1XnXbXfXfX>XmXnXhXJ.$XbX^.F.A.@.F.+.G T.w. .8.d.l.=X.XM.qXbXcXbXbXbXbX",
"$X3 _.9X;X@XM.`.`.'.|.m.h.b.3XbXbXcXcXlXbXeXsX$Xw.dXbXR.F.+.R.).D.J.G # X...V.qXbX3XtXbXbXbXbXbXbXbX",
";X) Q.Y.).bX@XM.B.B.].j.@XfXbXbXbXzX=XkXdX!.W.#.eXbXeX#.F.O.R.).S.F.o.l #.X.Y.6XbXxXbXbXbXbXbXbXbXbX",
"[.K.O.).S.4X7XXX|.N.|.1XbXcXbXkXdXxX'.bX^.@._ F.bXbX;XF.G.F.#. .S.@.D.#.l 4 ] O.F.*XkXbXcXbXjXbXbXbX",
"$.[ F.).S.T.;Xn.V.=XfXbXbXbXeX!.t.C.;X4X#.} R K.bX;XR.E.| +.H.Y W T.H.W...5 e.D.#.X.R.6XcXbX*X4XcX7X",
"5 S.D.o.W.L.5X:X:XbXcXfXbXsX) #Xr.. R.F._ ` ` rX4XT.` | | R (.L.V [ W.o._ b A X. .@.X.o...^.p.u.P.K.",
"( +.S.F.F.F.T.sXbXeX<XfXzXK.{ w.#.G ~ ' ` E /.zXR._ _ _ W R ] X.P V o.D.H < < +.B V ' [ U d :.d.p.t.",
"$.+.G.K.H.w.p.$X%Xw.<X..` ~ J.P ^ 7 R [ | N K./.` ~ P U E R P } ! U m ' Z & = C * N R Y U U G 2.s.v.",
"/ H.A.R./. .` ! _ E U T ~ [ D _ 2 m ! ~ P [ ~ U U P H Q Y P U ' ' D U S V _ r . s E S B N N U H l.OX",
"^ Y.L.[ M J ` Q U W R Q ~ R N 0 7 ! S m ~ E P T N H Y I P I N U E H U U N N M r b E P B d b P P L 2.",
"^ [ ` U s t Q P I R E M 1 N ! < 7 H b Q ] I U H P N Y J P N N P J N H P N m V j w E S H K M M N P V ",
"^ B r i s 0 N U W J A Y 0 # V V 8 m Q Q I U S H S H P N N S H H H J H H U S J K q K N H H H m n S H ",
"D U < 3 b 2 b A M M D S N $ @ N 3 A Q H K H N P H U H B N H P K U B S P P S Q Q a d Y H H D P H n K ",
"! r 6 f m < k i 9 Y U K U U ; & 0 U S H J H H H V J H H P H J M B H H N H Y Y r @ 0 J H B n N I J U ",
"t n 7 r ; X w w 7 B V J s n n . b N I H P U b M d n m H H H V C i M f d j L k @ 2 b d K d p h g M b ",
"9 7 r 2 * f 3 X t B I C 2 1 h w s A J H n B F a j j d M H B d j d d j j j t h u C m 3 9 # r Z h f < ",
"n 3 * 9 y N K $ & P K f u @ - 7 g I P H Z Z Z d a h j n M M j d i j u u j i j j a j 2 ; . s P B k 2 ",
"d j = C X X k 3 X Z n f u Z < o j i j A L N N B M n n n d j i n j j j s n C n n n d C * % j J T r ; ",
"f l % j # - f 9 < B M M M J V 0 M n C A Z j t k j j d d k h h a j t d k d d M d s d M 7 2 f 9 < / t.",
"C 8 + h 4 e d h 1 Z f t k b M r j Z G Z t j j a j a j h 8 l a a d d d j j i i j h h k j * e   %.lXbX",
"j a q k 9 < < d % 8 0 6 h 2 9 - l l l j j d j j t d j w ; l i l j d d p j j j j j u X @ X e ( nXbXlX",
"; G 6 t d X p Z 9 1 8 u d 8 4 # w k j t j d d j l Z k h 9 0 j G G a i 2 h a 9 h < p h $ z > rXeX>XbX",
"w 4 9 w p % h d h 1 4 i M j 1 + j j j 8 4 e q X X @ X % X @ 6 l d h 9 @ 1 9 6 8 , @ u / :Xa.p.~.$.%.",
"q . @ % @ X 6 1 $ O O % 6 h , : h 6 u w $ . O             o X - k 1 @ X # o . .   .   ( z % ; .     ",
"- O     w +             O 2 : O o     $ $               o o   . = #                   X X   O       ",
"%     . X o       O     O o O                         O O       % O                 O o O       .   ",
"    O * $             O o O                           O O       $ O                 O o         X   "
};
