/* XPM */
static char *_d51f297eeac4732dcc8b3b3975a7c15BtBv0slmb7F4Bx83[] = {
/* columns rows colors chars-per-pixel */
"50 50 235 2 ",
"   c #201C1B",
".  c #28231D",
"X  c #362A1A",
"o  c #3C3219",
"O  c #1E262B",
"+  c #1C2A2B",
"@  c #1E2531",
"#  c #1E2B34",
"$  c #1A302E",
"%  c #2B2623",
"&  c #2E2B25",
"*  c #24252B",
"=  c #2B262B",
"-  c #252B2D",
";  c #2C2B2C",
":  c #262624",
">  c #342B23",
",  c #3B2D24",
"<  c #322D2B",
"1  c #3B2F2A",
"2  c #322522",
"3  c #2C312C",
"4  c #33322D",
"5  c #3B322D",
"6  c #3C3328",
"7  c #232532",
"8  c #242B33",
"9  c #2B2D33",
"0  c #2A2D3A",
"q  c #242D3B",
"w  c #322E32",
"e  c #2C3134",
"r  c #2C323B",
"t  c #263338",
"y  c #333335",
"u  c #3B3433",
"i  c #3D3935",
"p  c #32353A",
"a  c #39353B",
"s  c #36393D",
"d  c #3B3B3C",
"f  c #363835",
"g  c #151D28",
"h  c #422C1E",
"j  c #48311D",
"k  c #4A3524",
"l  c #43352C",
"z  c #4C3A2C",
"x  c #453527",
"c  c #533C2A",
"v  c #583A29",
"b  c #453B34",
"n  c #4B3D34",
"m  c #443C3A",
"M  c #453735",
"N  c #533D33",
"B  c #563D35",
"V  c #422F24",
"C  c #623D27",
"Z  c #3E403F",
"A  c #61401F",
"S  c #58432C",
"D  c #4E4234",
"F  c #45413D",
"G  c #4B423D",
"H  c #4E483A",
"J  c #554234",
"K  c #5C4334",
"L  c #53443B",
"P  c #5C4B3D",
"I  c #5C453A",
"U  c #63412C",
"Y  c #644C3C",
"T  c #6B4C39",
"R  c #674735",
"E  c #714B39",
"W  c #6C523E",
"Q  c #62573A",
"!  c #765539",
"~  c #292F41",
"^  c #2F3842",
"/  c #333640",
"(  c #353A42",
")  c #3B3D44",
"_  c #383E4A",
"`  c #433E44",
"'  c #3D4146",
"]  c #3D434B",
"[  c #3C4350",
"{  c #444344",
"}  c #4B4542",
"|  c #4C4A45",
" . c #43454B",
".. c #45494D",
"X. c #4B4A4C",
"o. c #484649",
"O. c #534C44",
"+. c #544D4B",
"@. c #584B46",
"#. c #54524D",
"$. c #5B534B",
"%. c #595143",
"&. c #444651",
"*. c #454A52",
"=. c #4B4D53",
"-. c #4B4E59",
";. c #444958",
":. c #524D52",
">. c #4E5155",
",. c #4E535B",
"<. c #4F5857",
"1. c #545454",
"2. c #5A5553",
"3. c #5C5955",
"4. c #53555B",
"5. c #55595D",
"6. c #5B5B5C",
"7. c #59575B",
"8. c #6A4E44",
"9. c #6C5443",
"0. c #62544B",
"q. c #695747",
"w. c #7A5A45",
"e. c #775847",
"r. c #635B54",
"t. c #6C5B53",
"y. c #625C5C",
"u. c #685753",
"i. c #765D53",
"p. c #724F46",
"a. c #7C614C",
"s. c #796248",
"d. c #65625E",
"f. c #6B645B",
"g. c #7B6353",
"h. c #776858",
"j. c #7C7259",
"k. c #4D5565",
"l. c #555962",
"z. c #5B5D63",
"x. c #545966",
"c. c #605E61",
"v. c #5D6164",
"b. c #5D626B",
"n. c #5A6474",
"m. c #636363",
"M. c #6A6563",
"N. c #63656B",
"B. c #65696D",
"V. c #6B6B6B",
"C. c #696966",
"Z. c #726B65",
"A. c #746E6B",
"S. c #796B65",
"D. c #7A736B",
"F. c #656B73",
"G. c #6B6E73",
"H. c #676C78",
"J. c #6D727A",
"K. c #6A7174",
"L. c #747373",
"P. c #7B7672",
"I. c #7C7A75",
"U. c #73767A",
"Y. c #747A7D",
"T. c #7B7C7B",
"R. c #787778",
"E. c #6F706E",
"W. c #83634C",
"Q. c #866A57",
"!. c #8E745F",
"~. c #87786B",
"^. c #94786A",
"/. c #827A73",
"(. c #8A7D74",
"). c #827E7A",
"_. c #887A76",
"`. c #89706A",
"'. c #7E827D",
"]. c #98805E",
"[. c #988767",
"{. c #83827D",
"}. c #8B837C",
"|. c #92857C",
" X c #A79076",
".X c #6B7482",
"XX c #757982",
"oX c #7B7B83",
"OX c #777C88",
"+X c #817F80",
"@X c #7D8184",
"#X c #7D828A",
"$X c #7E8490",
"%X c #848483",
"&X c #83848A",
"*X c #8C8C8C",
"=X c #898886",
"-X c #948B84",
";X c #938E8A",
":X c #9A8D89",
">X c #8C918B",
",X c #98938C",
"<X c #848993",
"1X c #8A8B94",
"2X c #8B9397",
"3X c #929193",
"4X c #999391",
"5X c #93949A",
"6X c #9B9A99",
"7X c #928F91",
"8X c #A49B94",
"9X c #A69C97",
"0X c #A1998C",
"qX c #A8A39C",
"wX c #B0A69D",
"eX c #999AA2",
"rX c #A19FA2",
"tX c #9DA4A8",
"yX c #A4A5AC",
"uX c #A8A7A8",
"iX c #B3ABA7",
"pX c #B5B2AC",
"aX c #A8AAB4",
"sX c #B0AFB5",
"dX c #B5B7B7",
"fX c #C4BCB5",
"gX c #C4C4BB",
"hX c #AEB6C1",
"jX c #B8BBC4",
"kX c #C0BECC",
"lX c #BCC0C3",
"zX c #C2C6CC",
"xX c #C6CCD2",
"cX c #DBD4C8",
"vX c #E0DACE",
/* pixels */
"# q ; 5 n Y q.0.m p 0 @ 7 t - - 3 t # - t r 7 ) ,.F.,.x.z.XXoX-.k.'.@XtX&XC.}./.-XwX|.qX,X6 | T.X. .",
"q q ; < l n N n M :.&.&.8 q + e 8 t 8 8 ( ( ( -.b.( &.N.1XOXJ.XXH.'.J.Y.*X>X/.-X8X-X}.t.@.> %.3.a ` ",
"8 t d } O.n , l M { ) / ] *.] t e # O ^ ] # 8 ] x.-.b.N.F.XXN.l.v.x.K.'.pX*X8X8X8X(.0.D , u.` 5 y d ",
"t 8 s i G n , L } o.a ' ..>.*.] 8 r r ( *.( &.-.l.l.F.G.7 =.oXl.'.K.#X2XL.qX8X}.P 0.@.Z.@.8.` w y 3 ",
"t - 3 : 4 i 6 #.#.F a X.4...] *.e ( r r *.*.l.4.r ) _ z.-.) z.-.J.@X$X'.=X-XP.~.B M @.`.2.M +.= 9 ; ",
"8 8 3 3 3 4 4 F i 5 | | 5.' ' ] ..[ r r ( ( ] p 9 7 ) oXoXoXeX+X2X2X#XB.).iXA.u.0.%.n +.M ` a = = 9 ",
"- - - - $ & 3 Z 4 y i #.1.6.0 0 [ <.*.' ( ) ( 8 7 / -.OX+Xl.x.OXY.F.v.5XC.-X=XB , $.m M u w = w w < ",
"e 8 - 3 3 + & 3 4 & } d.7.>.0 ` ' ..*.*.s t e s 7.b.-.x.+X/ / F..Xx.<.U.+X6X}.@.m u.5 < = 7 0 w & < ",
"9 w - - e 3 - ; 4 < F y.V.:.( _ ( 5.v.-.p e ' =.*.&.8 4.Y.4.( 5.H.F.0 5.&X).:X@.m G 5 = 9 ; t 9 4 > ",
"; 9 9 e y e - 3 & ; } c.7.-.&.` s s s ..5.=.s p d c.z. .Y.%X4.N.=.H.b.+XuX7X=X` < 4 = 3 e 7 9 9 1 < ",
") s y p d i < & < = ; o.X.o. .<.- >.9 =.X.' ( 9 ) *.N.L.z.F.z.l.J.J.oX%X7X=XD.a & < ; & - ; p 3 < 4 ",
"` d ; ; 4 < & % 2 y = w &.1. .' r <.' X.,.) 5. .s ' ..N.5.B.G.v.b.N.L.=.U.+X2.= = < < ; 4 4 e & ; < ",
"9 9 & % X > 6 1 < = w p ) =.<.| =... . .p ' 5.z...1.l...5.4.G.Y.v.>.L.C.@X3X2.& < < % 2 u 1 . < ; 3 ",
"9 - & 6 D P %.n O.< * ; ` X.#.#.f p >.' s e >.' s ' 4.>.) * v.L.K.C.C.<.T.'.F y . 5 F b n n , > ; ; ",
"9 : 4 L q.q.Q z 1 6.N.` ; d #.#.f ) p { d ( 1.p - >.X.>.e - =. . .C.'.V.R.T.| i } } 0.u.t.i.I 6 ; 8 ",
"; & n q.q.K z X m A.+Xl.: | C.3.X.( d o.{ e s e 9 ' m.5...X.6.7.| Z.{.>X{.3.1.4XiXt.L q.g.Q.s.P ; 8 ",
"X 6 J R B k V u 2.a - < . F 4XA.3.} a d Z Z  .' s * ` :.=.7.X.m.F D.,X0XZ.f ..=XrX7XI v W.w.W.g.} * ",
"X k K R C c 1 M s - w f ; y @XsX*XC.i 6.Z ' >.Z a f w y } } 2.#.d.}.pXdXd.- 9 ; y 2.h.R v E W.g.t.f ",
"X z B v N V < < - y a 7 e 7 ^ #XuX{.{ d.| o.C.Z o.w 2.` F 1.3.'.}.gX7X>.8 q 0 0 : 6 S.i.j R W.i.t.F ",
"b J B c k h , 5 w w a w * e # t L.pX{.V.| 2.| u u O.Z.d.m m D.;XgX6X' g # t q r i . 6 L j C w.p.8.n ",
"M } B z k o 1 l 2 m 1 % 4 3 $ $ : d.,X).X.F | 3.$.} @.Z.D.$.;XuXdX| + t s $ + 3 i X X i j v E ! 9.H ",
"M B n k V h , 5 1 } M > : O t $ e % $.6Xd.P.#.d.3.| Z.G {.9XpXdXP.4 3 $ $ $ : 4 F > i , k c C ! s.8.",
"n J c c k h , l < +.:.= 9 9 # q ; = < y.-XqXV.2.$.G Z.3.).qXpXwX#.& e 8 9 9 - 4 #.X F 6 c R R w.R v ",
"L c c v k h V M M y u.5 % 5 * 9 d m < :.C.>X,X{.A.5 F P.4XfXdX{.< } d . ; % & r.2.6 %.x z R E ! w.W ",
"J Y U U C v X L $.X f.h.o o X H :.; 3 Z <.'.6XqX'.& d =XuXuXR.7.9 } j.S o o Q [.B ` i.k S R U ! s.W ",
"z T S C U C J N $.%.6 j.[.j.g.8.i 9 o.X.X.B.&X3XR.; = L.3X=XK.C.` 5 g.[.]. X XQ B +Xu.B ! E ! ! s.W ",
"J Q R E E v K @.l @.D z %.q.z c w y <.4... .b.oX6.>.y ..'.Y.U.U.d.G P s.].].Q %.`.i.n I E E e.w.e.Q ",
"l D Y U R p.p.B L 6 L L c B B ` u ) 6.5.=...4.b.l.&XU.` B.U.&XY.'.O.0.h.! ! a.[.Q.I p.p.R w.e.p.q.H ",
"- l 0.Y E E T 8.8.I K S P P L X < ) 1...;.l.4./ &.<X5X=.>.F.J.B.>XL.D Q W.Q.Q.p.8.e.g.8.W.W.W.E h.$.",
"7 y } i.p.v R 9.!.w.9.R W z o F } 2.m.5.-.k.-.7 ;.aXyX-...G.v.K.>X6X3.D c E Q.Q.a.Q.i.Y i.e.W.e.0.} ",
"q r = G q.w.g.9.9.R C B n L C.d.v.d.v.v.` ;.` 7 x.kXsX&.' B.<.B.@XtXuX+XA.`.i.W.W s.!.s.e.Q.Q.i.m < ",
"~ 8 - u H t.t.g.p.p.v K t.A.U.'.C.3.#.3.` k.` 7 -.5XtX .p 6.K.v.%XtXsXiXiXiX Xw.C T s.Q.i.Q.`.u.u * ",
"_ ^ r ) { m O.(.(.g.I J @.b F #.$.$.O.<.=.<.] @ [ $X<Xr ( z.m.B.T.>XpX8X0X^.^.W.E ! Q.`.^._.t.` w 8 ",
"[ # t r =.B.6.f.f.h.q.0.x > & > F %.3.6.*.<._ # [ $XOX( r z.G.K.>X%X}.D.~.q.! Q.W.!. X|.(._.2.9 O ~ ",
"' r e 7 8 U.9X{.r.%.q.~.(.~.$.% D H 2.m.<.>.r # ;.OX.X[ 8 4.U.T.>X=X{.f.D P Q h.`.^.(.~.A.m.:.-..XOX",
"<.K.p 8 - b.5XR./.r.t._.wXiX6XZ.#.%.| #.| { r # k..Xn.[ + X.m.T.'.'.|.'.H %.q.q.Q.(.(./.m.>.z.<XtXOX",
"OXeX4.* t 7 p d M.%X9X9X4X}.-X-XI.I.A.d.#.} e q [ n.n.^ # ^ { V.K.'.{.-X4XwX0X].P.~._.=X3XtXhXaX_ 7 ",
"Y.G.Y.7 9 q 9 ' m.*X-XI.M.f.r.d.P.I.}.-XA.m : * ^ k..X^ q / H P.>X,X8XfXcXvXcXgX0XD.R.7XdXxXhX.X~ ( ",
"z.) G.r 8 t 8 O ( C.M.+.b u 5 u ..#.Z.|.-Xf.F y ~ n..X_ ~ 5.I.:X,X4XiXfXqX-X8XwXiX8XiXdXkX5Xk.@ * ( ",
"o.p ' _ ( - 0 t  .7.5...} u u < & i H 0.|.|.r.: ^ H..X[ -.;XiX:X/.:X0X(.S.h.$.f.I.,XrXeXjX.X7 ~ 0 7 ",
"s 7 - 4.*.q 7 / r ( ' 9 z.3.y u w < > n g.~.}.H w &.z.-.=XiX9X(.S.u.L . 1 H f.} m 3.R.eXrX-.7 ~ 9 q ",
"'  . .( d 0 0 @ r q 7 ,.eX:.M.A.m u % b S.S.|.Z.o. .-.l.;X8X:XS.$.l 2 5 } O.C.{.{.%XR.B.1.) w 7 0 -.",
"(  .X.0 r ( ( / *.r r J.6X&.uX9XV.u 5 b q./.}.-XP.&.-.c.3X}.S.%.2 m #.#.| i F '.R.V.<.v.l.*.( ( <.F.",
"*.] e 7 p { / &.x.k.N.eXeXN.rXG.V.1.} G > D r.D.A.+.2.L.;X/.t.r.y.C.3.| 2.C.X.m.@X@X#X6.-.eXF.` <XtX",
"] / r y ) ` w ` .XOX<XaXaXoXR.7.L.4.;   & < | 1./.A.:.D.r.@.$.#.:.X.p 3 >.V.) <.F.1XzXjX7XxXdXaXzXjX",
"r @ a ( &.` a =.OXeXOXeXeXF.l.p z.) y p e 4 +.V.%X3.+.} m 3.} | 7.1...p >.G.' ..2XdXyXsXdXlXxXzX<X&.",
"*.@ 7 p X.` ` 4.1X+X` n.<XOXU.z.-.a t v. .* =.| 1.u.+.2.M.| y.d p -.K.l.U.1XoXoXyXsX&X7XuX5XuXyX) @ ",
"r 9 p X.` ` ` 7.OXeXx.oXaX5X+X7XB.8 O ] <.e p = . +.A.A.| m } 7.{ ) z.4.H.oX1XaXB.oXoX6X5X=XsXG.0 q ",
"*.) z.6.+.m M u V.z.&.7X:X-X4XyX<Xb.z.OX.X' s d 9 | y.u u X.G.y.M.-.` b.,.) 4.J._ &.eXsX3XL.5.../ 7 ",
"7.o.5.7.X.} m m 3.X.m L.~.D._.7XOX2XhXxXyX[ y o.| } u.a 2.A.M.a ` +. .z.N.N.N.F.J.H.sXaXoXN.N.z.) t "
};
