/* XPM */
static char *ZGIzNXFoai1lYTcyYzUxZC1iMGI3LTQ1NTUtYWMzMy0zNTkyYTU1NGZiNzc_[] = {
/* columns rows colors chars-per-pixel */
"50 50 146 2 ",
"   c #070006",
".  c #0D000D",
"X  c #12000F",
"o  c #0F0010",
"O  c #130312",
"+  c #180714",
"@  c #170815",
"#  c #1A0A16",
"$  c #1D0D19",
"%  c #1D101D",
"&  c #200F1A",
"*  c #23131D",
"=  c #241620",
"-  c #261A23",
";  c #2A1C25",
":  c #2B1F28",
">  c #2C2027",
",  c #2D232B",
"<  c #2F282F",
"1  c #30262E",
"2  c #31292F",
"3  c #332C33",
"4  c #363136",
"5  c #383337",
"6  c #373338",
"7  c #39363A",
"8  c #3D3B3D",
"9  c #403F3F",
"0  c #3F403F",
"q  c #40403F",
"w  c #3E3E41",
"e  c #413F42",
"r  c #3F4042",
"t  c #404345",
"y  c #404244",
"u  c #434345",
"i  c #424444",
"p  c #434444",
"a  c #424544",
"s  c #434545",
"d  c #434645",
"f  c #414446",
"g  c #414547",
"h  c #434546",
"j  c #434646",
"k  c #434647",
"l  c #434747",
"z  c #444646",
"x  c #444647",
"c  c #444747",
"v  c #464647",
"b  c #424343",
"n  c #444847",
"m  c #444847",
"M  c #434648",
"N  c #434748",
"B  c #45474A",
"V  c #46464A",
"C  c #444649",
"Z  c #434849",
"A  c #454948",
"S  c #454949",
"D  c #454A49",
"F  c #44484A",
"G  c #44494A",
"H  c #44494B",
"J  c #46494A",
"K  c #47494B",
"L  c #444A4A",
"P  c #454A4A",
"I  c #444A4B",
"U  c #454A4B",
"Y  c #444B4B",
"T  c #454B4B",
"R  c #464A4A",
"E  c #464A4B",
"W  c #464B4B",
"Q  c #474B4B",
"!  c #464C4B",
"~  c #474C4B",
"^  c #474A4D",
"/  c #454C4D",
"(  c #464C4C",
")  c #464D4D",
"_  c #474D4D",
"`  c #474D4E",
"'  c #474E4E",
"]  c #454A4A",
"[  c #48494B",
"{  c #48494C",
"}  c #494A4D",
"|  c #484B4D",
" . c #484D4E",
".. c #494D4E",
"X. c #494C4F",
"o. c #484E4E",
"O. c #484F4E",
"+. c #494F4F",
"@. c #4A4E4F",
"#. c #494D4D",
"$. c #47504F",
"%. c #4C504F",
"&. c #494F50",
"*. c #4B4E50",
"=. c #4A4F50",
"-. c #514F50",
";. c #4A5050",
":. c #495152",
">. c #4B5052",
",. c #4D5153",
"<. c #4C5252",
"1. c #4E5355",
"2. c #4E5455",
"3. c #4E5656",
"4. c #4F5757",
"5. c #4D5353",
"6. c #515756",
"7. c #505757",
"8. c #575756",
"9. c #525555",
"0. c #525857",
"q. c #515758",
"w. c #525758",
"e. c #505858",
"r. c #535B5B",
"t. c #535A5B",
"y. c #535C5B",
"u. c #565C5B",
"i. c #545B5C",
"p. c #545C5C",
"a. c #555D5D",
"s. c #535B5B",
"d. c #5A5D5D",
"f. c #5C615F",
"g. c #586060",
"h. c #5C6363",
"j. c #5A6463",
"k. c #5B6363",
"l. c #646462",
"z. c #636865",
"x. c #656B69",
"c. c #6B6F6B",
"v. c #6B716E",
"b. c #767975",
"n. c #767B76",
"m. c #787C77",
/* pixels */
"c ( ( 4.p.R R ( 4.f.R R ( 4.a.R R ;.e.y.R R ( 4.t.R D ( 4.a.R L ( 4.f.D ( ( 4.p.R R ;.4.p.R ^ R 4.y.",
"8 b q b ( 9 b b b ( w r 0 b ( 0 r R r L 8 b b b @.8 0 b a ( 8 q b b ( w b b b ( 8 b R b R 8 b b r ;.",
"7 b q b b 8 8 8 b b 7 a r a b 8 0 7 b b 8 b q b r 8 b q q b 8 8 8 a b 8 b b q a 8 0 7 b b 7 q w q a ",
", 4 3 7 8 1 3 4 7 w 4 3 1 7 8 5 4 3 7 8 1 4 3 7 8 1 4 3 7 8 2 4 3 7 w 3 3 1 7 8 6 3 4 7 8 3 4 3 7 b ",
"B 4.( r L @.q.@.b R @.;.^ d R ;.7.@.r R ( 1.@.b M R 4.{ y R &.q.@.r R $.1.v b R ;.t.$.b R @.4.@.r R ",
"y $.^ 0 d n ( M 8 R L R d 8 d d ( d 9 n R R c 8 d d ( R 8 n R ( R 8 n R R c 9 v n D n 8 M R R d w d ",
"q b 8 4 a D b 8 9 8 8 d w 4 a R d r b 8 8 a w 4 b b a 8 4 a R r 8 e 8 8 b w 3 b R q r 0 8 8 d 8 4 b ",
"7 8 7 1 3 7 r 8 7 3 7 w 6 , 3 7 8 7 4 2 7 8 4 2 3 4 8 7 2 3 5 b 8 8 3 7 8 3 1 3 7 r 8 6 1 7 b 5 1 4 ",
"w d M ^ { > > , : ; 2 3 4 < > : 7 w 6 4 w d y B @.w b R { { ; % = $ % B y u 8 7 1 > 1 ; - : 3 2 ; ; ",
"q c d R 7.3 3 3 7 3 , 3 4 7 3 6 y.a.j.1.w c d R 4.y c $.( &.; ; > * @ B t.h.c.b.3 2 3 7 2 1 q a b 1 ",
"8 a b 8 y 2 > 3 3 3 , 3 3 3 < 7 D @.4.t.8 b b 9 y 8 a q q y , 3 : > = 6 b 9 9 8.3 > 2 4 4 2 n ( ( %.",
", 5 4 8 w ; ; = ; ; = : ; , ; 4 b r b R 3 4 4 8 8 7 3 3 8 w , : > ; $ , 8 4 8 c 1 ; * ; ; - 7 7.z.b ",
"8 b 8 w y y B 8 4 7 8 e 8 5 7 3 8 8 b q w B y 8 d r B d w d w e 8 7 4 > > > , 7 9 e 8 4 7 3 , R 8.3 ",
"R 4.<.a R @.4.@.d ;.;.5.@.d R > > , 1 4 @.<.@.b R R 4.;.r D ;.1.@.b ( w 3 2 3 7 c 9.*.u y d w 7 6 7 ",
"8 a w 5 y R b w 8 b 8 b 8 7 d 3 2 3 , 3 9 b 8 7 r 8 a r 8 b 8 b w 8 b d R w q p 8 b e b 3 1 ( w 6 0 ",
"8 q 7 1 4 8 q 8 7 3 7 a 7 , 5 7 0 7 7 1 8 n 8 3 8 8 q 7 7 3 8 d w 8 4 7 y 7 5 5 8 b 7 3 - , r 7 7 4 ",
"7 w 8 7 w 7 w b 8 8 8 w 8 7 w 7 r b 7 7 2 ; ; = - 7 r 8 8 7 2 2 3 1 , 7 r w w w 7 w w 6 8 7 w r w w ",
"d R R 5.i.M d R <.a.B n ( ;.i.B R ~ @.a.- * = $ O w R ;.4.4.> 4 8 8 , 9 R R 5.a.B R @.( a.b d ^ &.p.",
"7 b 8 q M w b q 8 M 8 b b 8 d 8 b 7 7 R : 1 1 > * 6 a a 8 a | $.D ~ 4 7 b q q d 8 b 8 7 R 3 4 b w R ",
"4 8 8 r w 4 7 7 9 b 5 8 8 b b 7 8 7 d b 3 , : > * 6 8 6 b 8 e a.t.~ 4 4 7 7 q q 7 7 7 y b 3 3 3 8 b ",
"3 7 6 7 e 3 8 7 6 w 6 7 1 1 5 3 3 , 2 4 > 3 2 * % > > 3 8 b - 8.-.7 < 4 7 7 6 b 7 e 6 7 r 3 3 4 7 B ",
"( t.<.L R <.a.<.d B B t.B > 1 > - * * > 7 @.7 . o o . > D D 1 3 8 4 8 $.i.7.d R ;.p.<.a ( 4.7.7.;.k.",
"0 n y 8 c y d w b R w a w <.D 8 1 * - 3 7 b 3 . o O . - 9 c 8 > 4 q b 9 M y 8 c d d w 0 d b b d 0 ( ",
"9 a 7 3 8 c d 8 R b b a 7 B D 8 3 & * > 5 b 4 + o . X : 3 8 q b 7 4 3 e y w 3 w R b 8 8 7 8 a b 8 b ",
"6 8 7 3 4 3 6 7 7 3 w r 4 7 d 7 : $ * 1 2 5 3 = % % ; > 3 1 6 w 4 3 2 2 7 6 2 , 3 7 8 4 3 6 7 w 7 c ",
"y L @.4.4.3 e R ^ w w ( 8 , 6 - $ 2 { 7.> : 1 1 > b R ( <.7.B d ( <.t.2 ; 1 ; * O 8 ;.<.a.L L @.q.h.",
"8 b n R t.L t.a.j.i.7 d L 4 8 # * > 9 1.3 3 4 5 4 5 a c R t.9 b b b ( B -.8 4 > $ 7 b r @.w y d b <.",
"8 8 8 a <.8 r d ( q.8 d d a r - : 3 b v 1 ; 1 2 1 8 b 7 d <.8 8 9 b w 8 7.9 7 : O , w b b 7 d d 9 y ",
"3 2 3 7 r 7 e 0 q d 4 3 3 5 8 - ; 2 9 4 ; , - = : 3 < 3 7 y 3 3 3 5 8 3 d b 1 4 % O 6 6 w 3 4 3 7 b ",
"^ <.^ d d 3 7 4 8 0 @.1.8.[ [ | v v 8 B R 7.9 + $ $ O , R d M q.| b R 1 4 7 r 4.6   , L L @.4.@.y R ",
"d @.^ r d : ; > ; 3 R R | ~ d.f.b.d.8 R R ~ 7 - , > $ - c w 7 ;.| 8 n 8 3 R b a d O - r c R R d w d ",
"0 b 7 4 b 7 4 4 3 4 8 p 8 8 8 9 b 9.q 8 8 c 7 < , ; ; ; b , , L b q 8 8 c 8 8 b r % = n 8 8 y 8 4 b ",
"7 8 6 , 3 7 b w 6 3 7 9 7 3 6 6 y b 3 1 4 9 4 ; > > = * 4 ; 2 8 7 4 , 7 b 4 4 7 < y 2 4 1 7 b 4 3 3 ",
"w d d ^ { : : , ; - 8 c 7 ; : : , w | | y y d B B : - - : > 9 y R *.{ - , 4 3 , 3 ;.4., # : 7 8 7 4 ",
"8 d M ( 9.3 3 3 4 3 9 c y 8 3 3 7 b D t.u b c D q.3 3 4 7 3 8 c d @.t.2 5 c R 2 3 R 4.d.$ 7 y.a.k.4.",
"8 b b 0 b 1 1 2 3 3 5 b b d R 8 a b 0 b 8 b q 9 u 2 > 2 3 3 5 n R 8 b 6 n b <.4 7 c @.9.% 7 D @.7.a.",
", 5 4 8 8 ; - - > > 3 w 6 8 w 3 4 3 8 8 3 7 4 8 9 : ; = - : 3 7 4 8 8 1 0 7.h.2 8 R 4.7 * 4 q q w @.",
"8 u 8 8 d y { 3 $ % * % , y y y { y w B 8 y y 8 y 8 u e 5 4 7 4 7 w r % 2 b { , 8 L ( > , 4 8 8 b d ",
"R 4.;.a R @.e.w * ; - O ; ~ R @.4.@.b R c 4.7.b B D 4.t.8.h.z.b.d.8 R 4 ; 3 7 > 8 b 6 , @., , > , 4 ",
"8 d r 5 d M d 4 > 2 > ; ; 7 y M b w 8 9 7 e w 5 b 9 b w 8 b b 9.8.8 a b 5 > ; , 4 7 , w d 3 1 3 > 3 ",
"8 b 7 3 4 w b 4 > , ; * * 3 4 8 b 7 7 4 w c 7 3 7 8 r 7 7 7 7 b v 5 2 8 p 4 + % > 3 , 8 6 7 r 7 7 3 ",
"7 r 7 7 w 7 8 w 6 7 3 3 , 8 w 7 w r w w 2 1 3 > , 7 r 7 ; 2 , 4 e 8 7 2 2 > * + 3 6 4 3 3 7 r r 8 7 ",
"a R R ;.i.B d R 4.g.B R ( 5.i.B d ;.<.4.> 4 9 5 > b R r 3 > , 3 d 4.p.1 7 8 5 , <.a.h.x.c.c L R 5.p.",
"8 0 b 8 M 8 b b 9 y 8 b q w M 8 b d 8 b ~ $.R | 4 7 b b L M 7 d b 8 d 6 a A L d 7 B ~ -.l.b 8 b 8 R ",
"3 8 8 9 w 4 7 7 8 b 6 8 8 q b 7 7 4 b w 8 p.t.@.4 3 8 7 b b 6 7 7 q b , r 4.f.d 4 8 6 8 v 7 9 8 8 d ",
"3 8 6 7 y 3 8 7 7 r 7 7 3 7 y 8 7 7 7 b ; 8.-.7 , 3 8 6 7 w 7 8 4 7 b > 1 @.l.4 ; , 3 3 9 6 7 4 7 b ",
"( t.<.d I >.p.<.d ( 5.e.<.d R ;.y.<.a ( , 4 8 4 8 @.t.<.d ( ;.t.<.b $.R 4 8 r 6 6 > > , 6 ;.q.1.d R ",
"0 B y 7 d d d r 8 d b b r 7 d M a b 8 a 8 , 4 0 b r d y 7 d n d b 8 y d d 7 3 8 L M 7 8 b b b e 8 d ",
"q b 8 3 w d a w 0 7 8 d 8 3 e d a w w 7 8 a 7 5 3 b b 7 4 8 n a w 8 7 8 a 8 3 b q n w 8 8 9 c 8 3 8 ",
"4 7 7 3 3 3 8 7 3 < 4 8 4 > , 3 8 7 3 > 4 8 4 2 > 3 8 7 3 3 3 7 7 3 3 4 8 3 > , 3 8 4 3 3 4 8 4 , 3 "
};
