/* XPM */
static char *MTAwMF9GXzQ5MzE1MTAyMl9GRjYxdkU2SlZLbDQ0NVVpV2VKQXp4bkpZTjJZSUhrZi4_[] = {
/* columns rows colors chars-per-pixel */
"50 50 183 2 ",
"   c #2E3B44",
".  c #2F3E49",
"X  c #323B46",
"o  c #343E49",
"O  c #383F49",
"+  c #354046",
"@  c #35414B",
"#  c #38424C",
"$  c #344650",
"%  c #3B4550",
"&  c #364852",
"*  c #3B4A54",
"=  c #3D4E58",
"-  c #434D56",
";  c #444E5A",
":  c #475057",
">  c #44525B",
",  c #4B545C",
"<  c #455661",
"1  c #4C5662",
"2  c #465A63",
"3  c #4C5B65",
"4  c #4D5E69",
"5  c #525763",
"6  c #535A66",
"7  c #515F6A",
"8  c #476367",
"9  c #4D626B",
"0  c #53636D",
"q  c #59656F",
"w  c #546571",
"e  c #5A6671",
"r  c #566973",
"t  c #5B6B75",
"y  c #5D6D79",
"u  c #5C7077",
"i  c #5D727B",
"p  c #626574",
"a  c #616C75",
"s  c #626E79",
"d  c #6B6F7B",
"f  c #627077",
"g  c #63737C",
"h  c #6A737D",
"j  c #64787F",
"k  c #69787F",
"l  c #667781",
"z  c #6B7682",
"x  c #667B84",
"c  c #6A7B85",
"v  c #677D88",
"b  c #6C7E89",
"n  c #707682",
"m  c #727A85",
"M  c #727E89",
"N  c #668087",
"B  c #66838B",
"V  c #6C848D",
"C  c #6D888E",
"Z  c #72848D",
"A  c #7A848E",
"S  c #73888F",
"D  c #6E8690",
"F  c #6E8A92",
"G  c #738691",
"H  c #7A8792",
"J  c #738A94",
"K  c #7A8B95",
"L  c #758E98",
"P  c #7B8E99",
"I  c #759097",
"U  c #799096",
"Y  c #75929A",
"T  c #7B939C",
"R  c #7D989F",
"E  c #7D96A1",
"W  c #7D99A2",
"Q  c #818C96",
"!  c #848F99",
"~  c #82949D",
"^  c #88929C",
"/  c #82999F",
"(  c #8396A1",
")  c #839BA4",
"_  c #899CA6",
"`  c #859EA8",
"'  c #8C9EA9",
"]  c #85A0A7",
"[  c #86A2AA",
"{  c #8BA3AC",
"}  c #8EA8AF",
"|  c #92A4AD",
" . c #95A8AF",
".. c #8DA6B1",
"X. c #8DAAB2",
"o. c #92A6B1",
"O. c #93ACB4",
"+. c #9AACB6",
"@. c #97AEB8",
"#. c #94AEB8",
"$. c #98AEB9",
"%. c #9AAFB9",
"&. c #8FB0B5",
"*. c #95B0B6",
"=. c #9AB1B7",
"-. c #95B2BA",
";. c #9AB0BB",
":. c #98B0BA",
">. c #9EB2BB",
",. c #9BB1BC",
"<. c #9AB2BC",
"1. c #9CB2BD",
"2. c #9FB3BE",
"3. c #99B6BE",
"4. c #9CB4BE",
"5. c #9CB4BC",
"6. c #97B8BD",
"7. c #9DB8BF",
"8. c #A0B1BB",
"9. c #A1B2BC",
"0. c #A1B5BE",
"q. c #9BB6C1",
"w. c #9DB5C1",
"e. c #9EB6C2",
"r. c #9DB6C1",
"t. c #9BB9C1",
"y. c #9CB9C1",
"u. c #9CB8C3",
"i. c #9EB9C2",
"p. c #9DBAC2",
"a. c #9FBCC4",
"s. c #9FBDC5",
"d. c #9DBAC2",
"f. c #A3B6C0",
"g. c #A1BAC1",
"h. c #A3B9C4",
"j. c #A2BAC4",
"k. c #A1BCC5",
"l. c #A1BCC7",
"z. c #A2BDC6",
"x. c #A2BFC7",
"c. c #A3BBC4",
"v. c #A9BDC6",
"b. c #A7BFC9",
"n. c #A4BEC9",
"m. c #A8BEC9",
"M. c #A9BFCA",
"N. c #AABEC9",
"B. c #A5C1C7",
"V. c #A6C1C8",
"C. c #A4C2CA",
"Z. c #A5C2CA",
"A. c #A6C3CB",
"S. c #A5C2CA",
"D. c #A8C1C8",
"F. c #AAC0CB",
"G. c #AAC3CA",
"H. c #ACC2CD",
"J. c #ADC3CE",
"K. c #AFC3CE",
"L. c #A8C5CD",
"P. c #A9C4CF",
"I. c #AAC5CE",
"U. c #ABC6CF",
"Y. c #ADC4CC",
"T. c #AAC4CD",
"R. c #A5C8CE",
"E. c #AFC8CF",
"W. c #A9C8CD",
"Q. c #B0C4CD",
"!. c #B2C6CF",
"~. c #B0C4CF",
"^. c #ACC6D1",
"/. c #AFCBD2",
"(. c #B1C7D2",
"). c #B1CCD3",
"_. c #B3CED7",
"`. c #B2CBD3",
"'. c #B8CFD7",
"]. c #BDCFD9",
"[. c #B3D0D6",
"{. c #B6D1DA",
"}. c #B8D1D9",
/* pixels */
"i C V b b D B b G 3 t S N b b D V V S 4 y G b v b D b b H 3 r G v v b b b v M 7 t G v v D F b b G 6 ",
"/ O.2.K.@.@...q.8.r K O.8.Q.$.O.o.@.8.i G $.f.M.q.$.o.w.8.y G @.w.M.w.@.&.q.w.r K +.f.M.#.#...w.+.z ",
"T 9 o.,.P D L ..i = J 3  .3.L J G o.i = K 4 o.%.L F J o.y = G 8 ..w.P L F X.l % G 9 o.w.T D L o.y * ",
"T U x.W E G W L.T , G ~ j.T E G ) G.( < K Y h.) P J ) m.( , J T u.E ( F [ l.~ 1 K P f.E T F ) M.( 3 ",
"T ^...E J T q.s.O.q G '.[ Y L L p.g.o.q G _...Y G Y 3.b.{ 0 G )...E F L q.A.o.w K (.[ E F L e.b.| e ",
"] n.L L J ..C...) < T m.L E D ..C.{ ( 2 T ^.P Y J [ L...' 3 T V.L E J ..C.{ ( 1 P K.E L F ..P...~ q ",
") [ E F W u.u.W P 2 Y [ E F E a.s.) T 2 Y [ ( V E a.q.` K < T { E F T k.s.W P 2 P { E F W u.q.) K 3 ",
"R ) F L X.P...Y K 0 G [ J J &.P.[ T K 0 D [ J L X.^.[ L K r V ] F L O.R.[ Y P q G ' J J X.P...L P e ",
"W [ V ) n.q.W D ' r J ` D ) P.#.( B { y G ` F ) b.-.) V { t J { F E A.-.` B ` t J } V ) C.-.E G _ j ",
"W F L q.M.[ Y D w.l V L L #.s.` Y F 0.i G T Y ;.n.[ J D 8.i V T L q.h.` I F h.g J J L ;.C.[ Y V 9.l ",
"U T [ L...E B [ h.0 G T [ ^.#.T B { 7.0 Z T [ L.X.E C _ v.9 Z ~ ` A.#.E B W k.e Z ~ { x...E V [ 0.e ",
"T ` 3.k.` J Y q.| 3 G { -.a.) D U 5.| 3 K ' 7.0.) F T >.{ 4 K ` a.q.( J I 6.o.7 K _ 3.a.` F T 4.| 7 ",
"R -.A.[ ~ D ..,.Q 1 K 0.L.[ E D  .=.P 3 S 0.Y.[ Y C  .;.~ 9 S 0.F...T G } 6.T , G 8.A.{ T D ..%.K 7 ",
"R 5.@.( G E e.( Z 4 K 7.O.) V ~ 4./ Z 0 K 5.o.` B W 5.( Z 6 K =.O.` Z P 6.( M 0 K 8.=.) V E f.T z q ",
"T u R T G f.O.G q ; J i T T J 3.=.S q - K u T T U 5.O.S e - K t Y T J 5.O.C t - K t T T J 7.O.J q , ",
"J i S b P ' G v h ; G i J c P { Z b f 1 V j Z c K | S M k : Z j S c K  .G c f : Z g S c K { G c f , ",
"+ @ o X O O X # O @ @ @ X O o X   o # X X # X + o # X % @ X o o o X o O @ + o o o o X o # # X + + O ",
"J K K Q d 6 ! S H P J K H Q h 6 ^ K H K K S K Q h 5 ^ P K K A Q K Q h 5 ! K A K P K K ^ d 6 ~ A A K ",
">.{ =.=.M s +.| (.f.+.{ >.8.z s +.{ `.;.O.} 5.=.M g o.{ /.5.2._ ;.=.b g O.{ ].=.+._ >.%.b s  .} `.>.",
"G V } J % h y B m.L J B } S * z u B C.U U N { J # c i V A.J J V { G % l u B v.K J V X.G * c u N x.J ",
"B W s.6.y y ` r.[ W B W s.q.r t ] y.[ Y F R B.=.r y ` 3.] R F R s.=.y u [ t.[ E G W p.-.y i ) s.[ T ",
"Y X.A.X.v w `.@.Y I Y &.n.o.x t `.*.W F Y X.x.O.b t /.6.Y I Y X.R...l r _.&.Y J Y X.R.X.l q /.-.T J ",
"] x.*.] r r ^.E W B W C.w.( l r ^.Y E D W C.*.` t t `.Y T D W C.#.` y y L.W Y J ( V.6.` y y `.T T Z ",
"-.x.{ T w l #.E F L q.R.` P r l o.E J Y 6.C.[ T t s X.T J T -.C.[ P y y O.Y J Y 3.V.) Y t y o.Y S R ",
"U.O.T T z y ..J J [ M.X.E L z y X.L F ..V.X.W J z r #.F L [ P.#.T K z y ..L D ..^.o.E J z y o.L I [ ",
"r.( G T P s o.D E s.u.` J ( H y &.B W q.t.[ F W P y ..v W q.s.E G T P y ..D W e.w.) D ( P w O.V R 7.",
"[ T V 5.K y ) J #.P...E b w.P e ) F X.R...E V *.P e ' D &.R...E G %.J y ( J #.A...L D $.K y ) J X.C.",
") D Y B.M t ) E s.-.W F E n.z y ) W C.&.( Z T x.b y ' T C.&.W D T m.c t ` E n.#.W F E h.v y _ W C.t.",
"Y F *.*.s y | O.V.[ Y F 5.O.y f o.#.m.` T Z *.=.y s | O.n.W E D =.O.y t X.O.x.{ Y F #.@.t y o.O.R.W ",
"B [ 7.( t e 4.C.&.T B [ 7.~ s e w.h.X.W V ) 0.~ a e 0.V.&.W B ` y.~ y t 4.V.O.W D ) y.W t g >.B.&.W ",
"S { } c t s +.o.` G I r.] Z t e @.....F J 6.{ M t t @...` F Y q.[ b a s O.} ] S J 7.[ B f y +.o.) J ",
"_ ~ ~ f : l l V _ J O.>.P h - z B x ) G ;.r.K l ; z c b ) F O.q.P h : m N N _ S +.0.U g ; m l x _ S ",
"A p h h 3 q m f h n ! A a h 5 q l g n h ^ A d z 1 e m d z z ^ Z a h 6 p h h k h ^ M f d 1 e z h k k ",
"X O O X @   o @ O O X X # X # X + # X # X X @ o o . o o X X X X # X # O @ + O X X # X # # + X @ +   ",
"k S _ / ) ] ) ~  .e j | ( ( _ ( ) / } q j | _ / ` ( _ _ | e c | / ( ' _ ) ( { r k { / / ] ( _ _ | a ",
"H x 5.B.} } ) 6._ 7 U T 5.E.} } ) O.' 0 P T +.Y.} } ) O.' 9 U Y 6.`.` | ` -.` 4 J R =.D. .{ ` %._ q ",
"Z , 5.} Y B I #.f = V 8 O.| U C Y X.y = V 9 @...T B I ;.i * S 9 O...P G F q.l o F 4 q.&.U Z J @.f % ",
"Z ~ 7.I T J X.F.| 9 S O.0.~ Y F ..L.| 3 J O.q.E T J { V.{ 9 D #.u.E E b ..M.' 0 J o.q.Y T J [ (.{ q ",
"K 0.] R V ) t.k.| 7 J }.( E J E t.a.' 9 J {.` E V W t.x.| 4 L `.W E D ) u.u...w L ].` E b ( h.f.{ q ",
"! ] R I J O.V.{ ( , T r.T L L #.^.[ ( 2 E q.W F I X.R.[ ~ < E r.E I F o.P.[ ~ 2 E q.E F L #.M...~ 1 ",
"J D W F W m.#.E J 9 J ] Y F W P.;.) J 4 G ` E D ) n.w.E J 9 J { E F ) b.=.R P 4 J ` I C ] s.3.W K q ",
"K L F Y q.n.[ K P r S { V Y -.A.` J P r G o.v E q.N.) L ( t G { B I q.b.[ J T r D ..C T -.A.[ J U y ",
"G x L [ ^.X.E b o.y J ( J [ ^.O.W V X.i P ~ D [ n.X.E M | y K / B ..K.O.U C | y F E V { P.X.E B  .j ",
"b G E u.s.W J J v.t V ~ E e.q.) F K c.i G E P s.s.` J K N.r V T Y s.y.) J U h.y D T U 7.a.[ G K 0.g ",
"K S o.A...W V O.0.9 G R ..^...E C X.7.9 C R } A.[ E B ..0.9 J R X.C...Y D } 2.9 F E o.h...W B X.0.q ",
"G V A.6.W B E 3._ 4 U } a.-.W v R 5.] > J { x.6.W F W p./ 2 J { x.-.W D W 3._ 2 J { b.q.W B W r.^ 9 ",
"Z { B.] L F ,.O.K 7 G g.b.[ I F *. .P 9 G A.v.] J C &.O.P 1 K x.n.[ Y L @.X.K 3 G V.l.[ L L -.o.S q ",
"Z S } R V [ ,.P c , P ` [ ) B ` 0.P k 5 S ] { R B [ 7.U k 1 K _ ..E b _ r.T l 1 J ` { ` b ) w.Y k 9 ",
"Q 0 U U ~ j.| S t * K r ! U T f.| Z e - A r ! U ~ j.] J e : H t E G Y h.' J p - H t U K T v.{ S q : ",
"k f k r c J f s t > f f f f v J j f y : h f f t V S g f a : h y h s v J i g a , a y j y c J g t a , "
};
