/* XPM */
static char *d2FsbHMrJTI4MSUyOQ__[] = {
/* columns rows colors chars-per-pixel */
"50 50 143 2 ",
"   c #010101",
".  c #080607",
"X  c #0B0B0B",
"o  c #0F1010",
"O  c #141414",
"+  c #181617",
"@  c #1B1B1B",
"#  c #232323",
"$  c #282727",
"%  c #2B2B2B",
"&  c #31302F",
"*  c #343434",
"=  c #383736",
"-  c #3C3C3C",
";  c #403E3F",
":  c #43423F",
">  c #444344",
",  c #4A4947",
"<  c #494748",
"1  c #4C4C4C",
"2  c #52514E",
"3  c #514F50",
"4  c #545454",
"5  c #5A5957",
"6  c #595758",
"7  c #5B5B5B",
"8  c #605E5F",
"9  c #646464",
"0  c #686667",
"q  c #696768",
"w  c #6C6B6C",
"e  c #706F6F",
"r  c #71706D",
"t  c #747374",
"y  c #787777",
"u  c #7B7977",
"i  c #797778",
"p  c #7C7C7C",
"a  c #807E7F",
"s  c #82817F",
"d  c #817F80",
"f  c #848484",
"g  c #888686",
"h  c #898887",
"j  c #898788",
"k  c #878888",
"l  c #8A8A8A",
"z  c #898889",
"x  c #8D8B8C",
"c  c #8D8C8D",
"v  c #8E8C8D",
"b  c #8F8D8E",
"n  c #8E8E8E",
"m  c gray56",
"M  c #8F8E8F",
"N  c #8B8B8B",
"B  c #908E8F",
"V  c #908F8E",
"C  c #8F908F",
"Z  c #92918F",
"A  c #908F90",
"S  c #939192",
"D  c #929292",
"F  c #949293",
"G  c #959394",
"H  c #959595",
"J  c #959495",
"K  c #979596",
"L  c #979797",
"P  c #979697",
"I  c #939393",
"U  c #989697",
"Y  c #989697",
"T  c #999798",
"R  c #9C9798",
"E  c #999999",
"W  c #9A9899",
"Q  c #9A9999",
"!  c #9B999A",
"~  c #9B999A",
"^  c #9A9A9A",
"/  c #9B9B9B",
"(  c #9C9A9B",
")  c #9D9B9C",
"_  c #9E9B9D",
"`  c gray61",
"'  c #9D9C9D",
"]  c #9D9D9D",
"[  c #9E9C9D",
"{  c #9F9D9E",
"}  c gray62",
"|  c #9F9E9F",
" . c #9F9F9F",
".. c #9C9C9B",
"X. c #A09E9F",
"o. c #A09E9F",
"O. c #A1A09F",
"+. c #A19FA0",
"@. c #A19FA0",
"#. c #A0A0A0",
"$. c gray63",
"%. c #A2A0A1",
"&. c #A3A1A2",
"*. c #A2A2A2",
"=. c gray64",
"-. c #A4A2A3",
";. c #A5A3A4",
":. c #A4A4A4",
">. c #A5A5A5",
",. c #A6A4A5",
"<. c #A7A5A6",
"1. c gray65",
"2. c #A7A7A7",
"3. c #A4A4A4",
"4. c #A8A6A7",
"5. c #A9A6A6",
"6. c #A9A9A7",
"7. c #A8A7A8",
"8. c #A9A7A8",
"9. c gray66",
"0. c #A9A9A9",
"q. c #AAA8A9",
"w. c #AAA9A9",
"e. c #AEABAC",
"r. c #ACACAC",
"t. c #AEACAD",
"y. c #ABABAB",
"u. c #B0AEAF",
"i. c #B0AEAF",
"p. c #B2B1AF",
"a. c #B1AFB0",
"s. c #B1B1B1",
"d. c #B2B0B1",
"f. c #B3B1B2",
"g. c #B2B2B2",
"h. c #B5B2B3",
"j. c #B5B3B4",
"k. c #B4B4B4",
"l. c #B3B3B3",
"z. c #B8B6B7",
"x. c #BAB9B7",
"c. c #BBBBBB",
"v. c #C8C8C8",
/* pixels */
"-.-.-.8.8.&.0.` e +     = t / 0.0.<.:.:.8.~ p %                       O t e w ` 1.=.0.1.*.0.H w %   ",
"-.;.-.v S W / D e - #   = i k E } / _ ;.o.p > @   - ; - ; = # % #     X > 6 w / 1.=.C D 0.} C k &   ",
"+.&.X.0 t z k f e y 0   * e 7 e d p g / p <     o -.h.a.k.W w p 9 .       & t H =.=.w t r.c f k.-   ",
"j.U w w t k z f 0 w 7     X X         .         X G -.X.<.W k W L e @     = y 0 l 0.1.E 0 a f t %   ",
"0 0 w t p j z f t t 7         O % = - - - = % o . ~ 4.@._ H z L D y @     = t 0 d E / D e s s t %   ",
"  # y f j z k f c y 6         = p ;.a.;.h.@.y $   _ 8.} v f f f d w @     - p w i k f f C l p t $   ",
"  $ p R  .`  .W g t 9 7 %   - y _ o.+.o.G x _ *   } q.:.N g N z N } $     X @ 9 p k k k k k d i %   ",
"O * w L ` ` ` W f t w w *   5 c t.+._ o.A x a.-   G } ' g g g z N =.%   @ X   1 t k f f k f i 9 #   ",
"h.0   w t w w w w e 7       7 D <.j f f z c k.;   9 t j v d 0 p s i @ o k.1     - p k C I d 1       ",
"a.9   + - i w w w y 9       + 1 d ~ ( g z f f %   q a l j f d v p @   + 0.C t X   @ # # $ # +       ",
"t.e o   # 9 9 w 5 9 4   X O   & e A R d f y t #   6 e f a d f l e     +  .2.r.* O O             X O ",
"8.8.U .     8 w         & t . = d t t t t t p %     % a t t t y 9     @ 0.2.=. .=.<.+   .       > t ",
"g G _ > #   % =   - 6 1 e v o + - = = = = = = O     + - * = = = %     @ H H H  .=.2.1 $     .   4 D ",
"0 d &.d <         p j.a.t.<.@                                         O f f f ` =.=.k 4     .   0 k.",
"W +.-.;.9     O 4 S ;.w z <.8 e A H w   7 E A w 4 8 =           X H # X w c y.c H 1.e 8 8 # o 5 i A ",
"4.<.&.a.0     + l v g 0 g 0.c E <.g.f   w k.0.L k A w &   O = < 7 s.% . w p l f C I l s l # @ k f k ",
";.:.+.g.0     @ r.p 0 0 k 9.1.*.` t.p   q s.] 1.0.2.H w . % y *.k.9.% . e 0 8 k k k 2.} D % + D g g ",
"t.D w p ,     @ =. .] ` *.*.1.l w 0.p   o * t t t 0.I 8   = *.] *.r.%   X > y I D k N k D % @ I g g ",
"E z e t >     @  ./ E 2.1.*.1.C t <.p     @ w 0 w H k 9   - s.*.*.9.> O   = t E D f f d k $ @ k f f ",
"9 f 0.p <     @ 2.i e 1.1.=.1.=.&.g.p     @ p i i t t w   - k.9.9.=.p 7   - p 0.1.C D l p $ + t f A ",
"w t p t >     O d t e a H y.1.1.=.D 9       # @ @ # # $   * C s d f t 6   o # * & % % # # o X # 6 p ",
"w 0 9 e >     o 0 w e 0 s E H H D 7 -   @ % # # # $ O     @ 1 7 0 w w 6   O # @ @ # # @ O X     - e ",
"e t t p ,     O i w q w 0 9 w w 9 o     w k.<.s.s.k.0         5 p e i 9   4 c.i.s.s.k.] t #     , p ",
"$ % $ % @     . % 7 e w e w e w e X @ 0 p I A A A 0.p - , %   # % # % #   4 i.d p s ] ` I 9 %   @ & ",
"            .     , w w 0 0 9 0 w . % c.D k l k f =.I t p 1               4 i.e w t H &.0.c 4       ",
"                  . .     . X       # s.C l 9.I k 0 p =.r.0     o 9 9 w ` &.5.o.+.;.c j f &.p       ",
"$ * : - - > > =     . ; @     # , & 3  .l C y.I f s k C ` 7     O f f f ` ` ~ o.W R v g f H w       ",
"t c l.y.r.r.k.H     @ c.8 .   4 k.I l a f C =.D k r.D 8 w ;     @ &.:.` f f g j f f j j z i 1   X X ",
"O.O.O.O.&.=.p 4     @ =. .E X   o 7 t e d f q p N k k p O       O y / 2.@.R x @.G f v j g d 6   4 z ",
"O.O.O.O.O.W N w     @ E *.9.3 @   * 3 w p f t s z f k d . O , X . > p D A j d K A f j f d 7 &   6 G ",
"6.O.O.6./ f =.A     O k L 2.c.6     @ t p k k k N k c c   = v.%     < w 0 w q d j j d p y $     3 c ",
"Z Z N C C d =.c     o e d C k ;     X O 6 s t i i p 4 # y f I #     6 i e e e t t y y t y # O f A ` ",
"h h s h g s ] k     O 9 t p 9 %         - 9 6 6 5 9 *   / / k = o   > 9 7 7 7 q w w 8 7 7 % - z.5.,.",
"h h N h k N D u     O w t t O                         X 0 f C =.N             9 y w +     0 i.X.o.-.",
"s h s Z s y - @       @ @ @   # 4 e y f %               + @ # w s 3 O . 4 #   + @ @   O 1 t U -.,.4.",
"h h s s t 6 O     O + O O O O > p *.9.x.1     o O @ O O X .   , 0 t + X f , O @ .     # d a l X.-.-.",
"h Z Z p ,         s k.:.=.:.<.2.<.&.O.2.f 4   > y } N 9 t :     o p @ o =.O.} p.4     % i.B g j z g ",
"Z r ; - #   > 1   = 9 >./ D H H L H I L f 4   > y O./ f N q & X . - X + :.>.=.O.9 *   % i.B g V z f ",
"Z 2         N }     X O.Z s s f h f f f p 4   > i } >.6.6.Z p #       + O.>.>.h i y X $ 0.v f B k f ",
"+ .   f D N ` } D # o p Z O.C h z k k c p 1   > y =.Z r :.O...#     w / N N N p ; X   % g.U j f k k ",
"  @ 7 1.*.l D L k.%   & w r.h h h k f p y 1   > y I h y g Z 6.4 %   w L k d y t *     # D d p f k k ",
"  > c.1.C 7 s c t.%     2 g.f f h k p 0 t 6   > r p h h 9 p >.k 9   , r h i 9 t =     @ e 9 w f f k ",
"  - 2.c k s k c } L p   5 x.N h f h s t * X   > u f g g s I 2.*.s   4 i e t y @ .       o 1 p y y y ",
"  ; 0.k l A k c } t.D   : s u g N C d r #     > y N C C h Z ` 0.N   - 6 w 7 1 X     # #   * 6 3 3 3 ",
"  ; s.k D r.C l 0.0.k       5 H x.l.} t %     , u r.s.1.l k f =.c     X p -         ` k             ",
"  * D k k d f l D D f , #   # & = * & # X     @ % = 5 k p p t f i , O   % O   5 w 9 N k 9 4 *     . ",
"  @ 5 p t 9 i f z f a i =     X # @ @ % O           + 4 1 7 w 0 w i @     O % / s.2.z c s.L 7       ",
"      0 t t t d t.` c a -     4 x.2.0.c.-                 $ i e t p @     4 c.` <.0.N C  .s.d       ",
"    . # % $ % % - = & % +     2 r.D C D w 6 q 4 > , %     o % $ $ % X X - w H A D H k h D W w       ",
"    .                         2 r.N h s N W k.l e p ,                 O t p k k f f f k k N 9       "
};
