/* XPM */
static char *OWU4ZTI0MDY5MzEyM2U2[] = {
/* columns rows colors chars-per-pixel */
"50 50 155 2 ",
"   c #140D0D",
".  c #161612",
"X  c #1E1212",
"o  c #151813",
"O  c #1A1C17",
"+  c #1B1E19",
"@  c #211515",
"#  c #221817",
"$  c #251A19",
"%  c #2B1D1D",
"&  c #321D1D",
"*  c #1F231E",
"=  c #24211E",
"-  c #2A211E",
";  c #242622",
":  c #2E2423",
">  c #252823",
",  c #2B2926",
"<  c #2C2E29",
"1  c #352323",
"2  c #382626",
"3  c #302827",
"4  c #342B2B",
"5  c #3C2C2C",
"6  c #2E312D",
"7  c #32322E",
"8  c #39322F",
"9  c #343331",
"0  c #3C3333",
"q  c #363A35",
"w  c #3A3A36",
"e  c #3D3B39",
"r  c #402E2E",
"t  c #423434",
"y  c #443837",
"u  c #453A3A",
"i  c #4B3D3D",
"p  c #47403F",
"a  c #454443",
"s  c #4C4343",
"d  c #474946",
"f  c #4B4947",
"g  c #4C4C4C",
"h  c #514444",
"j  c #504847",
"k  c #534A4A",
"l  c #594E4E",
"z  c #4E514D",
"x  c #52514E",
"c  c #4F5050",
"v  c #535353",
"b  c #5C5353",
"n  c #5C5C5B",
"m  c #615757",
"M  c #625C5B",
"N  c #60605E",
"B  c #646463",
"V  c #6A6666",
"C  c #6C6768",
"Z  c #6C6D6D",
"A  c gray43",
"S  c #6F6F6F",
"D  c #6C6C6C",
"F  c #736969",
"G  c #706C6C",
"H  c #706E6D",
"J  c #736F6F",
"K  c #6F7070",
"L  c gray44",
"P  c #737171",
"I  c #727272",
"U  c gray45",
"Y  c #747272",
"T  c #747373",
"R  c #737473",
"E  c #747473",
"W  c #747474",
"Q  c gray46",
"!  c #767676",
"~  c #777776",
"^  c #777777",
"/  c #747474",
"(  c #787777",
")  c #797777",
"_  c gray47",
"`  c #797979",
"'  c #7A7979",
"]  c gray48",
"[  c #7B7A7A",
"{  c #7B7B7B",
"}  c #7A7B7A",
"|  c #7C7B7B",
" . c #7C7C7C",
".. c gray49",
"X. c #7D7C7C",
"o. c #7E7E7E",
"O. c #7F7F7F",
"+. c #7D7D7D",
"@. c #827F7F",
"#. c #7F8080",
"$. c #818181",
"%. c #838080",
"&. c #838383",
"*. c #848484",
"=. c gray52",
"-. c #868686",
";. c gray53",
":. c #848383",
">. c #888787",
",. c #898585",
"<. c #888888",
"1. c #898989",
"2. c gray54",
"3. c #8B8B8B",
"4. c #8D8B8B",
"5. c gray55",
"6. c #8D8C8C",
"7. c #8C8D8D",
"8. c #8D8D8D",
"9. c #8E8E8E",
"0. c gray56",
"q. c #8C8B8B",
"w. c #918F8F",
"e. c #909090",
"r. c gray57",
"t. c #929292",
"y. c #939393",
"u. c #949394",
"i. c gray58",
"p. c #959494",
"a. c #959595",
"s. c #959695",
"d. c #979696",
"f. c #979797",
"g. c #949494",
"h. c #989898",
"j. c #9B9B9B",
"k. c gray61",
"l. c #9D9C9C",
"z. c #9D9D9D",
"x. c #9F9E9E",
"c. c #9E9F9E",
"v. c #9F9F9E",
"b. c #9F9E9F",
"n. c #9F9F9F",
"m. c #9B9B9B",
"M. c #A09F9F",
"N. c #A09F9F",
"B. c gray63",
"V. c gray64",
"C. c #A4A4A4",
"Z. c #A5A5A5",
"A. c gray65",
"S. c #A7A7A7",
"D. c #A4A4A4",
/* pixels */
"S.F 2 Z T n e.S.Z.Z.Z.Z.Z.B.=.b 1 C U n q.A.D.D.D.Z.Z.Z.Z.Z.Z.Z.D.D.S.D.S.D.S.D.S.D.-.B 1 M _ n *.S.",
"s.M - n A D <.e.u.u.u.y.y.t.9.B : n A D =.u.u.u.u.u.u.u.t.u.u.t.r.s.s.e.t.s.t.t.t.t.e.G - v A D $.e.",
"O.z + v D o.o.o.+.+.+.+.+.#.B.D o g B ..........+.+.+.+.+.+.+.+.+.+.+.+.+.+.+.+.+.+.z.[ + d V o.o.+.",
"O.b 1 $.8. .o.o.+.+.O.o.+...=.n + g V ] ........+.+.+.O.+.+.+.+.+.+.+.+.+.+.+.+.+.+.*.V + Z t.o.o.o.",
"o.b 1 $.s.<.$.o.O.U Z Z Q +.K g O c I ;.&.+...W A D D A _ _ Z _ [ Z Q +.o.Y J ' +.+.o.N + D s.<.$.o.",
"o.k # C <.M.-.[ ] M f f B _ c 0 # B ;.B.;.` { N f f g g U Z g Z Y g V +.[ B g T +.+.o.n @ b -.z.8.[ ",
"8 : X 4 0 u u u u r 4 2 0 y : $ X 3 0 u 0 0 9 5 2 4 5 4 9 < ; 0 0 > 7 y 9 4 2 u u u 0 1 X , q h i u ",
"4 4 4 @ $ 4 5 r i i i i i i y 0 e 0 0 3 $ # 4 4 0 i i i e q q p i w u i w e t 1 1 5 : 4 0 e w i i i ",
"_ _ Y 1 0 ^ B D j.N.b.b.N.b.b.b.b.b.u.` 0 3 Q B B u.b.b.b.N.b.N.b.z.N.b.b.8.T 5 y n v A z.b.b.b.M.M.",
" .o.^ 5 0 C Z ^ <.8.8.8.7.7.9.8.8.8.9.u.s 3 B A T 1.7.7.7.7.8.8.8.8.8.8.8.e.8.r 0 n A ` 3.7.7.7.8.8.",
" . .^ 0 t V _ o.+.+.+.+.+. . . . . .-.z.k 4 B K O.X.X.+. . . . . . . . .o.8.s.t u V ^ O.] O.+.+.| | ",
" . .) 0 k k.-. .+.+.o.+.+.+.+.+.o.o.O.O.e 7 s.7.X.+.+.+.+.+.+. .o. .o. .o.o.Q > g z.=.......+.O.o.o.",
"@. .^ 4 f D.<.o.+.+.+.+.O.+.+.+. .O.^ B 6 6 z.0.+.+.+.+.+.+.+.O.o. .o.o.+.+.Q ; g D.*.+.+.+.+.+.o.| ",
" . .^ , a b.<.O.+.+.+.] ] +.` ^ [ ] K c , 9 h.0.#.+.+.+.] _ _ ]  .[ _ _ +.+.R ; g n.<.#.O.] _ +.o.o.",
"O.$.] 3 e -.h.h.#.O.[ v D ] n v v Q ] ^ 0 3 +.u.z.&.+.+.n v v U Q v c n _ #.Q : a -.h.h.O.N n  .o.o.",
"m b x % 3 c V C n m b u f b p e u l m v : $ k B C M n b p e u l v u e u n b k $ 4 b V V b a i b b M ",
"1 & # $ X   X $ 1 1 1 1 2 1 1 1 2 1 1 # X     . $ & 1 1 1 1 1 1 1 1 2 1 1 & $ $ $ @ @ @ # % 1 1 1 2 ",
",.,.@.C s X k B k Y ,.,.,.,.>.,.-.,.,.&.G v   u V c V ,.>.,.,.,.>.-.,.,.,.,.&.&.) M 1 3 B b b :.,.,.",
"h.k.j.w.V $ n I V -.k.j.k.h.j.j.j.j.j.j.e.Y # f Y V +.j.j.k.k.k.h.j.j.h.j.j.j.j.t.*.4 3 M B L f.j.j.",
"O.+.O.b.) 1 k B ] +.O.+.O.O.O.+.O. .O. .h.<.2 u B ^ +.O.O. .O.O.O...O.O.O.O.o.] 8.b.q . $ n O.o.o.@.",
"+.+.O.1.C 1 J 4.+.] +.O. . .+.+. .o. .+.>.Y = n 8.O. . . .O. . .O.] O.O.o.O.] o.&.-.9 6 Y ] o. . .o.",
"+.+.+.O.M & ' h.-.&.] Y I I U U U U I T ` D * B b.>.O.O. ._ Y ] ] U ] ] U U U U ^ _ < e j.9.$.o.o. .",
"O.+.+.&.n @ B 3.D.9.^ v c c c g c g c g K D + c -.b.t. .+.K c U U c D ^ v c c g B ] 4 0 O.f.k.O. .o.",
"k h k s 0 X 0 s M l h 0 5 < 4 4 4 8 0 0 u e X 4 s m l k k s 0 i s 0 i s 4 4 4 4 9 p $ % p b m k k j ",
"5 5 r 1 : 1 : : r r 5 r 1 % @ @ % 1 2 0 1 : : : : 5 r r 5 r r r r r 5 5 % $ X = % $ : 1 % 5 r r r 5 ",
"d.h.d.u.t.t.t.u.u.s.d.d.%.V % e L n V u.u.u.u.u.u.s.d.d.d.d.d.p.d.d.d.t.Y i $ B V v $.d.p.t.d.d.p.d.",
"u.u.u.u.u.u.u.u.t.s.t.s.e.&.: w K D ! t.u.u.u.u.u.u.u.e.t.t.t.t.u.t.t.u.t.v $ N K A 4.t.u.u.t.u.t.e.",
" . . . .o. .o.o.o.o.o.] e.f.< 9 N ! +.+.+.+.+.+. . .o. .@. . . . . . .&.b.n * c D +. . . . . . .@.| ",
"......+.o.o.o.] o.o.o.o.&.] ; d u.&.+. .{ +.O.+.+.+.+.+. .o.o. . .O. .+.-.g * &.7.o.] o.|  .@. .o. .",
"..Q Z Z D A ^ o.o.U K ] O.Y : g h.7.1.1.&.{ Z Z K ] +.+.G D D _ ] D D L ] f = &.t.<.O.o.' @. . . .o.",
"+.B g d f g A ] [ n v Q ] Y 5 h @.h.V.N.;.K c f c Y ` _ v d g D L g d v ^ d $ D 4.M.&.] @.) @.' | | ",
"u 8 ; ; ; : 4 0 0 4 5 u 0 9 & 2 t s h h w 6 ; - : 8 8 8 5 5 5 t 0 ; 3 4 9 : X 4 y h i u u y y u u t ",
"i u q q 9 4 $ # 3 5 0 i u q i i i i i i e q q 9 3 @ % 4 5 t i i i q u i w w 0 0 t t 1 1 t r r i i i ",
"N.b.b.B.t.) 5 4 Y V B h.b.b.b.b.b.b.N.N.N.b.b.3.D % p ^ n Y B.N.n.c.n.n.c.c.N.B.e.Q t u ( B V h.B.z.",
"7.7.3.7.t.t.y 5 V Z Q 2.8.3.7.7.7.7.3.7.8.8.8.e.>.; g f.8.<.4.8.3.7.7.7.8.3.3.8.e.e.e 4 V A ~ <.8.4.",
"] ] O.] ,.N.h r B Q ..+.+.o.] +.+.] +.+.]  .] t.t.; g k.z.e.o.| +.+.+.+.{ { o.{ <.h.q < B Q o.o.| | ",
"O.O.+.+.O.O.y i h.3.] +.o.+.+.+.+.+.O.+. . . .@.Y ; q B [ #.@.| +.+. .o. .o.{ { #.{ 6 e k.<.{ +.| o.",
"O.] +.O.O.] u u 8.t.9.O.o.[ V A ] D B B B B B Y Y : p G 7.<.| | o.+.o.o.o. .o.o. .[ 8 u 0.r.7.o.| @.",
"^ Y Y Q U Y y t Y 3.t.[ ^ K g n U c a d d s d B D 2 h ( e.w.T T Q E Q T T E R R R Y t t T 6.e._ T T ",
"5 3 ; ; , 5 1 & 5 4 < 5 5 5 1 2 5 = + + : 1 1 2 5 & 1 5 t 0 5 r 5 5 5 5 ; ; ; ; , 5 1 & 5 r t 5 5 5 ",
"b x z z k b m b b k g s t & p i e d c g b b b b b m l m b l s 2 2 s u y f z z g u & h m b b b b b m ",
"C.B.n.D.D.S.D.D.D.S.z.*.l 2 L Y N t.C.C.C.C.C.C.V.C.C.C.C.h.o.i t [ D D c.V.V.S.Y 2 ,.C.N.B.V.V.B.B.",
">.{ K j.S.D.S.D.S.S.z.$.k 2 L Y N t.S.S.C.A.S.S.C.Z.S.C.C.B.k.8.6.h.s.s.V.D.B.8.M 2 J $.G  .,.,.-.-.",
"Y A V 0.h.h.h.h.h.h.s.<.b : V A V 3.f.f.h.h.h.h.h.h.h.j.h.h.h.h.z.h.j.j.h.j.h.8.N & M L V E  . .o.[ ",
"n D { o.#.o.o.o.o.+.*.B.n O z V ] O.O.O.o.o.o.o.@. . .o.+.o.+.o.o.o.o.o.+.+.#.c.Z o z B { { { +.[ o.",
"7.-.{ o.+.+.+.o.o.o.#.3.x * z D o.]  .o.] o.o.O.@.| o. .+.o.+.+.+.{ o.{ o.{ #.<.n * K <.{ V n n A o.",
"z.y.&.o.+.o.Q Q R [ +.Q p * v K &.O.] O.^ U Y Y Y  ._ T ] [ U [ o.+.Q R +.o.{ +.v * +.h.*.B v v D | ",
"$.0.B.-.+.+.n g g D _ v 7 $ D 8.D.-.O. .N g c g v _ D c Q A c K o.o.B v _ +.o.#.b O V 7.B.<.} } o.@.",
"a j b k h h u 0 t s h 4 % @ y k v s i p y 0 0 0 t a w 6 s p < s s a e t j j k s 5 X w f m l k h k h ",
"X X X % & & & & & & % @ X X X X X X X X % & & & % . . o % $ o % % o $ & & & % @ X @ . O & & & & & & "
};
